<svg width="69" height="61" viewBox="0 0 69 61" fill="none" xmlns="http://www.w3.org/2000/svg">
<path d="M62.5941 24.5H6.48337C3.18401 24.5 0.5 27.1915 0.5 30.5V42.5C0.5 45.8085 3.18401 48.5 6.48337 48.5H14.5942V46.5C14.5942 43.1915 17.2782 40.5 20.5775 40.5H48.4999C51.7993 40.5 54.4833 43.1915 54.4833 46.5V48.5H62.5941C65.8934 48.5 68.5775 45.8085 68.5775 42.5V30.5C68.5775 27.1915 65.8934 24.5 62.5941 24.5ZM42.5166 34.5C41.4151 34.5 40.5221 33.6045 40.5221 32.5C40.5221 31.3952 41.4151 30.5 42.5166 30.5C43.618 30.5 44.511 31.3952 44.511 32.5C44.511 33.6045 43.618 34.5 42.5166 34.5ZM50.4944 34.5C49.3929 34.5 48.4999 33.6045 48.4999 32.5C48.4999 31.3952 49.3929 30.5 50.4944 30.5C51.5959 30.5 52.4888 31.3952 52.4888 32.5C52.4888 33.6045 51.5959 34.5 50.4944 34.5Z" fill="#404040"/>
<path d="M44.5098 0.702393V8.5H52.2857C51.4906 4.5876 48.4113 1.49973 44.5098 0.702393Z" fill="#404040"/>
<path d="M18.5823 0.5C17.4799 0.5 16.5879 1.39453 16.5879 2.5V20.5H52.4881V12.5H42.5158C41.4134 12.5 40.5214 11.6055 40.5214 10.5V0.5H18.5823Z" fill="#404040"/>
<path d="M48.4988 60.5C49.6012 60.5 50.4933 59.6055 50.4933 58.5V46.5C50.4933 45.3945 49.6012 44.5 48.4988 44.5H20.5765C19.4741 44.5 18.582 45.3945 18.582 46.5V58.5C18.582 59.6055 19.4741 60.5 20.5765 60.5H48.4988ZM26.5598 50.5H42.5155C43.6179 50.5 44.5099 51.3945 44.5099 52.5C44.5099 53.6055 43.6179 54.5 42.5155 54.5H26.5598C25.4574 54.5 24.5654 53.6055 24.5654 52.5C24.5654 51.3945 25.4574 50.5 26.5598 50.5Z" fill="#404040"/>
</svg>
