<svg width="40" height="61" viewBox="0 0 40 61" fill="none" xmlns="http://www.w3.org/2000/svg">
<path d="M0.213214 23C0.159924 22.3822 0.132812 21.7578 0.132812 21.125C0.133747 9.73438 9.00783 0.5 19.9537 0.5C30.8995 0.5 39.7736 9.73438 39.7736 21.125C39.7736 21.7569 39.7464 22.3822 39.6932 23H39.7736C39.7736 34.2716 19.9537 60.5 19.9537 60.5C19.9537 60.5 0.133747 34.3334 0.133747 23H0.213214ZM19.9537 26.75C24.2065 26.87 27.7535 23.5147 27.8816 19.25C27.7535 14.9853 24.2065 11.63 19.9537 11.75C15.7008 11.63 12.1538 14.9853 12.0257 19.25C12.1538 23.5147 15.7008 26.87 19.9537 26.75Z" fill="#404040"/>
</svg>
