<svg width="144" height="546" viewBox="0 0 144 546" fill="none" xmlns="http://www.w3.org/2000/svg">
<path d="M34.3516 101.055L34.0459 101.823C33.4133 103.413 34.2861 105.178 35.995 105.767C36.3724 105.896 36.7591 105.958 37.14 105.958C38.4812 105.958 39.7419 105.192 40.2341 103.954L40.5394 103.186C41.1719 101.597 40.2997 99.8315 38.5907 99.2431C36.8835 98.6538 34.9841 99.4661 34.3516 101.055Z" fill="#404040"/>
<path d="M38.6881 90.1697L38.294 91.1596C37.6614 92.7489 38.5337 94.5146 40.2427 95.103C40.6201 95.2331 41.0067 95.2949 41.3877 95.2949C42.7284 95.2949 43.9891 94.5289 44.4818 93.2907L44.8759 92.3008C45.5085 90.7115 44.6362 88.9458 42.9273 88.3574C41.2196 87.7677 39.3202 88.5796 38.6881 90.1697Z" fill="#404040"/>
<path d="M44.5712 84.2144C44.9491 84.3445 45.3366 84.4067 45.7175 84.4067C47.0578 84.4067 48.318 83.6416 48.8111 82.4038L49.1168 81.6365C49.7502 80.0472 48.8788 78.2816 47.1704 77.6919C45.4628 77.1035 43.5635 77.9133 42.9301 79.5026L42.6244 80.2698C41.9914 81.8591 42.8632 83.6252 44.5712 84.2144V84.2144Z" fill="#404040"/>
<path d="M95.9483 103.187L96.2536 103.955C96.7458 105.193 98.0065 105.959 99.3476 105.959C99.7277 105.959 100.115 105.897 100.493 105.767C102.202 105.179 103.074 103.413 102.442 101.824L102.136 101.056C101.503 99.4662 99.6063 98.6536 97.8969 99.2432C96.188 99.832 95.3157 101.597 95.9483 103.187Z" fill="#404040"/>
<path d="M97.8021 90.1697C97.1696 88.5799 95.2715 87.7681 93.563 88.3569C91.854 88.9453 90.9818 90.711 91.6143 92.3004L92.0084 93.2902C92.5011 94.5284 93.7614 95.2944 95.1026 95.2944C95.4831 95.2944 95.8697 95.2331 96.2476 95.1025C97.9565 94.5141 98.8288 92.7484 98.1962 91.1591L97.8021 90.1697Z" fill="#404040"/>
<path d="M93.5459 79.5028C92.912 77.9131 91.0122 77.1033 89.3055 77.6921C87.597 78.2814 86.7256 80.0474 87.359 81.6368L87.6647 82.404C88.1583 83.6414 89.4181 84.407 90.7584 84.407C91.1393 84.407 91.5269 84.3452 91.9047 84.2147C93.6132 83.6254 94.4846 81.8594 93.8512 80.2701L93.5459 79.5028Z" fill="#404040"/>
<path d="M68.2385 84.4563C70.0609 84.4563 71.5376 83.0826 71.5376 81.3873V80.569C71.5376 78.8737 70.0609 77.5 68.2385 77.5C66.4161 77.5 64.9395 78.8737 64.9395 80.569V81.3873C64.9395 83.0822 66.4161 84.4563 68.2385 84.4563Z" fill="#404040"/>
<path d="M64.5664 93.5539C64.5664 95.2491 66.0431 96.6228 67.8655 96.6228C69.6879 96.6228 71.1646 95.2491 71.1646 93.5539V92.5689C71.1646 90.8737 69.6879 89.5 67.8655 89.5C66.0431 89.5 64.5664 90.8737 64.5664 92.5689V93.5539Z" fill="#404040"/>
<path d="M64.5664 107.387C64.5664 109.083 66.0431 110.456 67.8655 110.456C69.6879 110.456 71.1646 109.083 71.1646 107.387V106.569C71.1646 104.874 69.6879 103.5 67.8655 103.5C66.0431 103.5 64.5664 104.874 64.5664 106.569V107.387Z" fill="#404040"/>
<path d="M50 539.5H114.82L139.751 429H119.806C119.806 429 95.8032 512.136 50 539.5Z" fill="#4B4339" fill-opacity="0.4"/>
<path d="M69.7403 295.5C69.7403 295.5 58.0081 309.595 58.0081 328.996C58.0081 332.096 58.3098 335.101 58.8133 337.964C57.6496 336.439 56.3728 334.949 54.9588 333.531C42.4513 320.989 25.5004 319.765 25.5004 319.765C25.5004 319.765 26.7215 336.763 39.2289 349.304C41.6087 351.691 44.1869 353.703 46.8024 355.401C45.9519 355.338 45.0893 355.303 44.2158 355.303C30.1193 355.303 19.8789 364.127 19.8789 364.127C19.8789 364.127 30.1193 372.95 44.2158 372.95C45.8816 372.95 47.5084 372.824 49.0855 372.606C45.887 378.893 47.2537 386.676 47.2537 386.676C47.2537 386.676 57.0279 387.168 63.3853 380.794C66.7617 377.408 68.7626 372.832 69.7403 370.009C70.718 372.832 72.7188 377.408 76.0952 380.794C82.4527 387.169 92.2269 386.676 92.2269 386.676C92.2269 386.676 93.593 378.894 90.3951 372.606C91.9721 372.824 93.599 372.95 95.2648 372.95C109.361 372.95 119.602 364.127 119.602 364.127C119.602 364.127 109.361 355.303 95.2648 355.303C94.3918 355.303 93.5287 355.337 92.6781 355.401C95.2937 353.703 97.8724 351.691 100.252 349.304C112.759 336.762 113.98 319.765 113.98 319.765C113.98 319.765 97.0293 320.989 84.5223 333.531C83.1083 334.949 81.8315 336.44 80.6678 337.964C81.1708 335.101 81.473 332.097 81.473 328.997C81.4725 309.595 69.7403 295.5 69.7403 295.5V295.5Z" fill="#B3E59F"/>
<path d="M49.7949 425.5C49.7949 414.454 58.7245 405.5 69.7395 405.5C80.7545 405.5 89.6841 414.454 89.6841 425.5H49.7949Z" fill="#9D6B6B"/>
<path d="M122.926 503L140.136 425.5H4.23047L9.35512 449.5M119.928 516.5L114.154 542.5H29.2131L12.4513 464" stroke="#404040" stroke-width="7" stroke-linecap="round" stroke-linejoin="round"/>
<path fill-rule="evenodd" clip-rule="evenodd" d="M96.0739 422.496C94.279 411.099 85.2795 402.075 73.9141 400.275V385.888C82.2257 394.19 94.529 393.67 95.051 393.644C96.9956 393.546 98.6141 392.112 98.9524 390.19C99.0059 389.885 99.9253 384.447 98.7037 378.325C115.544 378.136 127.61 367.907 128.12 367.468C129.043 366.672 129.574 365.513 129.574 364.293C129.574 363.073 129.043 361.913 128.12 361.119C127.692 360.75 119.118 353.479 106.411 351.044C106.526 350.932 106.638 350.82 106.751 350.707C121.642 335.775 123.228 315.911 123.288 315.073C123.375 313.861 122.933 312.672 122.076 311.812C121.219 310.953 120.039 310.508 118.824 310.597C118.056 310.653 101.268 312 86.9965 323.803C86.5129 301.557 73.5084 285.681 72.9446 285.004C72.1515 284.05 70.9777 283.5 69.7399 283.5C68.5021 283.5 67.3284 284.051 66.5353 285.004C65.9715 285.681 52.9676 301.556 52.4839 323.803C38.2121 312.001 21.4242 310.653 20.6561 310.597C19.4417 310.511 18.2613 310.953 17.4042 311.812C16.5476 312.672 16.1057 313.861 16.1926 315.073C16.2527 315.911 17.8388 335.775 32.7284 350.707C32.8414 350.82 32.9544 350.932 33.0684 351.044C20.3623 353.479 11.7885 360.75 11.36 361.119C10.4372 361.914 9.90625 363.073 9.90625 364.293C9.90625 365.513 10.4372 366.673 11.36 367.468C11.8698 367.907 23.9359 378.136 40.7762 378.325C39.5546 384.447 40.4734 389.885 40.5269 390.19C40.8647 392.112 42.4837 393.546 44.4283 393.644C44.4951 393.647 44.7545 393.658 45.1747 393.658C48.0342 393.658 58.3188 393.126 65.5652 385.887V400.274C54.1998 402.074 45.2008 411.098 43.4059 422.495L51.9118 422.496C53.8063 414.381 61.0777 408.316 69.7399 408.316C78.4027 408.316 85.6741 414.38 87.5692 422.496H96.0739ZM48.4934 385.034C51.678 384.58 56.308 383.334 59.6941 379.939C62.7368 376.888 64.6152 372.711 65.568 370.129V369.356L58.5153 362.284C56.8852 360.649 56.8852 358 58.5153 356.364C60.1455 354.73 62.788 354.73 64.4187 356.364L65.5674 357.516V354.345C65.5674 352.033 67.4358 350.159 69.7416 350.159C72.0474 350.159 73.9158 352.033 73.9158 354.345V357.516L75.0645 356.364C76.6947 354.73 79.3372 354.73 80.9679 356.364C82.598 357.999 82.598 360.649 80.9679 362.284L73.9152 369.356V370.128C74.8658 372.709 76.7442 376.886 79.7869 379.937C83.1724 383.332 87.803 384.58 90.9915 385.033C91.0015 382.386 90.6559 378.76 89.0791 375.66C88.3723 374.272 88.4942 372.604 89.3947 371.333C90.2947 370.063 91.823 369.398 93.3652 369.611C95.0254 369.84 96.6639 369.956 98.2334 369.956C106.548 369.956 113.621 366.828 117.99 364.292C113.623 361.758 106.548 358.629 98.2334 358.629C97.3891 358.629 96.5225 358.662 95.6554 358.727C93.7487 358.863 91.9972 357.7 91.3894 355.887C90.7811 354.073 91.4757 352.078 93.0769 351.038C95.9693 349.161 98.584 347.057 100.848 344.786C109.192 336.419 112.657 326.053 114.057 319.866C107.872 321.284 97.4948 324.773 89.1927 333.099C87.8358 334.459 86.5101 335.985 85.2523 337.632C84.0824 339.164 82.0187 339.697 80.2588 338.92C78.4973 338.143 77.4928 336.261 77.8272 334.361C78.3816 331.207 78.6626 328.084 78.6626 325.077C78.6626 311.895 73.3353 300.938 69.7405 295.046C66.1463 300.938 60.8189 311.895 60.8189 325.077C60.8189 328.086 61.1 331.209 61.6537 334.361C61.9882 336.261 60.9836 338.144 59.2221 338.92C57.4584 339.695 55.398 339.164 54.2282 337.631C52.9731 335.987 51.6474 334.462 50.2883 333.099C41.9444 324.732 31.6075 321.257 25.4375 319.854C26.8512 326.056 30.3313 336.462 38.6335 344.788C40.8975 347.058 43.5122 349.161 46.4046 351.039C48.0059 352.079 48.7004 354.074 48.0921 355.887C47.4844 357.701 45.7229 358.871 43.8261 358.727C42.959 358.663 42.0924 358.63 41.2487 358.63C32.8725 358.63 25.8193 361.751 21.4737 364.283C25.8388 366.82 32.9215 369.957 41.2487 369.957C42.8182 369.957 44.4567 369.841 46.1169 369.612C46.3061 369.586 46.4965 369.573 46.6851 369.573C48.0248 369.573 49.2976 370.221 50.0868 371.334C50.9873 372.605 51.1092 374.273 50.4024 375.661C48.8296 378.753 48.4839 382.384 48.4934 385.034Z" fill="#404040"/>
<path d="M47.6016 51.5H91.5101V61.5H47.6016V51.5Z" fill="#FFE07D"/>
<path d="M66.7747 9.24605V46.5331H45.7793C44.1415 46.5331 42.8145 47.8077 42.8145 49.3808V61.6523C42.8145 63.2254 44.1415 64.5 45.7793 64.5H55.9948C57.6326 64.5 58.9597 63.2254 58.9597 61.6523C58.9597 60.0793 57.6326 58.8047 55.9948 58.8047H48.7442V52.2284H90.735V58.8047H69.8305C68.1927 58.8047 66.8657 60.0793 66.8657 61.6523C66.8657 63.2254 68.1927 64.5 69.8305 64.5H93.6999C95.3377 64.5 96.6648 63.2254 96.6648 61.6523V49.3808C96.6648 47.8077 95.3377 46.5331 93.6999 46.5331H72.7045V9.24605V0.5H66.7747V9.24605Z" fill="#404040"/>
</svg>
