<svg width="61" height="61" viewBox="0 0 61 61" fill="none" xmlns="http://www.w3.org/2000/svg">
<path d="M58.6306 44.5339L50.2806 36.1607C47.2985 33.1703 42.2289 34.3666 41.036 38.254C40.1414 40.9455 37.1592 42.4407 34.4753 41.8425C28.5111 40.3473 20.4593 32.5722 18.9683 26.2924C18.0736 23.6009 19.8629 20.6104 22.5468 19.7134C26.4236 18.5173 27.6164 13.4336 24.6343 10.4431L16.2843 2.06997C13.8986 -0.023323 10.3201 -0.023323 8.23259 2.06997L2.56655 7.75176C-3.0995 13.7326 3.16297 29.5818 17.179 43.6368C31.195 57.6917 47.0003 64.2708 52.9645 58.2898L58.6306 52.608C60.7182 50.2157 60.7182 46.6272 58.6306 44.5339Z" fill="#404040"/>
</svg>
