<svg width="252" height="212" viewBox="0 0 252 212" fill="none" xmlns="http://www.w3.org/2000/svg">
<path d="M133.048 164.045L133.397 165.202L134.615 164.623L135.66 166.262L136.792 166.936L137.314 169.152L136.879 171.272L137.749 173.874L139.751 175.32L139.838 176.958L138.358 177.825L138.271 179.849L136.356 182.836L135.573 182.451L135.399 181.101L132.7 178.981L132.091 176.091L132.178 171.851L132.613 170.02L131.83 169.056L131.395 167.033L133.048 164.045Z" fill="#2C2C2C" fill-opacity="0.92" stroke="#404040" stroke-opacity="0.92" stroke-width="0.2" stroke-linecap="round" stroke-linejoin="round"/>
<path d="M117.903 128.198L117.642 128.969L118.251 130.993L118.077 133.498H115.64L116.598 134.847L115.466 138.702L114.683 139.762L110.852 139.858L108.763 141.304L105.107 140.822L98.7529 139.184L97.6214 137.16L93.356 138.22L92.9208 139.376L90.2224 138.509L87.9591 138.316L85.957 137.16L86.5663 135.715L86.3923 134.655L87.6109 134.366L89.9612 136.004L90.4834 134.366L94.3135 134.655L97.3602 133.595L99.4493 133.787L100.929 135.04L101.277 133.98L100.407 130.029L101.887 129.258L103.279 126.464L106.587 128.487L108.85 125.982L110.33 125.5L113.812 127.331L115.814 127.042L117.903 128.198Z" fill="#2C2C2C" fill-opacity="0.92" stroke="#404040" stroke-opacity="0.92" stroke-width="0.2" stroke-linecap="round" stroke-linejoin="round"/>
<path d="M70.8101 114.997L70.4619 119.044L69.3303 119.237L68.9821 122.609L65.152 119.815L62.9758 120.297L59.9291 117.502L57.84 115.093L55.9249 114.997L55.2285 112.877L58.6234 111.72L61.7571 112.202L65.6743 110.95L68.3728 113.551L70.8101 114.997Z" fill="#2C2C2C" fill-opacity="0.92" stroke="#404040" stroke-opacity="0.92" stroke-width="0.2" stroke-linecap="round" stroke-linejoin="round"/>
<path d="M171.871 157.878L169.869 160.383L168.737 164.72L170.565 168.189L166.561 167.418L162.209 169.345L162.47 172.429L158.466 173.007L155.071 170.791L151.589 172.525L148.281 172.332L147.585 168.285L145.148 166.262L145.757 165.491L145.235 164.72L145.757 162.793L147.324 160.865L144.887 158.263L144.277 155.951L145.235 154.602L146.802 157.107L148.456 156.722L151.937 157.589L158.553 157.974L160.555 156.433L165.691 154.987L169.173 157.203L171.871 157.878Z" fill="#2C2C2C" fill-opacity="0.92" stroke="#404040" stroke-opacity="0.92" stroke-width="0.2" stroke-linecap="round" stroke-linejoin="round"/>
<path d="M128.695 150.843L130.349 150.747L129.391 153.445L131.742 155.854L131.306 158.649L130.349 158.938L129.565 159.516L128.173 160.961L127.824 164.334L123.646 162.021L121.818 159.42L119.99 158.071L117.814 155.758L116.682 153.927L114.332 151.036L115.028 148.531L116.769 149.976L117.64 148.627L119.642 148.531L123.559 149.591L126.606 149.494L128.695 150.843Z" fill="#2C2C2C" fill-opacity="0.92" stroke="#404040" stroke-opacity="0.92" stroke-width="0.2" stroke-linecap="round" stroke-linejoin="round"/>
<path d="M179.704 101.121L176.309 100.928L175.613 101.506L176.918 103.433L178.659 107.288L175.091 107.577L173.959 108.926L174.22 111.913L172.392 111.335L168.649 111.624L167.343 110.179L165.863 111.239L164.21 110.371L160.815 110.275L155.853 108.83L151.588 108.348L148.28 108.54L146.191 110.082L144.189 110.371L143.754 107.673L142.1 104.975L144.537 103.722L144.189 101.41L142.709 99.1933L142.187 96.5915H146.278L150.456 94.3752L150.891 91.0989L154.025 89.1716L153.155 86.5699L155.505 85.6062L159.509 83.3899L164.122 84.8353L164.906 86.2808L166.995 85.6062L171.173 86.9553L172.131 89.7498L171.521 91.2916L174.829 95.1461L176.657 96.2061V97.2661L179.617 98.326L181.097 99.8678L179.704 101.121Z" fill="#2C2C2C" fill-opacity="0.92" stroke="#404040" stroke-opacity="0.92" stroke-width="0.2" stroke-linecap="round" stroke-linejoin="round"/>
<path d="M86.3917 134.654L86.5658 135.714L85.9565 137.16L87.9585 138.316L90.2218 138.509L89.9606 140.918L88.1327 141.978L84.8248 141.207L83.9544 143.616L81.8652 143.809L81.0819 142.845L78.7315 144.965L76.5554 145.254L74.6404 143.905L73.0735 141.303L70.9844 142.267V139.473L74.1181 136.1L73.9439 134.558L75.9461 135.136L77.0777 134.076H80.7337L81.6041 132.824L86.3917 134.654Z" fill="#2C2C2C" fill-opacity="0.92" stroke="#404040" stroke-opacity="0.92" stroke-width="0.2" stroke-linecap="round" stroke-linejoin="round"/>
<path d="M108.412 113.166L110.588 115.093L113.809 115.575L113.635 117.213L116.072 118.466L116.595 116.924L119.554 117.598L120.163 119.526L123.384 119.815L125.647 122.802H124.342L123.732 123.862L122.775 124.151L122.601 125.5L121.817 125.789L121.73 126.367L120.338 126.946L118.422 126.849L117.9 128.198L115.811 127.042L113.809 127.331L110.327 125.5L108.847 125.982L106.584 128.487L103.276 126.464L100.665 123.958L98.4016 122.513L97.7923 119.911L96.9219 118.177L99.8815 116.924L101.361 115.382L104.408 114.226L105.365 113.069L106.497 113.744L108.412 113.166Z" fill="#2C2C2C" fill-opacity="0.92" stroke="#404040" stroke-opacity="0.92" stroke-width="0.2" stroke-linecap="round" stroke-linejoin="round"/>
<path d="M103.363 97.459L104.582 100.446L103.537 102.084L105.191 104.108L106.497 107.288L106.323 109.408L108.412 113.166L106.497 113.744L105.365 113.07L104.407 114.226L101.361 115.382L99.881 116.924L96.9213 118.177L97.7918 119.911L98.4011 122.513L100.664 123.959L103.276 126.464L101.883 129.259L100.403 130.029L101.274 133.98L100.925 135.04L99.4457 133.788L97.3566 133.595L94.3099 134.655L90.4798 134.366L89.9575 136.004L87.6073 134.366L86.3886 134.655L81.601 132.824L80.7305 134.077H77.0745L77.4227 129.74L79.5119 125.693L73.2444 124.537L71.1553 122.995L71.3294 120.393L70.4589 119.044L70.8071 114.997L69.8496 108.733H72.374L73.4185 106.517L74.202 101.121L73.4185 99.0972L74.1149 97.8445L77.5969 97.5554L78.4673 98.8081L81.1658 95.9173L80.0341 93.7009L79.6859 90.4246L82.9067 91.1955L85.4311 90.3282L85.6922 92.5446L89.9575 93.8936L90.0446 96.0136L94.1359 94.8573L96.3991 93.3155L101.274 95.6282L103.363 97.459Z" fill="#2C2C2C" fill-opacity="0.92" stroke="#404040" stroke-opacity="0.92" stroke-width="0.2" stroke-linecap="round" stroke-linejoin="round"/>
<path d="M96.5748 86.6662L94.4856 91.3879L89.9592 88.0152L89.1758 85.6062L95.095 83.679L96.5748 86.6662Z" fill="#2C2C2C" fill-opacity="0.92" stroke="#404040" stroke-opacity="0.92" stroke-width="0.2" stroke-linecap="round" stroke-linejoin="round"/>
<path d="M85.4331 90.3282L82.9087 91.1954L79.6879 90.4245L77.8599 87.1482L77.5117 81.2701L78.0341 79.632L79.1656 77.8974L82.6475 77.6084L84.0403 75.9702L87.174 74.332V77.3193L86.1294 79.2465L86.7388 80.7883L89.002 81.6556L88.1315 83.8719L86.9129 83.2937L84.2144 87.4373L85.4331 90.3282Z" fill="#2C2C2C" fill-opacity="0.92" stroke="#404040" stroke-opacity="0.92" stroke-width="0.2" stroke-linecap="round" stroke-linejoin="round"/>
<path d="M155.419 64.4065L156.203 65.3701L153.94 68.6465L156.029 74.0427L154.636 75.8736L151.328 75.7772L147.498 73.6573L145.67 72.9827L142.362 73.9464L142.275 70.5737L140.97 71.3446L138.097 69.321L137.227 66.0447L142.014 64.4065L146.889 63.6356L151.328 64.5029L155.419 64.4065Z" fill="#2C2C2C" fill-opacity="0.92" stroke="#404040" stroke-opacity="0.92" stroke-width="0.2" stroke-linecap="round" stroke-linejoin="round"/>
<path d="M147.064 11.8892L147.412 15.551L153.767 19.1164L151.242 23.1636L156.9 29.2344L155.421 33.8598L159.686 37.907L158.902 41.5688L165.344 45.3269L164.56 48.1214L161.601 51.3978L154.637 58.5286L147.673 59.0104L141.058 61.034L134.877 62.2867L132.092 59.2031L128.001 57.3722L128.088 51.7832L125.476 46.7724L126.869 43.4961L129.742 40.1234L137.402 34.1489L139.665 32.9926L138.882 30.6799L133.223 28.1745L131.657 26.0545L130.09 17.8637L123.822 14.2983L118.6 11.6965L120.515 10.3474L124.954 13.0456L129.568 12.8529L133.659 14.1056L136.618 11.7929L137.576 7.93838L142.712 6.20386L147.76 8.22747L147.064 11.8892Z" fill="#2C2C2C" fill-opacity="0.92" stroke="#404040" stroke-opacity="0.92" stroke-width="0.2" stroke-linecap="round" stroke-linejoin="round"/>
<path d="M18.7576 96.784L15.711 95.6276L13.0996 95.724L14.1442 92.5441L13.3607 89.4605L16.8426 89.1714L21.1078 92.8332L18.7576 96.784Z" fill="#2C2C2C" fill-opacity="0.92" stroke="#404040" stroke-opacity="0.92" stroke-width="0.2" stroke-linecap="round" stroke-linejoin="round"/>
<path d="M32.5969 69.1282L28.1576 75.3917L32.2488 74.6208H36.6882L35.5566 79.3426L31.8135 84.5461L36.0788 84.8352L36.34 85.5097L39.9959 92.3515L42.7815 93.3151L45.3058 100.06L46.5245 102.373L51.6603 103.433L51.138 107.288L49.0489 109.022L50.7028 112.106L46.8727 115.189L41.2146 115.093L33.9026 116.827L31.9876 115.575L29.1151 118.369L25.1979 117.695L22.0643 120.007L19.8881 118.851L26.2425 112.588L30.0726 111.238L23.457 110.275L22.3254 107.866L26.7648 106.035L24.5886 102.855L25.4591 99.0005L31.6394 99.5786L32.3358 96.1096L29.6374 92.5442L29.5503 92.4478L24.5886 91.3878L23.6311 89.846L25.1979 87.2443L23.8922 85.6061L21.629 88.4006L21.542 82.7153L19.627 79.8244L21.2808 73.8499L24.5886 69.2245L27.7223 69.61L32.5969 69.1282Z" fill="#2C2C2C" fill-opacity="0.92" stroke="#404040" stroke-opacity="0.92" stroke-width="0.2" stroke-linecap="round" stroke-linejoin="round"/>
<path d="M154.55 207.023L157.248 209.143L160.817 208.757L164.299 209.143V210.299L166.736 209.528L166.301 211.359L159.686 211.841L159.599 210.877L153.854 209.624L154.55 207.023Z" fill="#2C2C2C" fill-opacity="0.92" stroke="#404040" stroke-opacity="0.92" stroke-width="0.2" stroke-linecap="round" stroke-linejoin="round"/>
<path d="M162.561 175.512L159.775 175.32L157.425 174.741L152.028 176.283L155.51 179.752L153.334 180.812H150.809L148.111 177.632L147.327 178.981L148.72 182.643L151.244 185.534L149.591 186.883L152.376 189.678L154.813 191.508L155.162 194.977L150.809 193.339L152.376 196.519L149.503 197.097L151.68 202.59L148.633 202.686L144.629 199.988L142.54 195.074L141.408 190.93L139.406 188.136L136.795 184.57L136.359 182.836L138.274 179.849L138.361 177.825L139.841 176.958L139.754 175.32L142.714 174.838L144.281 173.489L146.718 173.585L147.414 172.525L148.285 172.332L151.593 172.525L155.075 170.791L158.469 173.007L162.474 172.429L162.212 169.345L164.563 170.983L163.605 174.838L162.561 175.512Z" fill="#2C2C2C" fill-opacity="0.92" stroke="#404040" stroke-opacity="0.92" stroke-width="0.2" stroke-linecap="round" stroke-linejoin="round"/>
<path d="M127.388 144.387L128.694 146.796L130.174 148.531L128.694 150.843L126.605 149.494L123.558 149.591L119.641 148.531L117.639 148.627L116.768 149.976L115.027 148.531L114.331 151.036L116.681 153.927L117.813 155.758L119.989 158.071L121.817 159.42L123.645 162.022L127.823 164.334L127.388 165.298L123.036 163.081L120.25 160.865L116.072 159.034L111.981 154.602L112.851 154.12L110.675 151.518L110.414 149.494L107.541 148.531L106.323 151.133L104.93 149.109V146.989L105.017 146.893L108.151 147.085L108.847 146.122L110.414 147.085L112.155 147.182L112.068 145.544L113.547 144.869L113.809 142.46L117.203 140.822L118.596 141.593L122.078 144.194L125.821 145.351L127.388 144.387Z" fill="#2C2C2C" fill-opacity="0.92" stroke="#404040" stroke-opacity="0.92" stroke-width="0.2" stroke-linecap="round" stroke-linejoin="round"/>
<path d="M140.186 129.258L142.798 130.896L143.233 132.535L140.709 133.787L139.055 137.834L136.791 141.978L133.397 143.134L130.611 142.845L127.39 144.387L125.823 145.351L122.08 144.194L118.599 141.593L117.206 140.822L116.161 138.798L115.465 138.702L116.596 134.847L115.639 133.498H118.076L118.25 130.993L120.601 132.631L122.254 133.209L125.823 132.535L126.085 131.282L127.738 131.089L129.741 130.222L130.263 130.607L132.265 129.836L133.135 128.391L134.528 128.005L139.316 129.836L140.186 129.258Z" fill="#2C2C2C" fill-opacity="0.92" stroke="#404040" stroke-opacity="0.92" stroke-width="0.2" stroke-linecap="round" stroke-linejoin="round"/>
<path d="M18.7535 96.7843L19.3628 101.024L15.968 106.324L8.30785 109.793L2.38867 108.926L6.13168 102.759L4.30366 96.7843L10.1358 92.1589L13.3566 89.4608L14.14 92.5444L13.0954 95.7244L15.7068 95.628L18.7535 96.7843Z" fill="#2C2C2C" fill-opacity="0.92" stroke="#404040" stroke-opacity="0.92" stroke-width="0.2" stroke-linecap="round" stroke-linejoin="round"/>
<path d="M115.815 191.412L114.336 196.327L115.119 198.158L114.336 201.338L110.68 199.025L108.329 198.35L101.801 195.267L102.236 192.087L107.633 192.665L112.334 191.99L115.815 191.412Z" fill="#2C2C2C" fill-opacity="0.92" stroke="#404040" stroke-opacity="0.92" stroke-width="0.2" stroke-linecap="round" stroke-linejoin="round"/>
<path d="M86.2199 173.103L89.0924 177.439L88.7442 185.63L86.6551 185.245L84.8272 187.268L83.0863 185.63L82.6511 178.21L81.5195 174.741L84.0438 175.03L86.2199 173.103Z" fill="#2C2C2C" fill-opacity="0.92" stroke="#404040" stroke-opacity="0.92" stroke-width="0.2" stroke-linecap="round" stroke-linejoin="round"/>
<path d="M105.107 140.822L104.758 143.809L105.977 146.411L102.408 145.447L99.0133 147.664L99.3615 150.651L98.9263 152.385L100.58 155.469L104.932 158.552L107.457 163.66L112.767 168.574L116.249 168.478L117.467 169.827L116.249 171.08L120.427 173.296L123.909 175.127L128 178.403L128.522 179.463L127.826 181.679L125.127 178.789L121.123 177.825L119.469 181.776L122.864 184.088L122.516 187.268L120.688 187.654L118.512 192.954L116.597 193.436L116.51 191.508L117.293 188.232L118.251 186.883L116.249 183.318L114.682 180.234L112.767 179.463L111.2 176.861L108.24 175.705L106.151 173.2L102.843 172.814L99.1003 170.116L94.835 166.069L91.6143 162.6L89.9604 156.529L87.6972 155.854L84.0411 153.831L82.0391 154.602L79.5147 157.492L77.6867 157.878L78.122 155.276L75.6846 154.505L74.3789 149.783L75.8587 147.953L74.553 145.64L74.6401 143.905L76.5551 145.254L78.7313 144.965L81.0816 142.845L81.8649 143.809L83.9541 143.616L84.8246 141.207L88.1324 141.978L89.9604 140.918L90.2215 138.509L92.92 139.376L93.3552 138.22L97.6206 137.16L98.7521 139.184L105.107 140.822Z" fill="#2C2C2C" fill-opacity="0.92" stroke="#404040" stroke-opacity="0.92" stroke-width="0.2" stroke-linecap="round" stroke-linejoin="round"/>
<path d="M153.159 86.5697L154.029 89.1715L150.895 91.0987L150.46 94.375L146.282 96.5914H142.191L140.972 94.7605L138.796 94.0859L138.273 92.6405L138.448 91.0024L136.533 90.1351L132.093 89.0751L130.613 84.1606L135.053 82.4261L141.929 82.8116L145.847 82.2334L146.63 83.3897L148.806 83.7752L153.159 86.5697Z" fill="#2C2C2C" fill-opacity="0.92" stroke="#404040" stroke-opacity="0.92" stroke-width="0.2" stroke-linecap="round" stroke-linejoin="round"/>
<path d="M71.1586 122.995L69.9399 123.091L68.9824 122.609L69.3306 119.237L70.4621 119.044L71.3326 120.393L71.1586 122.995Z" fill="#2C2C2C" fill-opacity="0.92" stroke="#404040" stroke-opacity="0.92" stroke-width="0.2" stroke-linecap="round" stroke-linejoin="round"/>
<path d="M154.636 75.8738L156.812 77.1265L157.683 79.921L159.511 83.39L155.506 85.6064L153.156 86.57L148.804 83.7755L146.628 83.39L145.844 82.2337L141.927 82.8118L135.05 82.4264L130.611 84.1609L130.176 79.8246L131.656 76.1629L135.225 74.2356L139.055 78.5719L142.275 78.3792L142.362 73.9465L145.67 72.9829L147.498 73.6574L151.328 75.7774L154.636 75.8738Z" fill="#2C2C2C" fill-opacity="0.92" stroke="#404040" stroke-opacity="0.92" stroke-width="0.2" stroke-linecap="round" stroke-linejoin="round"/>
<path d="M169.085 146.989L167.954 144.194L168.128 141.593L167.605 138.991L164.646 135.329L162.905 132.824L161.338 131.089L159.945 130.415L160.903 129.547L163.688 128.969L167.17 130.8L168.911 131.089L171.174 132.727L171.087 134.751L172.828 135.715L173.786 138.22L175.527 139.762L175.353 140.725L176.223 141.304L175.091 141.785L172.48 141.593L171.958 140.725L171.087 141.207L171.61 142.267L170.652 144.291L170.13 146.314L169.085 146.989Z" fill="#2C2C2C" fill-opacity="0.92" stroke="#404040" stroke-opacity="0.92" stroke-width="0.2" stroke-linecap="round" stroke-linejoin="round"/>
<path d="M148.284 172.332L147.413 172.525L146.717 173.585L144.28 173.489L142.713 174.838L139.753 175.319L137.751 173.874L136.881 171.272L137.316 169.152L137.925 169.249L138.012 167.996L140.537 167.032L141.581 166.743L143.061 166.454L145.15 166.261L147.588 168.285L148.284 172.332Z" fill="#2C2C2C" fill-opacity="0.92" stroke="#404040" stroke-opacity="0.92" stroke-width="0.2" stroke-linecap="round" stroke-linejoin="round"/>
<path d="M135.31 163.274L134.613 164.624L133.395 165.202L133.047 164.045L131.393 167.033L131.828 169.056L130.87 168.574L129.391 166.551L127.389 165.298L127.824 164.334L128.172 160.962L129.565 159.516L130.348 158.938L131.567 159.998L132.35 160.865L133.83 161.54L135.658 162.793L135.31 163.274Z" fill="#2C2C2C" fill-opacity="0.92" stroke="#404040" stroke-opacity="0.92" stroke-width="0.2" stroke-linecap="round" stroke-linejoin="round"/>
<path d="M155.421 9.38352L149.85 11.4071L147.065 11.8889L147.761 8.22717L142.712 6.20356L137.577 7.93808L136.619 11.7926L133.659 14.1053L129.568 12.8526L124.955 13.0453L120.515 10.3471L118.6 11.6962L116.337 11.8889L116.424 15.358L109.46 14.4907L108.938 17.4779H105.456L103.454 21.2361L100.494 27.1142L95.5329 34.7268L97.0996 36.654L95.9681 38.774L92.225 38.6776L90.1359 43.8812L91.0063 51.3011L93.7049 54.0956L93.0085 60.7446L90.0488 64.5991L88.482 67.8754L85.6095 64.4064L78.1234 70.959L72.8135 72.3081L67.1554 69.4172L65.5886 63.3464L63.8477 50.3375L67.3295 46.7721L77.1659 42.0503L84.2167 36.3649L90.4841 28.8487L98.2313 18.5379L103.802 14.5871L112.768 8.03444L120.167 5.72175L125.999 6.01084L130.526 1.7709L136.967 1.96362L143.061 1L154.986 4.75813L150.721 6.1072L155.421 9.38352Z" fill="#2C2C2C" fill-opacity="0.92" stroke="#404040" stroke-opacity="0.92" stroke-width="0.2" stroke-linecap="round" stroke-linejoin="round"/>
<path d="M125.997 93.5081L131.133 94.1826L138.793 94.0862L140.97 94.7608L142.188 96.5916L142.71 99.1934L144.19 101.41L144.538 103.722L142.101 104.975L143.755 107.673L144.19 110.371L146.976 115.575L146.715 117.213L144.713 117.888L141.405 122.899L142.798 125.597L141.84 125.211L137.488 122.899L134.441 123.766L132.352 123.188L129.915 124.44L127.564 122.32L125.91 123.188L125.649 122.802L123.386 119.815L120.165 119.526L119.556 117.599L116.596 116.924L116.074 118.466L113.637 117.213L113.811 115.575L110.59 115.093L108.414 113.166L106.325 109.408L106.499 107.288L105.193 104.108L103.539 102.084L104.584 100.446L103.365 97.4589L106.064 95.7244L112.244 93.0262L117.293 91.099L121.471 92.0626L121.993 93.5081H125.997Z" fill="#2C2C2C" fill-opacity="0.92" stroke="#404040" stroke-opacity="0.92" stroke-width="0.2" stroke-linecap="round" stroke-linejoin="round"/>
<path d="M159.946 130.415L161.339 131.089L162.906 132.824L164.646 135.329L167.606 138.991L168.128 141.593L167.954 144.195L169.086 146.989L171.175 148.145L173.177 147.085L175.266 148.145L175.614 149.784L173.612 151.036L172.22 150.458L171.871 157.878L169.173 157.203L165.691 154.987L160.555 156.433L158.553 157.974L151.938 157.589L148.456 156.722L146.802 157.107L145.235 154.602L144.364 153.542L145.235 152.482L144.103 151.807L142.798 153.156L140.099 151.325L139.49 148.82L136.704 147.471L136.008 145.447L133.396 143.135L136.791 141.978L139.055 137.835L140.708 133.787L143.233 132.535L144.974 131.186L147.759 131.86H150.545L152.721 133.402L154.114 132.438L157.247 131.86L158.118 130.415H159.946Z" fill="#2C2C2C" fill-opacity="0.92" stroke="#404040" stroke-opacity="0.92" stroke-width="0.2" stroke-linecap="round" stroke-linejoin="round"/>
<path d="M145.233 154.602L144.276 155.951L144.885 158.264L147.322 160.865L145.756 162.793L145.233 164.72L145.756 165.491L145.146 166.262L143.057 166.454L141.577 166.743L141.316 166.262L141.838 165.587L142.187 164.045L141.577 164.142L140.62 162.985L139.836 162.696L139.14 161.733L138.27 161.347L137.573 160.48L136.79 160.865L136.355 162.889L135.31 163.274L135.658 162.793L133.83 161.54L132.35 160.865L131.567 159.998L130.348 158.938L131.306 158.649L131.741 155.854L129.391 153.445L130.348 150.747L128.694 150.844L130.174 148.531L128.694 146.796L127.389 144.387L130.609 142.846L133.395 143.135L136.006 145.447L136.703 147.471L139.488 148.82L140.098 151.325L142.796 153.156L144.102 151.807L145.233 152.482L144.363 153.542L145.233 154.602Z" fill="#2C2C2C" fill-opacity="0.92" stroke="#404040" stroke-opacity="0.92" stroke-width="0.2" stroke-linecap="round" stroke-linejoin="round"/>
<path d="M141.84 125.212L140.795 126.85L140.186 129.259L139.315 129.837L134.528 128.006L133.135 128.392L132.264 129.837L130.262 130.608L129.74 130.222L127.738 131.09L126.084 131.282L125.823 132.535L122.254 133.21L120.6 132.631L118.25 130.993L117.641 128.97L117.902 128.199L118.424 126.85L120.339 126.946L121.732 126.368L121.819 125.79L122.602 125.501L122.776 124.152L123.734 123.862L124.343 122.802H125.649L125.91 123.188L127.564 122.321L129.914 124.441L132.351 123.188L134.441 123.766L137.487 122.899L141.84 125.212Z" fill="#2C2C2C" fill-opacity="0.92" stroke="#404040" stroke-opacity="0.92" stroke-width="0.2" stroke-linecap="round" stroke-linejoin="round"/>
<path d="M117.207 140.822L113.813 142.46L113.551 144.869L112.072 145.544L112.159 147.182L110.418 147.085L108.851 146.122L108.155 147.085L105.021 146.893L105.978 146.411L104.76 143.809L105.108 140.822L108.764 141.304L110.853 139.858L114.683 139.762L115.466 138.702L116.163 138.798L117.207 140.822Z" fill="#2C2C2C" fill-opacity="0.92" stroke="#404040" stroke-opacity="0.92" stroke-width="0.2" stroke-linecap="round" stroke-linejoin="round"/>
<path d="M133.227 28.1744L127.133 29.7161L124.087 33.4743L125.218 36.847L119.821 41.1833L113.032 46.0014L111.204 53.8067L114.424 57.7576L118.603 60.9375L115.73 67.2974L111.726 68.6465L111.204 78.2827L109.376 83.7754L104.414 83.1972L102.499 87.8226L97.7114 88.1117L96.0574 82.619L92.1403 75.97L88.4844 67.8756L90.0512 64.5993L93.0108 60.7448L93.7072 54.0958L91.0087 51.3013L90.1382 43.8814L92.2273 38.6778L95.9704 38.7742L97.102 36.6542L95.5352 34.727L100.497 27.1144L103.456 21.2363L105.459 17.4781H108.94L109.463 14.4909L116.427 15.3582L116.34 11.8891L118.603 11.6964L123.826 14.2982L130.093 17.8636L131.66 26.0544L133.227 28.1744Z" fill="#2C2C2C" fill-opacity="0.92" stroke="#404040" stroke-opacity="0.92" stroke-width="0.2" stroke-linecap="round" stroke-linejoin="round"/>
<path d="M232.024 171.08L236.812 170.79L241.686 173.874L242.818 175.994L242.905 178.981L246.561 180.523L248.65 182.258L245.777 184.088L248.302 191.123L247.692 193.05L251 197.965L248.911 199.025L247.083 197.483L241.599 196.616L239.771 197.579L234.635 198.543L232.111 198.446L227.149 200.759H223.319L220.708 199.603L215.833 201.337L214.179 200.181L214.353 203.554L213.309 204.903L212.177 206.252L210.175 203.457L211.655 201.145L208.869 201.723L204.865 200.277L202.08 203.843L195.116 204.517L191.025 201.241L186.063 201.048L185.193 203.554L182.059 204.324L177.358 201.048L172.31 201.145L169.002 194.977L165.346 191.605L167.087 186.787L163.953 183.799L168.393 177.921L175.356 177.729L176.749 173.007L185.454 173.874L190.328 169.923L195.377 168.189L202.776 167.996L211.307 172.332L218.184 174.741L223.232 173.778L227.236 174.356L232.024 171.08Z" fill="#2C2C2C" fill-opacity="0.92" stroke="#404040" stroke-opacity="0.92" stroke-width="0.2" stroke-linecap="round" stroke-linejoin="round"/>
<path d="M162.555 175.512L163.6 174.838L164.557 170.983L162.207 169.345L166.559 167.418L170.564 168.189L171.347 170.598L175.525 172.525L174.916 174.067L169.519 174.356L167.778 176.283L164.383 179.559L162.642 176.765L162.555 175.512Z" fill="#2C2C2C" fill-opacity="0.92" stroke="#404040" stroke-opacity="0.92" stroke-width="0.2" stroke-linecap="round" stroke-linejoin="round"/>
<path d="M193.284 112.588L195.286 115.19L195.373 116.346L201.206 118.466L204.339 117.502L207.473 120.297L209.997 120.2L216.7 122.128L217.048 123.958L215.917 127.042L217.483 130.415L217.222 132.438L213.044 132.824L211.129 134.558L211.477 137.16L208.082 137.642L205.471 139.666L201.467 139.955L197.985 142.267L198.855 146.025L201.293 147.471L205.732 147.085L205.21 149.302L200.509 150.362L195.025 153.831L192.327 152.578L192.936 149.784L187.8 147.953L188.41 146.796L192.414 144.773L190.934 143.424L183.883 141.882L183.187 139.569L179.27 140.34L178.138 143.713L175.266 148.145L173.176 147.085L171.174 148.145L169.085 146.989L170.13 146.315L170.652 144.291L171.61 142.267L171.087 141.207L171.958 140.726L172.48 141.593L175.092 141.786L176.223 141.304L175.353 140.726L175.527 139.762L173.786 138.22L172.828 135.715L171.087 134.751L171.174 132.727L168.911 131.089L167.17 130.8L163.688 128.969L160.903 129.548L159.945 130.415H158.117L157.247 131.86L154.113 132.438L152.72 133.402L150.544 131.86H147.759L144.973 131.186L143.232 132.535L142.797 130.897L140.186 129.258L140.795 126.849L141.839 125.211L142.797 125.597L141.404 122.899L144.712 117.888L146.714 117.213L146.975 115.575L144.19 110.371L146.192 110.082L148.281 108.541L151.589 108.348L155.854 108.83L160.816 110.275L164.211 110.371L165.864 111.239L167.344 110.179L168.65 111.624L172.393 111.335L174.221 111.913L173.96 108.926L175.092 107.577L178.66 107.288L180.227 107.481L181.098 106.131L182.403 106.421L186.669 105.842L189.977 109.215L189.193 110.468L189.89 112.299L193.284 112.588Z" fill="#2C2C2C" fill-opacity="0.92" stroke="#404040" stroke-opacity="0.92" stroke-width="0.2" stroke-linecap="round" stroke-linejoin="round"/>
<path d="M141.577 166.743L140.532 167.032L138.008 167.996L137.921 169.249L137.312 169.152L136.789 166.936L135.658 166.261L134.613 164.623L135.31 163.274L136.354 162.889L136.789 160.865L137.573 160.48L138.269 161.347L139.14 161.732L139.836 162.696L140.619 162.985L141.577 164.141L142.186 164.045L141.838 165.587L141.316 166.261L141.577 166.743Z" fill="#2C2C2C" fill-opacity="0.92" stroke="#404040" stroke-opacity="0.92" stroke-width="0.2" stroke-linecap="round" stroke-linejoin="round"/>
<path d="M70.8097 114.997L68.3724 113.551L65.6739 110.95L61.7567 112.202L58.623 111.721L60.7992 110.082L64.2811 101.41L69.9392 98.9044L73.4211 99.0972L74.2046 101.121L73.4211 106.517L72.3765 108.733H69.8522L70.8097 114.997Z" fill="#2C2C2C" fill-opacity="0.92" stroke="#404040" stroke-opacity="0.92" stroke-width="0.2" stroke-linecap="round" stroke-linejoin="round"/>
<path d="M10.227 198.446L8.31194 199.988L5.87465 199.121L3.52438 199.795L4.30776 194.977L4.04663 191.219L1.95755 190.641L1 188.328L1.43523 184.281L3.35027 182.065L3.78551 179.559L4.83008 175.898V173.296L4.04663 171.08L3.87253 168.96L5.52644 167.418L7.44148 166.551L8.48605 169.538H11.0974L11.8808 168.767L14.5793 168.96L15.7109 172.043L13.6218 173.681L13.3606 178.499L12.6643 179.367L12.4031 182.354L10.401 182.836L12.142 186.498L10.7492 190.545L12.3161 192.376L11.6197 194.014L9.87877 196.326L10.227 198.446Z" fill="#2C2C2C" fill-opacity="0.92" stroke="#404040" stroke-opacity="0.92" stroke-width="0.2" stroke-linecap="round" stroke-linejoin="round"/>
<path d="M138.796 94.0863L131.136 94.1826L126 93.5081L126.609 91.0027L132.093 89.0754L136.533 90.1354L138.448 91.0027L138.274 92.6408L138.796 94.0863Z" fill="#2C2C2C" fill-opacity="0.92" stroke="#404040" stroke-opacity="0.92" stroke-width="0.2" stroke-linecap="round" stroke-linejoin="round"/>
<path d="M36.0777 159.612L37.8186 161.925L46.0881 164.719L47.742 163.37L52.7907 166.165L57.9266 165.394L58.2747 168.959L54.0094 173.007L48.2643 174.356L47.829 176.379L45.0436 179.752L43.3026 184.763L45.0436 188.328L42.4322 191.026L41.3876 195.074L37.9057 196.326L34.6849 201.048L28.7657 201.144L24.4134 201.048L21.4537 203.168L19.6258 205.481L17.3625 204.999L15.7086 202.879L14.4899 199.41L10.2247 198.446L9.87645 196.326L11.6174 194.014L12.3138 192.375L10.7469 190.545L12.1397 186.497L10.3987 182.836L12.4008 182.354L12.662 179.366L13.3583 178.499L13.6195 173.681L15.7086 172.043L14.577 168.959L11.8785 168.767L11.0951 169.538H8.48371L7.43913 166.55L5.52408 167.418L3.87016 168.959L4.3054 164.623L2.56445 162.021L9.00597 157.589L14.4029 158.649H20.4091L25.1097 159.709L28.8527 159.323L36.0777 159.612Z" fill="#2C2C2C" fill-opacity="0.92" stroke="#404040" stroke-opacity="0.92" stroke-width="0.2" stroke-linecap="round" stroke-linejoin="round"/>
<path d="M87.5244 167.322L86.2187 172.043L84.1297 170.791L82.998 166.744L83.7815 164.431L86.5669 162.118L87.5244 167.322Z" fill="#2C2C2C" fill-opacity="0.92" stroke="#404040" stroke-opacity="0.92" stroke-width="0.2" stroke-linecap="round" stroke-linejoin="round"/>
<path d="M68.9848 122.609L69.9423 123.091L71.161 122.995L73.2501 124.537L79.5175 125.693L77.4283 129.74L77.0802 134.076L75.9486 135.136L73.9464 134.558L74.1205 136.1L70.9869 139.473V142.267L73.076 141.304L74.6428 143.905L74.5558 145.64L75.8615 147.953L74.3817 149.783L75.6874 154.505L78.1247 155.276L77.6895 157.878L73.7724 161.347L64.8936 159.709L58.452 161.732L57.9298 165.394L52.794 166.165L47.7452 163.371L46.0913 164.72L37.8218 161.925L36.0809 159.612L38.4312 155.951L39.3017 143.809L34.8623 137.449L31.6415 134.365L25.0259 132.053L24.6777 127.62L30.3358 126.367L37.5607 127.909L36.255 121.068L40.3462 123.669L50.2696 119.044L51.5753 114.129L55.2313 112.877L55.9277 114.997L57.8427 115.093L59.9319 117.502L62.9785 120.297L65.1547 119.815L68.9848 122.609Z" fill="#2C2C2C" fill-opacity="0.92" stroke="#404040" stroke-opacity="0.92" stroke-width="0.2" stroke-linecap="round" stroke-linejoin="round"/>
</svg>
