<svg width="100" height="100" viewBox="0 0 100 100" fill="none" xmlns="http://www.w3.org/2000/svg">
<rect x="48.5723" y="5" width="2.85714" height="4.28571" rx="1" fill="white"/>
<rect x="90.7148" y="48.5714" width="4.28571" height="2.85714" rx="1" fill="white"/>
<rect x="78.5723" y="78.5714" width="2.85714" height="2.85714" rx="1" fill="white"/>
<rect x="78.5723" y="18.5714" width="2.85714" height="2.85714" rx="1" fill="white"/>
<rect x="18.5723" y="78.5714" width="2.85714" height="2.85714" rx="1" fill="white"/>
<rect x="18.5723" y="18.5714" width="2.85714" height="2.85714" rx="1" fill="white"/>
<rect x="48.5723" y="90.7142" width="2.85714" height="4.28571" rx="1" fill="white"/>
<rect x="5" y="48.5714" width="4.28571" height="2.85714" rx="1" fill="white"/>
<path d="M48.5 50C48.5 50.3978 48.658 50.7794 48.9393 51.0607L55.7251 57.8464L62.5108 64.6321C63.0966 65.2179 64.0463 65.2179 64.6321 64.6321C65.2179 64.0463 65.2179 63.0966 64.6321 62.5108L57.8464 55.7251L51.5 49.3787V16.0714C51.5 15.243 50.8284 14.5714 50 14.5714C49.1716 14.5714 48.5 15.243 48.5 16.0714V50ZM98.5 50C98.5 76.7858 76.7858 98.5 50 98.5C23.2142 98.5 1.5 76.7858 1.5 50C1.5 23.2142 23.2142 1.5 50 1.5C76.7858 1.5 98.5 23.2142 98.5 50Z" stroke="white" stroke-width="3" stroke-linecap="round" stroke-linejoin="round"/>
</svg>
