<svg width="1094" height="304" viewBox="0 0 1094 304" fill="none" xmlns="http://www.w3.org/2000/svg">
<path d="M245.758 295.324C245.446 295.48 245.047 295.619 244.562 295.74C244.077 295.861 243.557 295.957 243.002 296.026C242.465 296.113 241.91 296.173 241.338 296.208C240.783 296.26 240.272 296.286 239.804 296.286C238.348 296.286 236.996 296.061 235.748 295.61C234.517 295.142 233.451 294.475 232.55 293.608C231.666 292.724 230.964 291.641 230.444 290.358C229.941 289.075 229.69 287.611 229.69 285.964C229.69 284.473 229.924 283.095 230.392 281.83C230.877 280.565 231.553 279.473 232.42 278.554C233.304 277.635 234.37 276.925 235.618 276.422C236.866 275.902 238.27 275.642 239.83 275.642C240.853 275.642 241.797 275.711 242.664 275.85C243.531 275.971 244.337 276.145 245.082 276.37C245.342 276.457 245.489 276.543 245.524 276.63C245.576 276.699 245.585 276.812 245.55 276.968L245.16 279.282C245.125 279.542 245.047 279.681 244.926 279.698C244.822 279.698 244.64 279.655 244.38 279.568C243.6 279.308 242.829 279.126 242.066 279.022C241.321 278.918 240.567 278.866 239.804 278.866C238.851 278.866 237.975 279.039 237.178 279.386C236.398 279.733 235.722 280.227 235.15 280.868C234.578 281.492 234.127 282.237 233.798 283.104C233.486 283.971 233.33 284.924 233.33 285.964C233.33 287.091 233.486 288.096 233.798 288.98C234.127 289.864 234.578 290.618 235.15 291.242C235.739 291.849 236.424 292.317 237.204 292.646C238.001 292.958 238.868 293.114 239.804 293.114C240.445 293.114 241.026 293.097 241.546 293.062C242.083 293.01 242.491 292.941 242.768 292.854V288.044H238.79C238.443 288.044 238.27 287.871 238.27 287.524V285.314C238.27 284.967 238.452 284.794 238.816 284.794H245.472C245.871 284.794 246.105 284.846 246.174 284.95C246.261 285.054 246.304 285.279 246.304 285.626V294.258C246.304 294.587 246.261 294.821 246.174 294.96C246.087 295.081 245.949 295.203 245.758 295.324ZM252.827 298.028C252.168 298.028 251.613 297.803 251.163 297.352C250.712 296.901 250.487 296.347 250.487 295.688C250.487 295.029 250.712 294.475 251.163 294.024C251.613 293.573 252.168 293.348 252.827 293.348C253.485 293.348 254.04 293.573 254.491 294.024C254.941 294.475 255.167 295.029 255.167 295.688C255.167 296.347 254.941 296.901 254.491 297.352C254.04 297.803 253.485 298.028 252.827 298.028ZM272.528 295.974C272.337 295.974 272.19 295.957 272.086 295.922C271.982 295.87 271.887 295.74 271.8 295.532L270.162 291.242H262.076L260.438 295.532C260.351 295.74 260.256 295.87 260.152 295.922C260.065 295.957 259.927 295.974 259.736 295.974H257.214C256.937 295.974 256.755 295.931 256.668 295.844C256.581 295.74 256.59 295.567 256.694 295.324L264.26 276.396C264.381 276.101 264.589 275.954 264.884 275.954H267.406C267.631 275.954 267.779 275.989 267.848 276.058C267.917 276.11 267.995 276.231 268.082 276.422L275.596 295.324C275.7 295.584 275.709 295.757 275.622 295.844C275.553 295.931 275.371 295.974 275.076 295.974H272.528ZM263.298 288.044H268.94L266.132 280.686L263.298 288.044ZM279.588 298.028C278.93 298.028 278.375 297.803 277.924 297.352C277.474 296.901 277.248 296.347 277.248 295.688C277.248 295.029 277.474 294.475 277.924 294.024C278.375 293.573 278.93 293.348 279.588 293.348C280.247 293.348 280.802 293.573 281.252 294.024C281.703 294.475 281.928 295.029 281.928 295.688C281.928 296.347 281.703 296.901 281.252 297.352C280.802 297.803 280.247 298.028 279.588 298.028ZM299.108 295.714C298.605 295.887 298.007 296.035 297.314 296.156C296.638 296.277 295.832 296.338 294.896 296.338C293.405 296.338 292.036 296.095 290.788 295.61C289.557 295.107 288.5 294.405 287.616 293.504C286.732 292.585 286.038 291.493 285.536 290.228C285.05 288.945 284.808 287.524 284.808 285.964C284.808 284.439 285.05 283.043 285.536 281.778C286.038 280.495 286.732 279.403 287.616 278.502C288.5 277.583 289.557 276.873 290.788 276.37C292.036 275.867 293.405 275.616 294.896 275.616C295.676 275.616 296.43 275.668 297.158 275.772C297.886 275.859 298.562 275.997 299.186 276.188C299.428 276.275 299.55 276.379 299.55 276.5C299.567 276.621 299.576 276.769 299.576 276.942L299.524 279.178C299.524 279.473 299.454 279.637 299.316 279.672C299.177 279.707 298.952 279.681 298.64 279.594C297.86 279.369 297.158 279.221 296.534 279.152C295.927 279.065 295.294 279.022 294.636 279.022C293.665 279.022 292.79 279.195 292.01 279.542C291.247 279.871 290.597 280.348 290.06 280.972C289.522 281.579 289.106 282.307 288.812 283.156C288.534 284.005 288.396 284.941 288.396 285.964C288.396 286.969 288.552 287.897 288.864 288.746C289.176 289.578 289.609 290.306 290.164 290.93C290.718 291.537 291.368 292.031 292.114 292.412C292.876 292.776 293.708 293.001 294.61 293.088C295.442 293.175 296.239 293.149 297.002 293.01C297.764 292.854 298.388 292.689 298.874 292.516C299.099 292.429 299.246 292.412 299.316 292.464C299.385 292.499 299.428 292.603 299.446 292.776L299.576 295.116C299.593 295.307 299.567 295.437 299.498 295.506C299.428 295.575 299.298 295.645 299.108 295.714ZM304.928 298.028C304.27 298.028 303.715 297.803 303.264 297.352C302.814 296.901 302.588 296.347 302.588 295.688C302.588 295.029 302.814 294.475 303.264 294.024C303.715 293.573 304.27 293.348 304.928 293.348C305.587 293.348 306.142 293.573 306.592 294.024C307.043 294.475 307.268 295.029 307.268 295.688C307.268 296.347 307.043 296.901 306.592 297.352C306.142 297.803 305.587 298.028 304.928 298.028ZM314.437 288.2V295.454C314.437 295.697 314.394 295.853 314.307 295.922C314.238 295.974 314.108 296 313.917 296H311.421C311.248 296 311.118 295.974 311.031 295.922C310.945 295.853 310.901 295.697 310.901 295.454V276.5C310.901 276.292 310.945 276.153 311.031 276.084C311.135 276.015 311.257 275.98 311.395 275.98H316.595C317.549 275.98 318.415 276.101 319.195 276.344C319.993 276.587 320.669 276.959 321.223 277.462C321.778 277.965 322.203 278.597 322.497 279.36C322.809 280.105 322.965 280.998 322.965 282.038C322.965 283.043 322.792 283.927 322.445 284.69C322.116 285.453 321.657 286.094 321.067 286.614C320.495 287.134 319.802 287.533 318.987 287.81C318.19 288.07 317.323 288.2 316.387 288.2H314.437ZM314.437 279.204V284.976H316.153C317.193 284.976 317.991 284.742 318.545 284.274C319.1 283.806 319.377 283.052 319.377 282.012C319.377 281.093 319.152 280.4 318.701 279.932C318.268 279.447 317.687 279.204 316.959 279.204H314.437ZM327.805 298.028C327.147 298.028 326.592 297.803 326.141 297.352C325.691 296.901 325.465 296.347 325.465 295.688C325.465 295.029 325.691 294.475 326.141 294.024C326.592 293.573 327.147 293.348 327.805 293.348C328.464 293.348 329.019 293.573 329.469 294.024C329.92 294.475 330.145 295.029 330.145 295.688C330.145 296.347 329.92 296.901 329.469 297.352C329.019 297.803 328.464 298.028 327.805 298.028Z" fill="#2C2C2C"/>
<path d="M794.758 299.324C794.446 299.48 794.047 299.619 793.562 299.74C793.077 299.861 792.557 299.957 792.002 300.026C791.465 300.113 790.91 300.173 790.338 300.208C789.783 300.26 789.272 300.286 788.804 300.286C787.348 300.286 785.996 300.061 784.748 299.61C783.517 299.142 782.451 298.475 781.55 297.608C780.666 296.724 779.964 295.641 779.444 294.358C778.941 293.075 778.69 291.611 778.69 289.964C778.69 288.473 778.924 287.095 779.392 285.83C779.877 284.565 780.553 283.473 781.42 282.554C782.304 281.635 783.37 280.925 784.618 280.422C785.866 279.902 787.27 279.642 788.83 279.642C789.853 279.642 790.797 279.711 791.664 279.85C792.531 279.971 793.337 280.145 794.082 280.37C794.342 280.457 794.489 280.543 794.524 280.63C794.576 280.699 794.585 280.812 794.55 280.968L794.16 283.282C794.125 283.542 794.047 283.681 793.926 283.698C793.822 283.698 793.64 283.655 793.38 283.568C792.6 283.308 791.829 283.126 791.066 283.022C790.321 282.918 789.567 282.866 788.804 282.866C787.851 282.866 786.975 283.039 786.178 283.386C785.398 283.733 784.722 284.227 784.15 284.868C783.578 285.492 783.127 286.237 782.798 287.104C782.486 287.971 782.33 288.924 782.33 289.964C782.33 291.091 782.486 292.096 782.798 292.98C783.127 293.864 783.578 294.618 784.15 295.242C784.739 295.849 785.424 296.317 786.204 296.646C787.001 296.958 787.868 297.114 788.804 297.114C789.445 297.114 790.026 297.097 790.546 297.062C791.083 297.01 791.491 296.941 791.768 296.854V292.044H787.79C787.443 292.044 787.27 291.871 787.27 291.524V289.314C787.27 288.967 787.452 288.794 787.816 288.794H794.472C794.871 288.794 795.105 288.846 795.174 288.95C795.261 289.054 795.304 289.279 795.304 289.626V298.258C795.304 298.587 795.261 298.821 795.174 298.96C795.087 299.081 794.949 299.203 794.758 299.324ZM801.827 302.028C801.168 302.028 800.613 301.803 800.163 301.352C799.712 300.901 799.487 300.347 799.487 299.688C799.487 299.029 799.712 298.475 800.163 298.024C800.613 297.573 801.168 297.348 801.827 297.348C802.485 297.348 803.04 297.573 803.491 298.024C803.941 298.475 804.167 299.029 804.167 299.688C804.167 300.347 803.941 300.901 803.491 301.352C803.04 301.803 802.485 302.028 801.827 302.028ZM825.402 299.974C825.177 299.974 825.038 299.948 824.986 299.896C824.934 299.827 824.908 299.688 824.908 299.48V286.428L819.838 299.402C819.751 299.593 819.673 299.714 819.604 299.766C819.535 299.818 819.405 299.844 819.214 299.844H816.952C816.761 299.844 816.623 299.818 816.536 299.766C816.467 299.714 816.397 299.593 816.328 299.402L811.258 286.428V299.48C811.258 299.688 811.232 299.827 811.18 299.896C811.128 299.948 810.989 299.974 810.764 299.974H808.216C807.991 299.974 807.852 299.948 807.8 299.896C807.748 299.827 807.722 299.688 807.722 299.48V280.734C807.722 280.37 807.757 280.153 807.826 280.084C807.913 279.997 808.129 279.954 808.476 279.954H811.388C811.544 279.954 811.665 279.98 811.752 280.032C811.839 280.084 811.917 280.197 811.986 280.37L818.07 295.476L824.18 280.37C824.284 280.093 824.501 279.954 824.83 279.954H827.664C828.028 279.954 828.245 279.997 828.314 280.084C828.401 280.153 828.444 280.37 828.444 280.734V299.48C828.444 299.688 828.409 299.827 828.34 299.896C828.288 299.948 828.158 299.974 827.95 299.974H825.402ZM834.885 302.028C834.227 302.028 833.672 301.803 833.221 301.352C832.771 300.901 832.545 300.347 832.545 299.688C832.545 299.029 832.771 298.475 833.221 298.024C833.672 297.573 834.227 297.348 834.885 297.348C835.544 297.348 836.099 297.573 836.549 298.024C837 298.475 837.225 299.029 837.225 299.688C837.225 300.347 837 300.901 836.549 301.352C836.099 301.803 835.544 302.028 834.885 302.028ZM844.394 292.2V299.454C844.394 299.697 844.351 299.853 844.264 299.922C844.195 299.974 844.065 300 843.874 300H841.378C841.205 300 841.075 299.974 840.988 299.922C840.902 299.853 840.858 299.697 840.858 299.454V280.5C840.858 280.292 840.902 280.153 840.988 280.084C841.092 280.015 841.214 279.98 841.352 279.98H846.552C847.506 279.98 848.372 280.101 849.152 280.344C849.95 280.587 850.626 280.959 851.18 281.462C851.735 281.965 852.16 282.597 852.454 283.36C852.766 284.105 852.922 284.998 852.922 286.038C852.922 287.043 852.749 287.927 852.402 288.69C852.073 289.453 851.614 290.094 851.024 290.614C850.452 291.134 849.759 291.533 848.944 291.81C848.147 292.07 847.28 292.2 846.344 292.2H844.394ZM844.394 283.204V288.976H846.11C847.15 288.976 847.948 288.742 848.502 288.274C849.057 287.806 849.334 287.052 849.334 286.012C849.334 285.093 849.109 284.4 848.658 283.932C848.225 283.447 847.644 283.204 846.916 283.204H844.394ZM857.762 302.028C857.104 302.028 856.549 301.803 856.098 301.352C855.648 300.901 855.422 300.347 855.422 299.688C855.422 299.029 855.648 298.475 856.098 298.024C856.549 297.573 857.104 297.348 857.762 297.348C858.421 297.348 858.976 297.573 859.426 298.024C859.877 298.475 860.102 299.029 860.102 299.688C860.102 300.347 859.877 300.901 859.426 301.352C858.976 301.803 858.421 302.028 857.762 302.028Z" fill="#2C2C2C"/>
<path d="M482.806 252.982C482.71 252.982 482.65 252.97 482.626 252.946C482.602 252.91 482.59 252.856 482.59 252.784V243.01L478.684 252.748C478.66 252.808 478.63 252.844 478.594 252.856C478.57 252.868 478.498 252.874 478.378 252.874H476.938C476.818 252.874 476.74 252.868 476.704 252.856C476.68 252.844 476.656 252.808 476.632 252.748L472.726 243.01V252.784C472.726 252.856 472.714 252.91 472.69 252.946C472.666 252.97 472.606 252.982 472.51 252.982H470.836C470.692 252.982 470.62 252.916 470.62 252.784V239.788C470.62 239.62 470.638 239.518 470.674 239.482C470.71 239.434 470.824 239.41 471.016 239.41H473.158C473.242 239.41 473.29 239.428 473.302 239.464C473.326 239.488 473.356 239.542 473.392 239.626L477.658 250.21L481.924 239.626C481.96 239.542 481.984 239.488 481.996 239.464C482.02 239.428 482.074 239.41 482.158 239.41H484.3C484.492 239.41 484.606 239.434 484.642 239.482C484.678 239.518 484.696 239.62 484.696 239.788V252.784C484.696 252.916 484.624 252.982 484.48 252.982H482.806ZM495.618 248.446C495.618 248.542 495.588 248.614 495.528 248.662C495.48 248.71 495.426 248.734 495.366 248.734H489.444C489.504 249.538 489.756 250.198 490.2 250.714C490.644 251.218 491.25 251.47 492.018 251.47C492.414 251.47 492.864 251.422 493.368 251.326C493.872 251.218 494.334 251.038 494.754 250.786C494.838 250.738 494.892 250.744 494.916 250.804C494.94 250.864 494.952 250.942 494.952 251.038V252.28C494.952 252.388 494.934 252.472 494.898 252.532C494.862 252.592 494.79 252.652 494.682 252.712C494.322 252.904 493.896 253.042 493.404 253.126C492.924 253.21 492.432 253.252 491.928 253.252C490.44 253.252 489.312 252.808 488.544 251.92C487.788 251.02 487.41 249.706 487.41 247.978C487.41 247.33 487.494 246.694 487.662 246.07C487.83 245.446 488.082 244.888 488.418 244.396C488.766 243.904 489.204 243.508 489.732 243.208C490.26 242.908 490.884 242.758 491.604 242.758C492.336 242.758 492.954 242.896 493.458 243.172C493.974 243.448 494.394 243.82 494.718 244.288C495.042 244.756 495.276 245.302 495.42 245.926C495.564 246.55 495.636 247.216 495.636 247.924C495.636 248.008 495.63 248.104 495.618 248.212C495.618 248.32 495.618 248.398 495.618 248.446ZM491.676 244.486C491.352 244.486 491.064 244.558 490.812 244.702C490.56 244.846 490.344 245.032 490.164 245.26C489.984 245.488 489.834 245.752 489.714 246.052C489.606 246.352 489.528 246.652 489.48 246.952H493.602C493.602 246.712 493.56 246.448 493.476 246.16C493.404 245.872 493.29 245.608 493.134 245.368C492.978 245.116 492.78 244.906 492.54 244.738C492.3 244.57 492.012 244.486 491.676 244.486ZM504.328 253.018C504.148 253.018 504.058 252.922 504.058 252.73V252.046C503.818 252.382 503.464 252.664 502.996 252.892C502.528 253.12 502.054 253.234 501.574 253.234C500.926 253.234 500.344 253.114 499.828 252.874C499.324 252.622 498.892 252.268 498.532 251.812C498.184 251.344 497.914 250.78 497.722 250.12C497.542 249.46 497.452 248.716 497.452 247.888C497.452 247.084 497.548 246.358 497.74 245.71C497.932 245.05 498.202 244.492 498.55 244.036C498.91 243.58 499.342 243.226 499.846 242.974C500.362 242.722 500.938 242.596 501.574 242.596C502.054 242.596 502.504 242.692 502.924 242.884C503.356 243.076 503.734 243.346 504.058 243.694V238.564C504.058 238.468 504.07 238.408 504.094 238.384C504.13 238.348 504.19 238.33 504.274 238.33H505.75C505.906 238.33 505.984 238.408 505.984 238.564V252.73C505.984 252.826 505.954 252.898 505.894 252.946C505.834 252.994 505.768 253.018 505.696 253.018H504.328ZM501.772 244.432C501.028 244.432 500.458 244.738 500.062 245.35C499.666 245.95 499.468 246.796 499.468 247.888C499.468 249.064 499.672 249.946 500.08 250.534C500.488 251.122 501.052 251.416 501.772 251.416C502.084 251.416 502.378 251.338 502.654 251.182C502.93 251.026 503.17 250.798 503.374 250.498C503.59 250.198 503.758 249.832 503.878 249.4C503.998 248.956 504.058 248.452 504.058 247.888C504.058 246.724 503.854 245.86 503.446 245.296C503.05 244.72 502.492 244.432 501.772 244.432ZM508.944 253.918C508.884 253.918 508.83 253.894 508.782 253.846C508.746 253.81 508.728 253.762 508.728 253.702V244.216C508.728 244.156 508.746 244.108 508.782 244.072C508.83 244.024 508.884 244 508.944 244H510.456C510.516 244 510.564 244.024 510.6 244.072C510.648 244.108 510.672 244.156 510.672 244.216V253.702C510.672 253.762 510.648 253.81 510.6 253.846C510.564 253.894 510.516 253.918 510.456 253.918H508.944ZM509.718 242.038C509.37 242.038 509.076 241.924 508.836 241.696C508.608 241.456 508.494 241.168 508.494 240.832C508.494 240.484 508.608 240.19 508.836 239.95C509.076 239.71 509.37 239.59 509.718 239.59C510.066 239.59 510.36 239.71 510.6 239.95C510.84 240.19 510.96 240.484 510.96 240.832C510.96 241.168 510.84 241.456 510.6 241.696C510.36 241.924 510.066 242.038 509.718 242.038ZM519.945 252.946C519.813 252.994 519.651 253.036 519.459 253.072C519.267 253.108 519.057 253.138 518.829 253.162C518.613 253.186 518.379 253.198 518.127 253.198C517.887 253.21 517.653 253.21 517.425 253.198C516.669 253.15 515.997 252.988 515.409 252.712C514.833 252.424 514.347 252.052 513.951 251.596C513.555 251.14 513.255 250.606 513.051 249.994C512.859 249.37 512.763 248.698 512.763 247.978C512.763 247.222 512.883 246.526 513.123 245.89C513.363 245.254 513.699 244.708 514.131 244.252C514.575 243.784 515.103 243.424 515.715 243.172C516.327 242.92 517.011 242.794 517.767 242.794C518.139 242.794 518.511 242.818 518.883 242.866C519.267 242.902 519.639 242.98 519.999 243.1C520.047 243.112 520.083 243.136 520.107 243.172C520.131 243.208 520.137 243.28 520.125 243.388L519.963 244.63C519.951 244.714 519.921 244.774 519.873 244.81C519.837 244.846 519.765 244.852 519.657 244.828C519.393 244.732 519.081 244.666 518.721 244.63C518.373 244.594 518.043 244.576 517.731 244.576C516.759 244.576 516.021 244.888 515.517 245.512C515.013 246.136 514.761 246.958 514.761 247.978C514.761 248.962 514.995 249.754 515.463 250.354C515.943 250.954 516.633 251.308 517.533 251.416C518.361 251.512 519.099 251.458 519.747 251.254C519.867 251.206 519.939 251.2 519.963 251.236C519.999 251.272 520.023 251.326 520.035 251.398L520.125 252.64C520.137 252.736 520.131 252.808 520.107 252.856C520.095 252.892 520.041 252.922 519.945 252.946ZM527.62 252.964C527.536 252.964 527.482 252.958 527.458 252.946C527.434 252.922 527.422 252.874 527.422 252.802V251.992C527.122 252.412 526.738 252.73 526.27 252.946C525.814 253.15 525.352 253.252 524.884 253.252C524.392 253.252 523.936 253.186 523.516 253.054C523.108 252.922 522.754 252.724 522.454 252.46C522.166 252.196 521.938 251.872 521.77 251.488C521.602 251.092 521.518 250.636 521.518 250.12C521.518 249.508 521.626 248.974 521.842 248.518C522.058 248.05 522.394 247.666 522.85 247.366C523.318 247.054 523.912 246.826 524.632 246.682C525.352 246.526 526.222 246.448 527.242 246.448C527.242 246.22 527.218 245.992 527.17 245.764C527.122 245.536 527.038 245.332 526.918 245.152C526.81 244.972 526.654 244.828 526.45 244.72C526.246 244.6 525.988 244.54 525.676 244.54C525.136 244.54 524.644 244.612 524.2 244.756C523.768 244.9 523.36 245.092 522.976 245.332C522.784 245.452 522.652 245.506 522.58 245.494C522.52 245.482 522.49 245.416 522.49 245.296V243.928C522.49 243.88 522.484 243.832 522.472 243.784C522.472 243.724 522.484 243.676 522.508 243.64C522.544 243.592 522.634 243.526 522.778 243.442C523.186 243.238 523.6 243.07 524.02 242.938C524.452 242.806 524.992 242.74 525.64 242.74C526.852 242.74 527.746 243.034 528.322 243.622C528.91 244.21 529.204 245.134 529.204 246.394V250.66C529.204 250.996 529.204 251.35 529.204 251.722C529.216 252.082 529.24 252.4 529.276 252.676C529.3 252.868 529.234 252.964 529.078 252.964H527.62ZM527.296 248.158C525.964 248.158 525.01 248.32 524.434 248.644C523.858 248.968 523.57 249.454 523.57 250.102C523.57 250.558 523.702 250.9 523.966 251.128C524.23 251.356 524.584 251.47 525.028 251.47C525.712 251.47 526.258 251.218 526.666 250.714C527.086 250.21 527.296 249.424 527.296 248.356V248.158ZM532.119 253C531.987 253 531.921 252.928 531.921 252.784V238.6C531.921 238.54 531.939 238.492 531.975 238.456C532.023 238.408 532.077 238.384 532.137 238.384H533.649C533.709 238.384 533.757 238.408 533.793 238.456C533.841 238.492 533.865 238.54 533.865 238.6V252.784C533.865 252.844 533.841 252.898 533.793 252.946C533.757 252.982 533.709 253 533.649 253H532.119ZM551.081 252.838C550.733 252.934 550.313 253.024 549.821 253.108C549.329 253.192 548.759 253.234 548.111 253.234C547.091 253.234 546.161 253.066 545.321 252.73C544.493 252.394 543.785 251.92 543.197 251.308C542.609 250.684 542.153 249.94 541.829 249.076C541.505 248.212 541.343 247.252 541.343 246.196C541.343 245.152 541.499 244.198 541.811 243.334C542.135 242.47 542.591 241.732 543.179 241.12C543.767 240.496 544.475 240.016 545.303 239.68C546.143 239.332 547.079 239.158 548.111 239.158C548.651 239.158 549.179 239.188 549.695 239.248C550.211 239.296 550.679 239.386 551.099 239.518C551.231 239.554 551.309 239.602 551.333 239.662C551.357 239.71 551.363 239.794 551.351 239.914L551.315 241.246C551.315 241.438 551.285 241.534 551.225 241.534C551.165 241.534 551.063 241.51 550.919 241.462C550.019 241.186 549.083 241.048 548.111 241.048C547.367 241.048 546.701 241.174 546.113 241.426C545.537 241.678 545.045 242.032 544.637 242.488C544.241 242.944 543.935 243.49 543.719 244.126C543.515 244.75 543.413 245.44 543.413 246.196C543.413 246.94 543.527 247.63 543.755 248.266C543.983 248.89 544.301 249.436 544.709 249.904C545.129 250.36 545.621 250.72 546.185 250.984C546.761 251.248 547.397 251.38 548.093 251.38C548.717 251.38 549.245 251.356 549.677 251.308C550.121 251.248 550.529 251.152 550.901 251.02C551.057 250.96 551.159 250.942 551.207 250.966C551.255 250.99 551.279 251.044 551.279 251.128L551.351 252.406C551.363 252.538 551.351 252.634 551.315 252.694C551.291 252.754 551.213 252.802 551.081 252.838ZM559.287 252.964C559.203 252.964 559.149 252.958 559.125 252.946C559.101 252.922 559.089 252.874 559.089 252.802V251.992C558.789 252.412 558.405 252.73 557.937 252.946C557.481 253.15 557.019 253.252 556.551 253.252C556.059 253.252 555.603 253.186 555.183 253.054C554.775 252.922 554.421 252.724 554.121 252.46C553.833 252.196 553.605 251.872 553.437 251.488C553.269 251.092 553.185 250.636 553.185 250.12C553.185 249.508 553.293 248.974 553.509 248.518C553.725 248.05 554.061 247.666 554.517 247.366C554.985 247.054 555.579 246.826 556.299 246.682C557.019 246.526 557.889 246.448 558.909 246.448C558.909 246.22 558.885 245.992 558.837 245.764C558.789 245.536 558.705 245.332 558.585 245.152C558.477 244.972 558.321 244.828 558.117 244.72C557.913 244.6 557.655 244.54 557.343 244.54C556.803 244.54 556.311 244.612 555.867 244.756C555.435 244.9 555.027 245.092 554.643 245.332C554.451 245.452 554.319 245.506 554.247 245.494C554.187 245.482 554.157 245.416 554.157 245.296V243.928C554.157 243.88 554.151 243.832 554.139 243.784C554.139 243.724 554.151 243.676 554.175 243.64C554.211 243.592 554.301 243.526 554.445 243.442C554.853 243.238 555.267 243.07 555.687 242.938C556.119 242.806 556.659 242.74 557.307 242.74C558.519 242.74 559.413 243.034 559.989 243.622C560.577 244.21 560.871 245.134 560.871 246.394V250.66C560.871 250.996 560.871 251.35 560.871 251.722C560.883 252.082 560.907 252.4 560.943 252.676C560.967 252.868 560.901 252.964 560.745 252.964H559.287ZM558.963 248.158C557.631 248.158 556.677 248.32 556.101 248.644C555.525 248.968 555.237 249.454 555.237 250.102C555.237 250.558 555.369 250.9 555.633 251.128C555.897 251.356 556.251 251.47 556.695 251.47C557.379 251.47 557.925 251.218 558.333 250.714C558.753 250.21 558.963 249.424 558.963 248.356V248.158ZM569.995 252.964C569.935 252.964 569.881 252.94 569.833 252.892C569.797 252.832 569.779 252.772 569.779 252.712V246.988C569.779 246.124 569.641 245.5 569.365 245.116C569.101 244.732 568.681 244.54 568.105 244.54C567.313 244.54 566.725 244.762 566.341 245.206C565.969 245.638 565.783 246.268 565.783 247.096V252.73C565.783 252.886 565.711 252.964 565.567 252.964H564.073C564.013 252.964 563.959 252.94 563.911 252.892C563.875 252.832 563.857 252.772 563.857 252.712V245.548C563.857 245.092 563.851 244.654 563.839 244.234C563.839 243.814 563.827 243.484 563.803 243.244C563.779 243.088 563.863 243.01 564.055 243.01H565.477C565.609 243.01 565.663 243.058 565.639 243.154L565.621 243.802C565.921 243.514 566.281 243.268 566.701 243.064C567.121 242.86 567.607 242.758 568.159 242.758C569.311 242.758 570.187 243.1 570.787 243.784C571.399 244.456 571.705 245.434 571.705 246.718V252.73C571.705 252.886 571.633 252.964 571.489 252.964H569.995ZM581.001 252.964C580.941 252.964 580.887 252.94 580.839 252.892C580.803 252.832 580.785 252.772 580.785 252.712V246.988C580.785 246.124 580.647 245.5 580.371 245.116C580.107 244.732 579.687 244.54 579.111 244.54C578.319 244.54 577.731 244.762 577.347 245.206C576.975 245.638 576.789 246.268 576.789 247.096V252.73C576.789 252.886 576.717 252.964 576.573 252.964H575.079C575.019 252.964 574.965 252.94 574.917 252.892C574.881 252.832 574.863 252.772 574.863 252.712V245.548C574.863 245.092 574.857 244.654 574.845 244.234C574.845 243.814 574.833 243.484 574.809 243.244C574.785 243.088 574.869 243.01 575.061 243.01H576.483C576.615 243.01 576.669 243.058 576.645 243.154L576.627 243.802C576.927 243.514 577.287 243.268 577.707 243.064C578.127 242.86 578.613 242.758 579.165 242.758C580.317 242.758 581.193 243.1 581.793 243.784C582.405 244.456 582.711 245.434 582.711 246.718V252.73C582.711 252.886 582.639 252.964 582.495 252.964H581.001ZM591.198 252.964C591.114 252.964 591.06 252.958 591.036 252.946C591.012 252.922 591 252.874 591 252.802V251.992C590.7 252.412 590.316 252.73 589.848 252.946C589.392 253.15 588.93 253.252 588.462 253.252C587.97 253.252 587.514 253.186 587.094 253.054C586.686 252.922 586.332 252.724 586.032 252.46C585.744 252.196 585.516 251.872 585.348 251.488C585.18 251.092 585.096 250.636 585.096 250.12C585.096 249.508 585.204 248.974 585.42 248.518C585.636 248.05 585.972 247.666 586.428 247.366C586.896 247.054 587.49 246.826 588.21 246.682C588.93 246.526 589.8 246.448 590.82 246.448C590.82 246.22 590.796 245.992 590.748 245.764C590.7 245.536 590.616 245.332 590.496 245.152C590.388 244.972 590.232 244.828 590.028 244.72C589.824 244.6 589.566 244.54 589.254 244.54C588.714 244.54 588.222 244.612 587.778 244.756C587.346 244.9 586.938 245.092 586.554 245.332C586.362 245.452 586.23 245.506 586.158 245.494C586.098 245.482 586.068 245.416 586.068 245.296V243.928C586.068 243.88 586.062 243.832 586.05 243.784C586.05 243.724 586.062 243.676 586.086 243.64C586.122 243.592 586.212 243.526 586.356 243.442C586.764 243.238 587.178 243.07 587.598 242.938C588.03 242.806 588.57 242.74 589.218 242.74C590.43 242.74 591.324 243.034 591.9 243.622C592.488 244.21 592.782 245.134 592.782 246.394V250.66C592.782 250.996 592.782 251.35 592.782 251.722C592.794 252.082 592.818 252.4 592.854 252.676C592.878 252.868 592.812 252.964 592.656 252.964H591.198ZM590.874 248.158C589.542 248.158 588.588 248.32 588.012 248.644C587.436 248.968 587.148 249.454 587.148 250.102C587.148 250.558 587.28 250.9 587.544 251.128C587.808 251.356 588.162 251.47 588.606 251.47C589.29 251.47 589.836 251.218 590.244 250.714C590.664 250.21 590.874 249.424 590.874 248.356V248.158ZM600.052 253.234C599.572 253.234 599.098 253.12 598.63 252.892C598.162 252.664 597.808 252.382 597.568 252.046V252.73C597.568 252.922 597.478 253.018 597.298 253.018H595.93C595.738 253.018 595.642 252.922 595.642 252.73V238.564C595.642 238.408 595.72 238.33 595.876 238.33H597.352C597.436 238.33 597.49 238.348 597.514 238.384C597.55 238.408 597.568 238.468 597.568 238.564V243.694C597.892 243.346 598.264 243.076 598.684 242.884C599.116 242.692 599.572 242.596 600.052 242.596C600.688 242.596 601.258 242.722 601.762 242.974C602.278 243.226 602.71 243.58 603.058 244.036C603.418 244.492 603.694 245.05 603.886 245.71C604.078 246.358 604.174 247.084 604.174 247.888C604.174 248.716 604.078 249.46 603.886 250.12C603.706 250.78 603.436 251.344 603.076 251.812C602.728 252.268 602.296 252.622 601.78 252.874C601.276 253.114 600.7 253.234 600.052 253.234ZM599.854 244.432C599.134 244.432 598.57 244.72 598.162 245.296C597.766 245.86 597.568 246.724 597.568 247.888C597.568 248.452 597.628 248.956 597.748 249.4C597.868 249.832 598.03 250.198 598.234 250.498C598.45 250.798 598.696 251.026 598.972 251.182C599.248 251.338 599.542 251.416 599.854 251.416C600.574 251.416 601.138 251.122 601.546 250.534C601.954 249.946 602.158 249.064 602.158 247.888C602.158 246.796 601.96 245.95 601.564 245.35C601.168 244.738 600.598 244.432 599.854 244.432ZM606.684 253.918C606.624 253.918 606.57 253.894 606.522 253.846C606.486 253.81 606.468 253.762 606.468 253.702V244.216C606.468 244.156 606.486 244.108 606.522 244.072C606.57 244.024 606.624 244 606.684 244H608.196C608.256 244 608.304 244.024 608.34 244.072C608.388 244.108 608.412 244.156 608.412 244.216V253.702C608.412 253.762 608.388 253.81 608.34 253.846C608.304 253.894 608.256 253.918 608.196 253.918H606.684ZM607.458 242.038C607.11 242.038 606.816 241.924 606.576 241.696C606.348 241.456 606.234 241.168 606.234 240.832C606.234 240.484 606.348 240.19 606.576 239.95C606.816 239.71 607.11 239.59 607.458 239.59C607.806 239.59 608.1 239.71 608.34 239.95C608.58 240.19 608.7 240.484 608.7 240.832C608.7 241.168 608.58 241.456 608.34 241.696C608.1 241.924 607.806 242.038 607.458 242.038ZM615.525 252.604C614.877 253.036 614.109 253.252 613.221 253.252C612.981 253.252 612.729 253.24 612.465 253.216C612.201 253.192 611.943 253.162 611.691 253.126C611.451 253.09 611.235 253.048 611.043 253C610.851 252.952 610.701 252.904 610.593 252.856C610.545 252.832 610.491 252.802 610.431 252.766C610.383 252.718 610.365 252.646 610.377 252.55L610.485 251.38C610.497 251.26 610.515 251.188 610.539 251.164C610.563 251.14 610.641 251.146 610.773 251.182C611.169 251.302 611.577 251.392 611.997 251.452C612.429 251.5 612.813 251.524 613.149 251.524C613.677 251.524 614.067 251.392 614.319 251.128C614.583 250.864 614.715 250.558 614.715 250.21C614.715 250.018 614.649 249.826 614.517 249.634C614.385 249.43 614.163 249.226 613.851 249.022C613.527 248.83 613.191 248.638 612.843 248.446C612.495 248.242 612.153 248.044 611.817 247.852C611.433 247.624 611.109 247.324 610.845 246.952C610.593 246.568 610.467 246.148 610.467 245.692C610.467 245.188 610.557 244.756 610.737 244.396C610.917 244.024 611.157 243.718 611.457 243.478C611.757 243.226 612.099 243.046 612.483 242.938C612.879 242.818 613.293 242.758 613.725 242.758C613.953 242.758 614.187 242.77 614.427 242.794C614.679 242.818 614.919 242.854 615.147 242.902C615.387 242.938 615.597 242.986 615.777 243.046C615.969 243.094 616.113 243.148 616.209 243.208C616.269 243.244 616.299 243.28 616.299 243.316C616.311 243.34 616.311 243.382 616.299 243.442L616.191 244.594C616.179 244.726 616.149 244.804 616.101 244.828C616.053 244.84 615.963 244.834 615.831 244.81C615.603 244.726 615.345 244.648 615.057 244.576C614.889 244.552 614.709 244.528 614.517 244.504C614.337 244.48 614.109 244.468 613.833 244.468C613.341 244.468 612.993 244.582 612.789 244.81C612.585 245.038 612.483 245.314 612.483 245.638C612.483 245.83 612.597 246.034 612.825 246.25C613.053 246.466 613.341 246.664 613.689 246.844C614.061 247.024 614.403 247.21 614.715 247.402C615.039 247.594 615.279 247.75 615.435 247.87C615.867 248.182 616.191 248.524 616.407 248.896C616.623 249.256 616.731 249.694 616.731 250.21C616.731 251.218 616.329 252.016 615.525 252.604Z" fill="#2C2C2C"/>
<path d="M272.784 6.98975C272.902 3.07694 276.108 0 280.023 0C283.919 0 287.117 3.04725 287.258 6.94115C287.986 27.0763 290.008 86.6628 290 127.5C289.991 176.915 287 254 287 254H273C273 254 270.508 176.911 270.5 127.5C270.494 86.6988 272.176 27.1726 272.784 6.98975Z" fill="#404040"/>
<path d="M812.284 6.98975C812.402 3.07694 815.608 0 819.523 0C823.419 0 826.617 3.04725 826.758 6.94115C827.486 27.0763 829.508 86.6628 829.5 127.5C829.491 176.915 826.5 254 826.5 254H812.5C812.5 254 810.008 176.911 810 127.5C809.994 86.6988 811.676 27.1726 812.284 6.98975Z" fill="#404040"/>
<rect y="201" width="1094" height="5" fill="#404040"/>
<rect y="212" width="1094" height="5" fill="#404040"/>
<path d="M6.5 203.5C6.5 203.5 114.242 185.519 188 125.5C239 84 280 12 280 12C280 12 420.843 170.5 550 170.5C679.157 170.5 820 12 820 12" stroke="#404040" stroke-width="4"/>
<path d="M820 12C820 12 861 84 912 125.5C985.758 185.519 1093.5 203.5 1093.5 203.5" stroke="#404040" stroke-width="4"/>
<path d="M66 203V188.5" stroke="#404040" stroke-width="2"/>
<path d="M66 203.5V188.5" stroke="#404040" stroke-width="2"/>
<path d="M36 204V197" stroke="#404040" stroke-width="2"/>
<path d="M98 203V176" stroke="#404040" stroke-width="2"/>
<path d="M128 203L128 163" stroke="#404040" stroke-width="2"/>
<path d="M158 203L158 147" stroke="#404040" stroke-width="2"/>
<path d="M188 203L188 125.5" stroke="#404040" stroke-width="2"/>
<path d="M218 203L218 97" stroke="#404040" stroke-width="2"/>
<path d="M248 203L248 60" stroke="#404040" stroke-width="2"/>
<path d="M340 203L340 69" stroke="#404040" stroke-width="2"/>
<path d="M370 203L370 93.5" stroke="#404040" stroke-width="2"/>
<path d="M400 203L400 115" stroke="#404040" stroke-width="2"/>
<path d="M430 203L430 133.5" stroke="#404040" stroke-width="2"/>
<path d="M460 203L460 148" stroke="#404040" stroke-width="2"/>
<path d="M490 203L490 160.5" stroke="#404040" stroke-width="2"/>
<path d="M520 203L520 168" stroke="#404040" stroke-width="2"/>
<path d="M550 203L550 170.5" stroke="#404040" stroke-width="2"/>
<path d="M580 203L580 168" stroke="#404040" stroke-width="2"/>
<path d="M610 203L610 160" stroke="#404040" stroke-width="2"/>
<path d="M640 203L640 149" stroke="#404040" stroke-width="2"/>
<path d="M670 203L670 134" stroke="#404040" stroke-width="2"/>
<path d="M700 203L700 115.5" stroke="#404040" stroke-width="2"/>
<path d="M730 203L730 94.5" stroke="#404040" stroke-width="2"/>
<path d="M760 203L760 69" stroke="#404040" stroke-width="2"/>
<path d="M760 203L760 69" stroke="#404040" stroke-width="2"/>
<path d="M790 203L790 42.5" stroke="#404040" stroke-width="2"/>
<path d="M850 203L850 58" stroke="#404040" stroke-width="2"/>
<path d="M880 203L880 94.5" stroke="#404040" stroke-width="2"/>
<path d="M910 203L910 123.5" stroke="#404040" stroke-width="2"/>
<path d="M940 203L940 145.5" stroke="#404040" stroke-width="2"/>
<path d="M970 203L970 162.5" stroke="#404040" stroke-width="2"/>
<path d="M1000 203L1000 175.5" stroke="#404040" stroke-width="2"/>
<path d="M1030 203L1030 186.5" stroke="#404040" stroke-width="2"/>
<path d="M1060 203.5L1060 196" stroke="#404040" stroke-width="2"/>
<path d="M310 203L310 42.5" stroke="#404040" stroke-width="2"/>
<rect y="201" width="5" height="16" fill="#404040"/>
<path d="M260 259C260 256.239 262.239 254 265 254H295C297.761 254 300 256.239 300 259V260H260V259Z" fill="#404040"/>
<path d="M252 265C252 262.239 254.239 260 257 260H303C305.761 260 308 262.239 308 265V266H252V265Z" fill="#404040"/>
<path d="M792 265C792 262.239 794.239 260 797 260H843C845.761 260 848 262.239 848 265V266H792V265Z" fill="#404040"/>
<path d="M800 259C800 256.239 802.239 254 805 254H835C837.761 254 840 256.239 840 259V260H800V259Z" fill="#404040"/>
<rect x="1089" y="201" width="5" height="16" fill="#404040"/>
<path d="M2.5 203.5V214L13 203.5V214L23.5 203.5V214L34 203.5V214L44.5 203.5V214L55 203.5" stroke="#404040" stroke-width="2"/>
<path d="M55 204V214.5L65.5 204V214.5L76 204V214.5L86.5 204V214.5L97 204V214.5L107.5 204" stroke="#404040" stroke-width="2"/>
<path d="M108 204V214.5L118.5 204V214.5L129 204V214.5L139.5 204V214.5L150 204V214.5L160.5 204" stroke="#404040" stroke-width="2"/>
<path d="M161 203.5V214L171.5 203.5V214L182 203.5V214L192.5 203.5V214L203 203.5V214L213.5 203.5" stroke="#404040" stroke-width="2"/>
<path d="M213.5 203V213.5L224 203V213.5L234.5 203V213.5L245 203V213.5L255.5 203V213.5L266 203" stroke="#404040" stroke-width="2"/>
<path d="M266 203.5V214L276.5 203.5V214L287 203.5V214L297.5 203.5V214L308 203.5V214L318.5 203.5" stroke="#404040" stroke-width="2"/>
<path d="M319 203.5V214L329.5 203.5V214L340 203.5V214L350.5 203.5V214L361 203.5V214L371.5 203.5" stroke="#404040" stroke-width="2"/>
<path d="M371.5 204V214.5L382 204V214.5L392.5 204V214.5L403 204V214.5L413.5 204V214.5L424 204" stroke="#404040" stroke-width="2"/>
<path d="M425 203.5V214L435.5 203.5V214L446 203.5V214L456.5 203.5V214L467 203.5V214L477.5 203.5" stroke="#404040" stroke-width="2"/>
<path d="M477.5 204V214.5L488 204V214.5L498.5 204V214.5L509 204V214.5L519.5 204V214.5L530 204" stroke="#404040" stroke-width="2"/>
<path d="M530.5 204V214.5L541 204V214.5L551.5 204V214.5L562 204V214.5L572.5 204V214.5L583 204" stroke="#404040" stroke-width="2"/>
<path d="M583.5 203.5V214L594 203.5V214L604.5 203.5V214L615 203.5V214L625.5 203.5V214L636 203.5" stroke="#404040" stroke-width="2"/>
<path d="M636 203V213.5L646.5 203V213.5L657 203V213.5L667.5 203V213.5L678 203V213.5L688.5 203" stroke="#404040" stroke-width="2"/>
<path d="M688.5 203.5V214L699 203.5V214L709.5 203.5V214L720 203.5V214L730.5 203.5V214L741 203.5" stroke="#404040" stroke-width="2"/>
<path d="M741.5 203.5V214L752 203.5V214L762.5 203.5V214L773 203.5V214L783.5 203.5V214L794 203.5" stroke="#404040" stroke-width="2"/>
<path d="M794 204V214.5L804.5 204V214.5L815 204V214.5L825.5 204V214.5L836 204V214.5L846.5 204" stroke="#404040" stroke-width="2"/>
<path d="M848 204V214.5L858.5 204V214.5L869 204V214.5L879.5 204V214.5L890 204V214.5L900.5 204" stroke="#404040" stroke-width="2"/>
<path d="M901 204V214.5L911.5 204V214.5L922 204V214.5L932.5 204V214.5L943 204V214.5L953.5 204" stroke="#404040" stroke-width="2"/>
<path d="M954 204V214.5L964.5 204V214.5L975 204V214.5L985.5 204V214.5L996 204V214.5L1006.5 204" stroke="#404040" stroke-width="2"/>
<path d="M1007 204V214.5L1017.5 204V214.5L1028 204V214.5L1038.5 204V214.5L1049 204V214.5L1059.5 204" stroke="#404040" stroke-width="2"/>
<path d="M1060 204V214.5L1070.5 204V214.5L1081 204V214.5L1091.5 204V214.5" stroke="#404040" stroke-width="2"/>
</svg>
