<svg width="82" height="85" viewBox="0 0 82 85" fill="none" xmlns="http://www.w3.org/2000/svg">
<path fill-rule="evenodd" clip-rule="evenodd" d="M81.3826 33.0558C79.5278 22.5364 73.6876 13.369 64.9376 7.24247C56.1876 1.11574 45.5758 -1.23676 35.0563 0.617931C24.537 2.47262 15.3697 8.31295 9.24296 17.0628C3.11623 25.8125 0.873115 37.5082 2.72781 48.0276L5.08482 46.509C4.32295 42.1877 4.31857 37.85 5.03717 33.6497L7.05889 37.3833C8.00748 39.135 9.96264 40.0794 11.9245 39.7336L12.0886 39.7047L12.7036 40.5338C13.6775 41.8468 15.1734 42.6213 16.808 42.6586L22.6256 42.7916C22.9067 42.7982 23.177 42.8866 23.4072 43.0479L23.7894 43.3155C24.3403 43.7014 24.9667 43.9346 25.6175 44.0041L24.9096 47.6364L27.4667 48.0276L28.1961 43.7057L32.8586 42.8835C34.2861 42.6318 35.7261 42.9511 36.9135 43.7824L41.5452 47.0257C42.404 47.6269 43.4449 47.8577 44.4772 47.6757L45.0702 47.5711C45.7947 47.4433 46.526 47.6055 47.1288 48.0276L47.8127 48.5065C48.6008 49.0585 49.0485 49.9976 48.9807 50.9572L48.7441 54.3091C48.7302 54.5073 48.5838 54.6696 48.3883 54.7041L47.5615 54.8499C46.3147 55.0696 45.3522 56.0588 45.1666 57.311C45.1635 57.3327 45.1608 57.3544 45.1588 57.3763L44.8379 60.7574C44.7752 61.4168 44.4771 62.032 43.9982 62.4893L41.5958 64.7843C41.2933 65.0734 41.1552 65.4949 41.2279 65.9071L42.0985 70.8451C42.1213 70.9742 42.0758 71.0715 42.0336 71.1303L42.1666 73.7587C42.9388 73.6395 43.6147 73.2238 44.0696 72.5885C44.5244 71.9532 44.7004 71.1796 44.5646 70.4101L43.8102 66.1321L45.7279 64.3001C46.6421 63.4268 47.2113 62.2526 47.3308 60.9937L47.6476 57.6562C47.6822 57.4824 47.8199 57.3471 47.9958 57.316L48.8227 57.1702C50.1521 56.9358 51.1469 55.8316 51.2419 54.4851L51.4785 51.133C51.6077 49.3007 50.7533 47.5079 49.2488 46.4543L48.5649 45.9754C47.4141 45.1696 46.0186 44.86 44.6347 45.1041L44.0419 45.2085C43.6691 45.2746 43.2919 45.191 42.9813 44.9733L38.3496 41.73C36.6141 40.515 34.5093 40.0485 32.4233 40.4161L26.2856 41.4983C25.9127 41.5643 25.5358 41.4807 25.2252 41.2632L24.843 40.9955C24.2063 40.5497 23.4591 40.3046 22.682 40.2869L21.6158 40.2625L21.4895 39.5463C21.2258 38.0502 22.2283 36.6185 23.7242 36.3546L27.4667 34.9835L35.888 21.8436C35.9004 21.8298 35.9172 21.8206 35.9357 21.8173L37.9197 21.4673C38.8618 21.3014 39.6319 20.6334 39.9297 19.7245L40.1836 18.9492C40.6018 17.6727 39.9883 16.3061 38.7566 15.7703L35.4413 14.3281L39.1969 12.6531C39.7218 12.4192 40.0199 11.8578 39.9202 11.2922L39.6279 9.63342C39.57 9.30638 39.3849 9.01545 39.1129 8.82498C38.8407 8.63451 38.5041 8.55982 38.1771 8.61763L28.6255 10.3019C28.4908 10.3256 28.3608 10.3711 28.241 10.4372L23.5888 12.9875L23.4988 12.4773C23.441 12.1503 23.2558 11.8595 22.9838 11.669C22.7117 11.4786 22.3749 11.4039 22.048 11.4615L20.4527 11.743C18.7177 12.0489 17.2058 13.012 16.1953 14.455L15.4986 15.4501C15.4935 15.4574 15.4785 15.4785 15.4447 15.4845C15.411 15.4907 15.3896 15.4758 15.3822 15.4706L14.3134 14.7222C19.8641 8.61748 27.2324 4.5395 35.4907 3.08325C37.6899 2.69559 39.8921 2.50403 42.0796 2.50403C48.1168 2.50403 54.0323 3.96575 59.3985 6.79122L58.2685 8.3531C58.2646 8.35841 58.261 8.36357 58.2571 8.36919C57.8073 9.0117 57.6344 9.79076 57.7707 10.5634L58.2637 13.3581C58.3755 13.9923 58.2337 14.6319 57.8643 15.1595C57.6577 15.4545 57.3834 15.7026 57.0691 15.8792L54.5688 17.0319C52.9516 17.7773 52.0382 19.523 52.3472 21.2766L52.6855 23.195C52.8455 24.1017 53.3087 24.8784 53.9496 25.4458C53.2855 26.14 52.809 27.0175 52.6019 28.0081L51.9894 30.9394C51.7551 32.0611 51.7371 33.2021 51.936 34.3305C52.4235 37.0953 54.2096 39.5033 56.714 40.7722L56.9369 40.8852C58.6562 41.7563 60.6488 42.0516 62.5468 41.7171L62.6452 41.6997C63.3702 41.5719 64.101 41.7341 64.7038 42.1561C65.3066 42.578 65.709 43.2099 65.8367 43.9344L66.6156 48.3518C66.8979 49.953 67.4924 51.4549 68.3827 52.8154L71.2906 57.2591C71.9598 58.2818 72.9512 59.0235 74.0773 59.3927C73.6449 60.1065 73.1892 60.8098 72.7059 61.4996C66.9632 69.7023 58.3701 75.1767 48.5096 76.9154C46.3104 77.3031 42.7334 77.8183 40.5459 77.8182L38.3496 80C40.6825 80 46.5991 79.7953 48.9444 79.3818C59.4638 77.5271 68.6312 71.6868 74.7578 62.9368C80.8843 54.1868 83.2373 43.575 81.3826 33.0558ZM74.0089 22.2333L74.9387 22.0694C74.6051 21.4552 74.2532 20.8514 73.8853 20.2572L72.3417 20.5294C71.3387 20.7064 70.2926 20.6463 69.3162 20.3559L68.2353 20.0344L65.6849 19.9931L63.3054 20.4127L62.6041 23.1055C62.5913 23.155 62.5762 23.2036 62.5609 23.252L62.5544 23.2725L62.5482 23.292C63.3143 23.3808 64.0698 23.5641 64.7965 23.8423L67.6287 24.9275C68.6176 25.3063 69.7517 25.0784 70.5174 24.3469L71.289 23.6098C72.0424 22.8903 72.9828 22.4141 74.0089 22.2333ZM60.2379 10.1289L60.7309 12.9234C60.9587 14.2166 60.6695 15.5208 59.9163 16.5967C59.4812 17.2184 58.898 17.7381 58.2305 18.0997C58.207 18.1125 58.1829 18.1245 58.1585 18.1358L55.6177 19.307C55.0327 19.5767 54.7023 20.2081 54.8141 20.8425L55.1524 22.7609C55.2882 23.5317 56.0262 24.0481 56.7966 23.9122L56.8374 23.905L59.0541 23.5141C59.5991 23.418 60.0415 23.0098 60.1809 22.4742L61.0849 19.0036C61.2085 18.5295 61.5971 18.1711 62.0795 18.0861L65.8132 17.4277C66.8163 17.2508 67.8626 17.3109 68.8388 17.6012L70.0306 17.9558C70.6362 18.1359 71.2849 18.173 71.9071 18.0634L72.359 17.9836C70.6129 15.5798 68.5732 13.3797 66.2673 11.4281C66.061 11.2837 65.5548 10.911 64.9452 10.4617C64.9046 10.4317 64.8633 10.4013 64.8218 10.3707C63.5916 9.46388 62.0087 8.29697 61.5884 8.03873L60.3057 9.81139C60.2423 9.90482 60.2182 10.0173 60.2379 10.1289ZM12.6855 16.6403C12.2056 17.2439 11.7405 17.8623 11.2945 18.4994C8.81873 22.0353 7.00201 25.8963 5.87326 29.9347L9.26108 36.1913C9.69561 36.9935 10.5912 37.426 11.4895 37.2677L12.4159 37.1044C12.8826 37.0221 13.3567 37.2105 13.6392 37.5916L14.7152 39.0422C15.2252 39.7299 16.0087 40.1355 16.8648 40.1552L19.0625 40.2055L19.0233 39.9825C18.5197 37.1264 20.4336 34.3933 23.2897 33.8896L25.437 33.5108L33.8014 20.4591C33.8107 20.4448 33.82 20.4306 33.8299 20.4167C34.2264 19.8505 34.8197 19.4723 35.5007 19.3523L37.4847 19.0025C37.5152 18.9972 37.54 18.9756 37.5497 18.9462L37.8036 18.1711C37.8171 18.13 37.7972 18.0859 37.7575 18.0686L34.1957 16.5191C33.3155 16.1361 32.7658 15.302 32.7614 14.3419C32.7569 13.382 33.2989 12.5428 34.1757 12.1517L35.2285 11.682L29.2638 12.7337L24.0481 15.5931L24.1242 16.0245C24.2444 16.7056 23.7895 17.3551 23.1085 17.4751C23.035 17.4883 22.9617 17.4944 22.8895 17.4944C22.2933 17.4944 21.765 17.067 21.6578 16.4594L21.25 14.1465L20.8881 14.2103C19.812 14.4 18.8741 14.9973 18.2475 15.8925L17.5508 16.8876C17.1544 17.4537 16.5611 17.8319 15.8803 17.9519C15.1995 18.0722 14.5127 17.9197 13.9462 17.5231L12.6855 16.6403ZM73.3871 55.8885C73.8346 56.5726 74.5553 57.0193 75.3479 57.1276C79.0879 49.8827 80.3561 41.6574 78.9161 33.491C78.3557 30.3136 77.4054 27.2689 76.1031 24.4075L74.444 24.7C73.9068 24.7948 73.414 25.0441 73.0195 25.4211L72.2479 26.1581C70.7857 27.5549 68.621 27.9897 66.7331 27.2663L63.9009 26.1813C62.7563 25.7428 61.514 25.6234 60.3071 25.8363L57.272 26.3714C56.1563 26.5684 55.2857 27.412 55.054 28.5211L54.4415 31.4525C54.2726 32.2608 54.2596 33.0831 54.403 33.8964C54.7543 35.8889 56.0416 37.6244 57.8465 38.5389L58.0694 38.6518C59.3087 39.2796 60.7446 39.4924 62.1124 39.2513L62.2109 39.2339C63.5946 38.9899 64.9901 39.2994 66.1409 40.1052C67.2916 40.911 68.0599 42.1168 68.3038 43.5002L69.0828 47.9176C69.306 49.1829 69.7759 50.3696 70.4793 51.4447L73.3871 55.8885Z" fill="#404040"/>
<path d="M0.939332 58.3939C0.353546 57.8081 0.353546 56.8584 0.939332 56.2726L10.4853 46.7267C11.0711 46.1409 12.0208 46.1409 12.6066 46.7267C13.1924 47.3124 13.1924 48.2622 12.6066 48.848L4.12131 57.3333L12.6066 65.8185C13.1924 66.4043 13.1924 67.3541 12.6066 67.9399C12.0208 68.5256 11.0711 68.5256 10.4853 67.9399L0.939332 58.3939ZM36 58.8333L1.99999 58.8333L1.99999 55.8333L36 55.8333L36 58.8333Z" fill="#278079"/>
<path d="M37.0607 72.2726C37.6465 72.8584 37.6465 73.8081 37.0607 74.3939L27.5147 83.9399C26.9289 84.5256 25.9792 84.5256 25.3934 83.9399C24.8076 83.3541 24.8076 82.4043 25.3934 81.8185L33.8787 73.3333L25.3934 64.848C24.8076 64.2622 24.8076 63.3124 25.3934 62.7267C25.9792 62.1409 26.9289 62.1409 27.5147 62.7267L37.0607 72.2726ZM2 71.8333L36 71.8333L36 74.8333L2 74.8333L2 71.8333Z" fill="#278079"/>
</svg>
