<svg width="65" height="82" viewBox="0 0 65 82" fill="none" xmlns="http://www.w3.org/2000/svg">
<rect x="1.5" y="13.3246" width="49.6316" height="67.1754" stroke="#404040" stroke-width="3"/>
<path d="M5.61328 7.61401H57.5431V75.6842" stroke="#278079" stroke-width="3" stroke-linecap="round"/>
<path d="M11.2285 2H63.1583V70.0702" stroke="#404040" stroke-width="3" stroke-linecap="round"/>
<path d="M16.2861 30.7545C16.2861 30.4036 16.1608 30.1302 15.9102 29.9342C15.6641 29.7382 15.2288 29.5354 14.6045 29.3258C13.9801 29.1162 13.4697 28.9134 13.0732 28.7174C11.7835 28.0839 11.1387 27.2135 11.1387 26.1061C11.1387 25.5546 11.2982 25.0693 11.6172 24.65C11.9408 24.2262 12.3965 23.8981 12.9844 23.6656C13.5723 23.4287 14.2331 23.3102 14.9668 23.3102C15.6823 23.3102 16.3226 23.4378 16.8877 23.693C17.4574 23.9482 17.8994 24.3128 18.2139 24.7867C18.5283 25.2561 18.6855 25.7939 18.6855 26.4H16.293C16.293 25.9944 16.1676 25.68 15.917 25.4567C15.6709 25.2334 15.3359 25.1217 14.9121 25.1217C14.4837 25.1217 14.1442 25.2174 13.8936 25.4088C13.6475 25.5957 13.5244 25.8349 13.5244 26.1266C13.5244 26.3818 13.6611 26.6142 13.9346 26.8239C14.208 27.0289 14.6888 27.2431 15.377 27.4664C16.0651 27.6852 16.6302 27.9222 17.0723 28.1774C18.1478 28.7972 18.6855 29.6517 18.6855 30.7408C18.6855 31.6113 18.3574 32.2949 17.7012 32.7916C17.0449 33.2884 16.1449 33.5367 15.001 33.5367C14.1943 33.5367 13.4629 33.3932 12.8066 33.1061C12.1549 32.8144 11.6628 32.4179 11.3301 31.9166C11.002 31.4108 10.8379 30.8297 10.8379 30.1735H13.2441C13.2441 30.7067 13.3809 31.1009 13.6543 31.3561C13.9323 31.6067 14.3812 31.7321 15.001 31.7321C15.3975 31.7321 15.7096 31.6477 15.9375 31.4791C16.1699 31.3059 16.2861 31.0644 16.2861 30.7545ZM28.3447 28.6285C28.3447 29.5992 28.1647 30.4583 27.8047 31.2057C27.4447 31.9531 26.932 32.5296 26.2666 32.9352C25.6058 33.3362 24.8516 33.5367 24.0039 33.5367C23.1562 33.5367 22.4043 33.3431 21.748 32.9557C21.0918 32.5638 20.5791 32.0055 20.21 31.2809C19.8454 30.5563 19.654 29.7246 19.6357 28.7858V28.2252C19.6357 27.25 19.8135 26.3909 20.1689 25.6481C20.529 24.9007 21.0417 24.3242 21.707 23.9186C22.377 23.513 23.138 23.3102 23.9902 23.3102C24.8333 23.3102 25.5853 23.5107 26.2461 23.9117C26.9069 24.3128 27.4196 24.8847 27.7842 25.6276C28.1533 26.3658 28.3402 27.2135 28.3447 28.1705V28.6285ZM25.9043 28.2115C25.9043 27.2226 25.738 26.4729 25.4053 25.9625C25.0771 25.4476 24.6055 25.1901 23.9902 25.1901C22.7871 25.1901 22.1514 26.0924 22.083 27.8971L22.0762 28.6285C22.0762 29.6038 22.238 30.3535 22.5615 30.8776C22.8851 31.4017 23.3659 31.6637 24.0039 31.6637C24.61 31.6637 25.0771 31.4062 25.4053 30.8912C25.7334 30.3763 25.8997 29.6357 25.9043 28.6696V28.2115ZM31.9814 30.0231V33.4H29.582V23.4469H33.5537C34.3148 23.4469 34.987 23.5882 35.5703 23.8707C36.1582 24.1487 36.6117 24.5475 36.9307 25.067C37.2542 25.582 37.416 26.1676 37.416 26.8239C37.416 27.7946 37.0674 28.5716 36.3701 29.1549C35.6774 29.7337 34.7249 30.0231 33.5127 30.0231H31.9814ZM31.9814 28.1705H33.5537C34.0186 28.1705 34.3717 28.0543 34.6133 27.8219C34.8594 27.5895 34.9824 27.2614 34.9824 26.8375C34.9824 26.3727 34.8571 26.0013 34.6064 25.7233C34.3558 25.4453 34.014 25.304 33.5811 25.2994H31.9814V28.1705Z" fill="#404040"/>
<path d="M41.873 32.2188C41.873 32.0508 41.7852 31.916 41.6094 31.8145C41.4336 31.7129 41.0996 31.6074 40.6074 31.498C40.1152 31.3887 39.709 31.2461 39.3887 31.0703C39.0684 30.8906 38.8242 30.6738 38.6562 30.4199C38.4883 30.166 38.4043 29.875 38.4043 29.5469C38.4043 28.9648 38.6445 28.4863 39.125 28.1113C39.6055 27.7324 40.2344 27.543 41.0117 27.543C41.8477 27.543 42.5195 27.7324 43.0273 28.1113C43.5352 28.4902 43.7891 28.9883 43.7891 29.6055H41.8086C41.8086 29.0977 41.541 28.8438 41.0059 28.8438C40.7988 28.8438 40.625 28.9023 40.4844 29.0195C40.3438 29.1328 40.2734 29.2754 40.2734 29.4473C40.2734 29.623 40.3594 29.7656 40.5312 29.875C40.7031 29.9844 40.9766 30.0742 41.3516 30.1445C41.7305 30.2148 42.0625 30.2988 42.3477 30.3965C43.3008 30.7246 43.7773 31.3125 43.7773 32.1602C43.7773 32.7383 43.5195 33.209 43.0039 33.5723C42.4922 33.9355 41.8281 34.1172 41.0117 34.1172C40.4688 34.1172 39.9844 34.0195 39.5586 33.8242C39.1328 33.6289 38.8008 33.3633 38.5625 33.0273C38.3242 32.6914 38.2051 32.3379 38.2051 31.9668H40.0508C40.0586 32.2598 40.1562 32.4746 40.3438 32.6113C40.5312 32.7441 40.7715 32.8105 41.0645 32.8105C41.334 32.8105 41.5352 32.7559 41.668 32.6465C41.8047 32.5371 41.873 32.3945 41.873 32.2188Z" fill="#404040"/>
<line x1="7.71875" y1="42.9035" x2="44.9117" y2="42.9035" stroke="#404040"/>
<line x1="7.71875" y1="39.3947" x2="44.9117" y2="39.3947" stroke="#404040"/>
<line x1="7.71875" y1="49.921" x2="44.9117" y2="49.921" stroke="#404040"/>
<line x1="7.71875" y1="46.4123" x2="44.9117" y2="46.4123" stroke="#404040"/>
<line x1="7.71875" y1="56.9386" x2="44.9117" y2="56.9386" stroke="#404040"/>
<line x1="7.71875" y1="53.4298" x2="44.9117" y2="53.4298" stroke="#404040"/>
<line x1="7.71875" y1="63.9562" x2="44.9117" y2="63.9562" stroke="#404040"/>
<line x1="7.71875" y1="60.4474" x2="44.9117" y2="60.4474" stroke="#404040"/>
</svg>
