<svg width="95" height="80" viewBox="0 0 95 80" fill="none" xmlns="http://www.w3.org/2000/svg">
<path fill-rule="evenodd" clip-rule="evenodd" d="M88.5672 16.488C89.7886 15.0602 90.5288 13.2082 90.5288 11.1856C90.5288 6.68291 86.8688 3.0198 82.3702 3.0198C77.8714 3.0198 74.2116 6.68291 74.2116 11.1856C74.2116 14.2293 75.885 16.8874 78.3582 18.2918L68.0082 25.4999H63.875V25.1674C63.875 19.1818 59.6221 14.1722 53.9823 13.006C54.9496 11.6573 55.5215 10.0062 55.5215 8.22294C55.5215 3.68881 51.8361 0 47.306 0C42.7759 0 39.0905 3.68881 39.0905 8.22294C39.0905 9.99933 39.658 11.6445 40.6185 12.9903C34.9378 14.1245 30.6432 19.1528 30.6432 25.1674V25.4999H26.6038L16.2539 18.2918C18.727 16.8874 20.4004 14.2293 20.4004 11.1856C20.4004 6.68291 16.7405 3.0198 12.2418 3.0198C7.74317 3.0198 4.08319 6.68291 4.08319 11.1856C4.08319 13.2084 4.82336 15.0602 6.04477 16.488C2.49124 18.0376 0 21.5854 0 25.706V27.1419L0 43.7748V51.3842C0 54.9547 2.90244 57.8596 6.47001 57.8596H13.568V73.9011C13.568 77.2639 16.3015 79.9998 19.6618 79.9998C20.7109 79.9998 21.6987 79.7331 22.5616 79.2639C22.8987 79.6228 23.3762 79.8483 23.9074 79.8483H31.2913C32.3118 79.8483 33.1394 79.0209 33.1394 78.0002V62.8295L35.6129 75.245C35.6151 75.2556 35.6171 75.2659 35.6195 75.2764C35.9683 76.8813 36.974 78.2883 38.3793 79.1367C39.3193 79.7043 40.3973 79.9972 41.4812 79.9972C42.0158 79.9972 42.552 79.9259 43.0737 79.7814C45.2043 79.1907 46.7689 77.4825 47.2836 75.4526C47.7987 77.4855 49.3624 79.1913 51.4912 79.7814C52.0129 79.9261 52.5492 79.9972 53.0837 79.9972C54.1678 79.9972 55.246 79.7043 56.1859 79.1366C57.591 78.2881 58.5968 76.8811 58.9455 75.2764C58.9477 75.2659 58.9498 75.2556 58.952 75.2452L61.3785 63.0653V78.0004C61.3785 79.0211 62.2061 79.8484 63.2266 79.8484H70.6105C71.1591 79.8484 71.6501 79.6082 71.9887 79.2288C72.8661 79.7193 73.8758 80 74.9503 80C78.3105 80 81.044 77.2641 81.044 73.9013V57.8598H88.142C91.7096 57.8598 94.612 54.9549 94.612 51.3844V25.706C94.6118 21.5854 92.1206 18.0376 88.5672 16.488ZM3.6962 25.706V27.1419V43.7748V43.9988H14.0801V30.8213C14.0801 30.1327 14.4629 29.5012 15.0735 29.1828C15.6839 28.8645 16.4209 28.9117 16.9857 29.3057L23.1558 33.6103H33.0374C34.2518 33.6103 35.2398 32.6203 35.2398 31.4033C35.2398 30.1861 34.2518 29.1961 33.0374 29.1961H26.0235C25.6457 29.1961 25.2772 29.0804 24.9673 28.8645L12.3741 20.094C12.359 20.0842 12.3438 20.0741 12.3289 20.0637C11.6543 19.5978 10.8631 19.3515 10.0413 19.3515C6.54246 19.3515 3.6962 22.2022 3.6962 25.706ZM21.5174 36.9742C21.7673 37.1485 22.0554 37.2564 22.3557 37.2923C22.1646 37.8478 22.0593 38.4429 22.0593 39.0624V45.5387C20.8268 44.6797 19.3605 44.1361 17.7763 44.0234V34.3641L21.5174 36.9742ZM17.2642 73.9013C17.2642 75.226 18.3398 76.3038 19.6618 76.3038C20.9837 76.3038 22.0593 75.226 22.0593 73.9013V52.6014C22.0593 49.8961 19.8619 47.6952 17.1611 47.6952L3.6962 47.7063V51.3844C3.6962 52.9168 4.94071 54.1636 6.47001 54.1636H15.4161C16.4366 54.1636 17.2642 54.991 17.2642 56.0117V73.9013ZM12.2416 6.716C14.7022 6.716 16.7041 8.72118 16.7041 11.1856C16.7041 13.6503 14.7022 15.6554 12.2416 15.6554C9.78125 15.6554 7.77921 13.6503 7.77921 11.1856C7.77939 8.72118 9.78125 6.716 12.2416 6.716ZM65.0747 76.1521H68.7624L68.7626 39.0624C68.7626 38.0943 67.9768 37.3067 67.011 37.3067H27.5073C26.5413 37.3067 25.7555 38.0943 25.7555 39.0624V76.1523H29.4432V44.9408C29.4432 43.9201 30.2708 43.0927 31.2913 43.0927H63.2266C64.2472 43.0927 65.0747 43.9201 65.0747 44.9408V76.1521ZM34.3394 25.6466V25.1674C34.3394 20.3583 38.2464 16.4457 43.0489 16.4457H51.4692C56.2717 16.4457 60.1789 20.3581 60.1789 25.1674V25.6683C58.818 26.0002 57.6404 26.8048 56.8313 27.8991V26.0728C56.8313 25.0521 56.0037 24.2247 54.9832 24.2247C53.9627 24.2247 53.1351 25.0521 53.1351 26.0728V33.6103H41.4773V26.0728C41.4773 25.0521 40.6497 24.2247 39.6292 24.2247C38.6087 24.2247 37.7811 25.0521 37.7811 26.0728V27.8991C36.9531 26.7799 35.7399 25.9638 34.3394 25.6466ZM69.6447 28.8645C69.3348 29.0804 68.9663 29.1961 68.5885 29.1961L61.5744 29.1959C60.3601 29.1959 59.3721 30.1861 59.3721 31.4031C59.3721 32.6201 60.3601 33.6101 61.5744 33.6101H71.456L77.6261 29.3055C78.1909 28.9115 78.9275 28.8642 79.5383 29.1826C80.149 29.501 80.5317 30.1325 80.5317 30.8211V43.9986H90.9158V25.7058C90.9158 22.2018 88.0695 19.3513 84.5707 19.3513C83.7489 19.3513 82.9577 19.5976 82.2831 20.0635C82.279 20.0665 82.2748 20.0694 82.2706 20.0722L82.2617 20.0782C82.2538 20.0835 82.2458 20.0888 82.2377 20.094L69.6447 28.8645ZM72.1655 37.3017C72.4984 37.2786 72.8198 37.166 73.0946 36.9742L76.8355 34.3641V44.0234C75.2108 44.1391 73.7104 44.7081 72.4586 45.6056V39.0624C72.4586 38.4462 72.3546 37.8544 72.1655 37.3017ZM55.3306 74.505L58.6334 57.9267C59.422 53.9686 57.6557 49.8719 54.2382 47.7324L52.7317 46.7891H41.8332L40.3266 47.7324C36.9095 49.8721 35.1431 53.9688 35.9317 57.9268L39.2344 74.505C39.3727 75.1242 39.7469 75.6449 40.2899 75.9726C40.8352 76.3018 41.4736 76.3894 42.0866 76.2193C43.2365 75.9007 43.9571 74.732 43.7272 73.5588L40.5431 56.5755C40.4181 55.9093 40.6678 55.2281 41.194 54.8006L46.1171 50.7998C46.812 50.235 47.7932 50.2585 48.4583 50.808L53.3713 54.8006C53.8973 55.2281 54.1471 55.9093 54.0222 56.5755L50.8409 73.5438C50.608 74.732 51.3286 75.9005 52.4785 76.2193C53.0922 76.3895 53.7304 76.3018 54.2756 75.9724C54.8183 75.6448 55.1926 75.124 55.3306 74.505ZM33.1394 50.74V46.7887H35.7116C34.6251 47.9503 33.7568 49.2912 33.1394 50.74ZM61.3787 46.7889H58.8535C59.9126 47.921 60.7646 49.2238 61.3787 50.6309V46.7889ZM47.2825 72.4644L44.3786 56.9754L47.2825 54.6156L50.1865 56.9754L47.2825 72.4644ZM79.1959 54.1634H88.142C89.6713 54.1634 90.9156 52.9168 90.9156 51.3842V47.7061L77.4507 47.695C74.7499 47.695 72.5525 49.8959 72.5525 52.6012V73.9011C72.5525 75.2258 73.6281 76.3036 74.9503 76.3036C76.2724 76.3036 77.3478 75.2258 77.3478 73.9011V56.0115C77.3478 54.9908 78.1754 54.1634 79.1959 54.1634ZM82.3702 6.716C84.8306 6.716 86.8326 8.72118 86.8326 11.1856C86.8326 13.6503 84.8308 15.6554 82.3702 15.6554C79.9096 15.6554 77.9078 13.6503 77.9078 11.1856C77.9078 8.72118 79.9096 6.716 82.3702 6.716ZM51.8253 8.22312C51.8253 5.72708 49.798 3.69638 47.306 3.69638C44.8138 3.69638 42.7867 5.72708 42.7865 8.22312C42.7865 10.7179 44.812 12.7478 47.3023 12.7497H47.3095C49.8 12.7478 51.8253 10.7181 51.8253 8.22312Z" fill="#404040"/>
</svg>
