<svg width="102" height="78" viewBox="0 0 102 78" fill="none" xmlns="http://www.w3.org/2000/svg">
<path d="M100.532 22.1273L81.1374 2.11784C80.5137 1.47424 79.5026 1.47424 78.8786 2.11784L69.1814 12.1225C68.8819 12.4314 68.7138 12.8505 68.7138 13.2876C68.7138 13.7246 68.8819 14.1437 69.1814 14.4526L70.1487 15.4507L67.9257 17.7438C66.4825 19.2321 64.2433 19.6383 62.3538 18.7535C60.5824 17.9239 58.613 17.4857 56.6584 17.4857C54.3375 17.4857 52.0693 18.0868 50.0541 19.2252C49.2137 19.0116 48.3512 18.9022 47.4801 18.9022C46.2203 18.9022 44.983 19.1265 43.8025 19.5692C41.9176 20.2757 39.8971 19.8378 38.5285 18.4263L34.5369 14.308L35.0123 13.8175C35.3117 13.5086 35.4799 13.0895 35.4799 12.6524C35.4799 12.2154 35.3117 11.7962 35.0123 11.4873L25.3151 1.4827C24.6911 0.8391 23.6801 0.8391 23.0563 1.4827L1.46772 23.7556C0.844092 24.3992 0.844092 25.4424 1.46772 26.0858L11.1648 36.0904C11.4644 36.3995 11.8704 36.573 12.2942 36.573C12.7181 36.573 13.1239 36.3995 13.4237 36.0904L14.0021 35.4938L16.8173 38.3983C17.5276 39.1311 17.9985 40.0461 18.1788 41.0442C19.1136 46.2194 21.5159 50.9243 25.126 54.6509L25.6563 55.198C24.638 56.3044 24.0778 57.746 24.0778 59.2774C24.0778 60.8614 24.6758 62.3507 25.7614 63.4709C26.8821 64.6271 28.3538 65.205 29.826 65.205C29.9219 65.205 30.0174 65.2024 30.1133 65.1973C30.0356 66.8132 30.5934 68.4557 31.7868 69.6872C32.8725 70.8074 34.316 71.4242 35.8514 71.4242C35.8942 71.4242 35.9367 71.422 35.9795 71.421C35.9467 72.9824 36.5051 74.5547 37.6574 75.7438C38.7432 76.8642 40.1867 77.4808 41.7223 77.4808C43.2576 77.4808 44.701 76.8638 45.7869 75.7438C45.8783 75.6495 45.9644 75.552 46.0486 75.4532C46.6141 75.6566 47.2121 75.7648 47.8166 75.7648C49.2527 75.7648 50.6019 75.1875 51.6136 74.1403C52.1521 73.5849 52.5607 72.9316 52.8267 72.2201L52.9902 72.3888C54.0369 73.4686 55.4117 74.0087 56.7865 74.0087C58.1613 74.0087 59.5361 73.4686 60.5828 72.3888C61.139 71.8149 61.557 71.1373 61.8218 70.3983C62.7587 71.1014 63.8679 71.4534 64.9777 71.4534C66.3525 71.4534 67.728 70.9136 68.7757 69.8341C69.7896 68.7881 70.348 67.3966 70.348 65.9159C70.348 65.4686 70.296 65.0299 70.197 64.6057C71.2198 64.3913 72.1597 63.8733 72.9138 63.0943C73.9276 62.0483 74.486 60.6573 74.486 59.1776C74.486 58.012 74.138 56.9023 73.4952 55.9717L74.7765 54.6499C78.4286 50.8802 80.8413 46.1162 81.754 40.8729C81.9069 39.995 82.3284 39.1795 82.9733 38.5139L87.7385 33.5976L88.5762 34.4619C88.8881 34.7837 89.2969 34.9445 89.7057 34.9445C90.1143 34.9445 90.5233 34.7837 90.8352 34.4619L100.532 24.4573C100.832 24.1484 101 23.7292 101 23.2922C101 22.8551 100.831 22.4364 100.532 22.1273ZM12.2942 32.5954L4.8556 24.9209L24.1854 4.97837L31.6243 12.6528L12.2942 32.5954ZM31.6319 61.1411C30.6364 62.1679 29.0163 62.1684 28.02 61.1411C27.5376 60.6432 27.2719 59.9816 27.2719 59.2778C27.2719 58.5741 27.5378 57.9124 28.0202 57.4147C28.518 56.9011 29.1717 56.6442 29.8258 56.6442C30.4797 56.6442 31.134 56.9011 31.6317 57.4147C32.6274 58.442 32.6274 60.1136 31.6319 61.1411ZM37.6569 67.3571C37.1748 67.855 36.5336 68.1288 35.851 68.1288C35.169 68.1288 34.5276 67.8546 34.0453 67.3571C33.0495 66.3298 33.0495 64.6581 34.0453 63.6307C34.5432 63.117 35.1969 62.8601 35.8512 62.8601C36.5049 62.8601 37.1592 63.117 37.6569 63.6307C38.6529 64.6579 38.6529 66.3298 37.6569 67.3571ZM43.5275 73.4136C43.0451 73.9113 42.4039 74.1854 41.7219 74.1854C41.0397 74.1854 40.3983 73.9111 39.916 73.4136C38.9201 72.3864 38.9201 70.7147 39.916 69.6872C40.4139 69.1736 41.0676 68.9167 41.7219 68.9167C42.3756 68.9167 43.0299 69.1736 43.5275 69.6872C44.5234 70.7147 44.5234 72.3864 43.5275 73.4136ZM70.654 60.7649C70.2435 61.1888 69.6976 61.4224 69.1171 61.4224C68.5366 61.4224 67.9907 61.1888 67.5794 60.7639L52.0853 44.7823C51.4611 44.1389 50.4502 44.1391 49.8265 44.7827C49.2031 45.4261 49.2033 46.4695 49.8269 47.1129L66.5165 64.3297C66.9273 64.7532 67.1532 65.3166 67.1532 65.9159C67.1532 66.5164 66.9271 67.0804 66.5171 67.5033C65.6681 68.3785 64.2874 68.3787 63.4398 67.504L60.6242 64.5991C60.6085 64.5824 60.5933 64.5654 60.5771 64.5489C60.5724 64.5441 60.5671 64.5398 60.5622 64.535L47.6195 51.182C46.9955 50.5386 45.9846 50.5386 45.3607 51.182C44.7369 51.8254 44.7369 52.8688 45.3607 53.5122L58.3451 66.9079C58.7419 67.3276 58.9605 67.883 58.9605 68.4722C58.9605 69.0714 58.7341 69.6348 58.3236 70.0584C57.4763 70.9331 56.0968 70.9331 55.2488 70.0584L41.1697 55.5329C40.5457 54.8893 39.5348 54.8893 38.911 55.5329C38.2871 56.1763 38.2871 57.2196 38.911 57.863L49.3472 68.6304C49.3502 68.6334 49.3525 68.6368 49.3556 68.6396C49.766 69.0622 49.9918 69.6246 49.9918 70.2232C49.9918 70.8223 49.7656 71.3857 49.3533 71.8111C48.9433 72.235 48.3976 72.4686 47.8162 72.4686C47.6758 72.4686 47.5385 72.4537 47.4041 72.4275C47.6625 70.6315 47.1236 68.7359 45.7865 67.3562C44.7008 66.2363 43.2572 65.6193 41.7219 65.6193C41.6791 65.6193 41.6365 65.6215 41.5938 65.6225C41.6266 64.0611 41.0684 62.4887 39.9158 61.2997C38.8299 60.1797 37.3865 59.5627 35.851 59.5627C35.7549 59.5627 35.6594 59.5651 35.5641 59.57C35.6408 57.9551 35.083 56.3141 33.8903 55.0833C32.4383 53.5855 30.3973 53.0594 28.5301 53.5021L27.3848 52.3205C24.2325 49.0668 22.1352 44.9586 21.319 40.4399C21.02 38.7849 20.2444 37.2729 19.0763 36.0675L16.2608 33.1628L32.2784 16.6375L36.2701 20.7559C37.8045 22.3389 39.8936 23.186 42.0332 23.186C42.9914 23.186 43.9604 23.0159 44.8937 22.6659C45.3465 22.496 45.8146 22.3741 46.2891 22.2968L36.4 32.4995C35.1901 33.7476 34.5237 35.4071 34.5237 37.1725C34.5237 38.9377 35.1901 40.5973 36.3998 41.8454C37.6487 43.1338 39.2885 43.7778 40.9291 43.7776C42.5693 43.7776 44.2098 43.1332 45.4588 41.8454L50.4256 36.7211L51.7699 38.1091C51.7703 38.1095 51.7705 38.1097 51.7709 38.1101L51.8267 38.1677L51.8804 38.2231C51.8806 38.2233 51.881 38.2237 51.8814 38.224L51.8824 38.225C51.8978 38.2407 51.9129 38.2556 51.9279 38.2705L70.6546 57.5908C71.0653 58.0144 71.2913 58.5778 71.2913 59.177C71.2913 59.7773 71.0653 60.3407 70.654 60.7649ZM80.7139 36.1839C79.6057 37.3275 78.878 38.7477 78.6096 40.2908C77.8128 44.8689 75.7059 49.0287 72.5173 52.3201L71.2899 53.5865L61.1863 43.1626C61.4058 43.1793 61.6263 43.1904 61.8484 43.1904C62.8714 43.1904 63.9183 43.0054 64.9605 42.5655C65.7769 42.221 66.1679 41.2588 65.8339 40.4167C65.4999 39.5746 64.5681 39.171 63.7511 39.5156C59.6406 41.2507 54.7125 36.4689 54.1638 35.9178C54.1547 35.9085 54.1455 35.8994 54.1361 35.8905L54.0795 35.8321C54.0793 35.8319 54.0791 35.8319 54.0789 35.8317L54.0295 35.7809C54.0293 35.7807 54.0289 35.7803 54.0285 35.7801L52.684 34.392L54.2086 32.8188C54.8326 32.1752 54.8326 31.1321 54.2088 30.4885C53.5849 29.8453 52.5738 29.8451 51.9502 30.4885L49.2998 33.2229C49.2988 33.2239 49.2976 33.2249 49.2967 33.2259C49.2957 33.2269 49.2947 33.2281 49.2937 33.2291L43.2 39.516C41.9477 40.8078 39.9106 40.8074 38.6586 39.516C38.0522 38.8903 37.7182 38.0583 37.7182 37.1733C37.7182 36.2883 38.0522 35.4563 38.6588 34.8306L49.1767 23.9789C49.7619 23.3754 50.4123 22.8444 51.1113 22.3997C52.772 21.3406 54.6902 20.7808 56.6584 20.7808C58.1609 20.7808 59.6738 21.1174 61.0339 21.7543C64.1281 23.2027 67.8056 22.5279 70.1845 20.0742L72.4077 17.7809L85.4797 31.2673L80.7139 36.1839ZM89.7051 30.967L72.5692 13.288L80.0081 5.61351L97.144 23.2926L89.7051 30.967Z" fill="#404040"/>
<path d="M23.7929 3.20711L2.72456 24.2754C2.32729 24.6727 2.33517 25.3192 2.74202 25.7067L11.7853 34.3194C12.1815 34.6967 12.8075 34.6856 13.19 34.2943L33.8087 13.207C34.1917 12.8153 34.1882 12.1882 33.8008 11.8008L25.2071 3.20711C24.8166 2.81658 24.1834 2.81658 23.7929 3.20711Z" stroke="#278079" stroke-width="4"/>
<path d="M98.8443 22.3275L80.7245 3.74303C80.3288 3.33719 79.6752 3.34102 79.2843 3.75147L70.673 12.7933C70.2987 13.1864 70.3063 13.8063 70.6901 14.1901L89.2567 32.7567C89.661 33.161 90.3216 33.1445 90.7053 32.7205L98.8698 23.6965C99.2241 23.305 99.2129 22.7055 98.8443 22.3275Z" stroke="#278079" stroke-width="4"/>
</svg>
