<svg width="178" height="268" viewBox="0 0 178 268" fill="none" xmlns="http://www.w3.org/2000/svg">
<path d="M141.04 265.62L140.14 265.554H138.64L136.84 261.037L137.77 261.967L139.06 263.495L141.4 264.723L143.59 265.221L143.35 266.218L142.03 266.317L141.04 265.62Z" fill="#2C2C2C" fill-opacity="0.92" stroke="#404040" stroke-opacity="0.92" stroke-width="0.2" stroke-linecap="round" stroke-linejoin="round"/>
<path d="M131.891 196.874L135.281 200.328L136.661 200.66L138.851 202.255L140.621 203.085L140.951 204.015L139.691 207.269L141.431 207.834L143.321 208.166L144.581 207.834L145.871 206.173L145.961 204.314L146.741 203.882L147.701 205.144L147.821 206.838L146.561 208L145.571 208.863L143.981 210.956L142.181 213.845L142.031 215.572L141.911 217.764L142.271 219.889L142.001 220.354L142.121 221.716L142.211 222.845L144.551 224.672L144.611 226.133L145.781 227.063L145.871 228.092L144.881 230.815L142.781 231.978L139.721 232.41L137.921 232.177L138.551 233.472L138.581 235.033L139.121 236.096L138.371 236.86L136.841 237.159L135.161 236.362L134.711 236.926L135.461 239.018L136.661 239.649L137.351 238.985L138.101 240.081L136.841 240.745L135.971 242.074L136.331 244.166L136.301 245.295H134.861L133.961 246.358L133.991 247.952L135.941 249.48L137.501 249.878L137.561 251.771L136.181 252.933L136.001 255.358L134.951 256.155L134.681 257.118L135.941 259.277L137.321 260.439L136.691 260.339L135.221 260.007L131.591 259.742L130.541 258.546L129.971 257.018L129.041 257.151L128.261 256.387L127.331 254.229L128.141 253.299L128.171 252.004L127.631 250.941L127.841 249.148L127.511 246.391L126.971 245.162L127.511 244.764L127.091 243.967L126.251 243.568L126.491 242.671L125.561 241.874L124.451 239.45L124.961 239.018L123.971 236.428L123.731 234.269L123.671 232.376L124.421 231.612L123.431 229.52L122.951 227.594L123.851 226.199L123.431 224.406L123.911 222.347L123.491 220.387L123.011 219.989L121.541 216.303L122.171 214.111L121.661 212.052L121.931 210.092L122.711 208.1L123.701 206.771L123.101 205.941L123.341 205.243L122.861 201.69L124.541 200.66L124.901 198.435L124.631 197.904L125.831 195.978L128.081 196.509L129.191 198.037L129.671 196.31L131.591 196.41L131.891 196.874Z" fill="#2C2C2C" fill-opacity="0.92" stroke="#404040" stroke-opacity="0.92" stroke-width="0.2" stroke-linecap="round" stroke-linejoin="round"/>
<path d="M86.6506 115.542H86.1406L86.5306 113.151L86.7406 111.457L86.7706 111.125L86.9806 111.026L87.2506 111.291L88.0006 109.996L88.3306 109.963L88.3006 110.295H88.6006L88.5106 110.893L88.1206 111.79L88.2406 112.122L87.9706 112.886L88.0606 113.085L87.7606 114.181L87.3706 114.745L87.0406 114.812L86.6506 115.542Z" fill="#2C2C2C" fill-opacity="0.92" stroke="#404040" stroke-opacity="0.92" stroke-width="0.2" stroke-linecap="round" stroke-linejoin="round"/>
<path d="M139.062 192.457L138.972 191.793L137.352 190.697L135.792 190.664L132.912 191.295L132.282 193.155L132.342 194.317L131.892 196.874L131.592 196.409L129.672 196.31L129.192 198.037L128.082 196.509L125.832 195.978L124.632 197.904L123.462 198.203L122.532 195.247L121.422 192.856L121.752 190.797L120.792 189.9L120.432 188.373L119.472 186.911L120.342 184.62L119.472 182.826L119.802 182.096L119.442 181.299L120.012 180.236L119.922 178.443V176.915L120.252 176.218L118.602 172.764L119.862 172.963L120.732 172.897L121.062 172.266L122.502 171.402L123.372 170.605L125.562 170.24L125.442 171.834L125.712 172.664L125.622 174.092L127.572 175.985L129.492 176.35L130.182 177.147L131.352 177.579L132.102 178.177H133.152L134.172 178.808L134.322 180.037L134.682 180.668L134.772 181.564L134.262 181.598L135.102 184.088L138.312 184.188L138.162 185.417L138.402 186.247L139.362 186.845L139.872 188.173L139.692 189.867L139.302 190.797L139.542 191.993L139.062 192.457Z" fill="#2C2C2C" fill-opacity="0.92" stroke="#404040" stroke-opacity="0.92" stroke-width="0.2" stroke-linecap="round" stroke-linejoin="round"/>
<path d="M140.051 145.365L140.981 145.565L141.161 145.1L140.861 144.701L141.041 144.07L141.731 144.269L142.541 144.037L143.501 144.502L144.251 144.934L144.761 144.369L145.151 144.435L145.391 145.033L146.201 144.9L146.861 144.07L147.401 142.509L148.421 140.55L149.021 140.45L149.411 141.646L150.311 145.365L151.241 145.731L151.271 147.192L149.981 148.952L150.491 149.583L153.521 149.915L153.581 152.074L154.871 150.679L157.001 151.443L159.851 152.738L160.691 153.967L160.421 155.162L162.401 154.498L165.701 155.627L168.251 155.561L170.771 157.321L172.991 159.712L174.311 160.31L175.751 160.41L176.381 161.074L176.981 163.797L177.311 165.092L176.681 168.613L175.871 170.007L173.561 172.963L172.541 175.387L171.341 177.214L170.921 177.28L170.531 178.841L170.801 182.827L170.471 186.114L170.381 187.509L169.901 188.373L169.751 191.229L168.191 193.985L168.041 196.21L166.751 197.107L166.421 198.402H164.621L162.071 199.199L160.961 200.162L159.161 200.793L157.331 202.487L156.101 204.613L156.011 206.207L156.401 207.369L156.311 209.528L156.071 210.557L155.051 211.753L153.701 215.505L152.501 217.166L151.541 218.196L151.091 220.221L150.221 221.417L149.591 220.221L150.131 219.192L148.991 217.764L147.551 216.568L145.661 215.207L145.091 215.273L143.201 213.613L142.181 213.845L143.981 210.956L145.571 208.863L146.561 208L147.821 206.838L147.701 205.144L146.741 203.882L145.961 204.314L146.171 203.085L146.261 201.823L146.171 200.627L145.541 200.262L144.941 200.594L144.311 200.494L144.071 199.697L143.741 197.738L143.381 197.107L142.211 196.509L141.551 196.941L139.781 196.509L139.661 193.62L139.061 192.458L139.541 191.993L139.301 190.797L139.691 189.867L139.871 188.173L139.361 186.845L138.401 186.247L138.161 185.417L138.311 184.188L135.101 184.089L134.261 181.598L134.771 181.565L134.681 180.668L134.321 180.037L134.171 178.808L133.151 178.177H132.101L131.351 177.579L130.181 177.148L129.491 176.351L127.571 175.985L125.621 174.092L125.711 172.664L125.441 171.834L125.561 170.24L123.371 170.605L122.501 171.402L121.061 172.266L120.731 172.897L119.861 172.963L118.601 172.764L117.641 173.129L116.861 172.897L116.831 169.675L115.511 170.904L114.011 170.871L113.321 169.708L112.181 169.609L112.481 168.679L111.491 167.384L110.711 165.458L111.161 165.092L111.101 164.162L112.121 163.565L111.911 162.402L112.331 161.672L112.421 160.675L114.311 159.214L115.691 158.815L115.931 158.483L117.461 158.583L118.121 152.738L118.151 151.808L117.881 150.613L117.101 149.815L117.131 148.255L118.091 147.922L118.421 148.155L118.481 147.325L117.491 147.092V145.764L120.791 145.83L121.361 145.066L121.841 145.764L122.141 147.026L122.471 146.76L123.401 147.889L124.721 147.756L125.051 147.092L126.311 146.594L127.031 146.229L127.241 145.332L128.471 144.734L128.381 144.269L126.941 144.103L126.731 142.742L126.821 141.314L126.071 140.782L126.401 140.583L127.631 140.849L128.981 141.38L129.491 140.882L130.721 140.55L132.641 139.753L133.271 138.923L133.061 138.325L133.961 138.258L134.321 138.723L134.081 139.686L134.681 139.985L135.041 140.982L134.561 141.745L134.261 143.539L134.681 144.635L134.771 145.631L135.821 146.627L136.661 146.727L136.841 146.295L137.381 146.196L138.161 145.83L138.701 145.266L139.661 145.465L140.051 145.365Z" fill="#2C2C2C" fill-opacity="0.92" stroke="#404040" stroke-opacity="0.92" stroke-width="0.2" stroke-linecap="round" stroke-linejoin="round"/>
<path d="M140.08 50.3836L141.1 50.6825L142.51 50.6161L141.52 51.4796L140.92 51.6124L139.27 50.7157L139.09 50.0183L139.84 49.3873L140.08 50.3836Z" fill="#2C2C2C" fill-opacity="0.92" stroke="#404040" stroke-opacity="0.92" stroke-width="0.2" stroke-linecap="round" stroke-linejoin="round"/>
<path d="M144.401 45.07L143.681 45.1032L141.941 44.4722L140.891 43.4759L141.461 43.3098L143.231 43.8412L144.491 44.7046L144.401 45.07Z" fill="#2C2C2C" fill-opacity="0.92" stroke="#404040" stroke-opacity="0.92" stroke-width="0.2" stroke-linecap="round" stroke-linejoin="round"/>
<path d="M52.0306 46.2987L51.1006 46.5976L49.2106 45.6677V44.9371L48.3406 44.2065L48.4306 43.6087L47.1406 43.2434L47.3206 42.1142L47.7706 41.6493L49.0006 42.081L49.7206 42.4131L50.9506 42.6124L51.0106 43.343L51.1306 44.3061L52.0906 45.1696L52.0306 46.2987Z" fill="#2C2C2C" fill-opacity="0.92" stroke="#404040" stroke-opacity="0.92" stroke-width="0.2" stroke-linecap="round" stroke-linejoin="round"/>
<path d="M45.7595 34.7084L46.2095 34.9741L47.7095 34.808L45.5495 37.0995L45.6395 38.76H45.0695L44.8595 37.8301L45.0095 36.867L44.7695 36.236L45.1595 35.3394L45.7595 34.7084Z" fill="#2C2C2C" fill-opacity="0.92" stroke="#404040" stroke-opacity="0.92" stroke-width="0.2" stroke-linecap="round" stroke-linejoin="round"/>
<path d="M130.78 18.9334L129.7 19.9298L129.19 19.7637L129.16 19.1991L129.28 19.0663L130.12 18.5017L130.63 18.5349L130.78 18.9334Z" fill="#2C2C2C" fill-opacity="0.92" stroke="#404040" stroke-opacity="0.92" stroke-width="0.2" stroke-linecap="round" stroke-linejoin="round"/>
<path d="M127.871 17.8708L125.711 18.9335L124.811 18.8671V18.369L126.311 17.4723L128.111 17.5055L127.871 17.8708Z" fill="#2C2C2C" fill-opacity="0.92" stroke="#404040" stroke-opacity="0.92" stroke-width="0.2" stroke-linecap="round" stroke-linejoin="round"/>
<path d="M126.941 12.2914L126.671 13.1217L127.481 12.8228L127.931 13.3209L128.981 13.9851L130.121 14.5497L129.701 15.4464L130.751 15.3136L131.321 15.9445L129.821 16.5423L128.051 16.0774L127.811 15.2139L125.921 16.2434L123.461 17.2065L123.671 16.1106L121.781 16.2767L123.491 15.3468L124.571 13.8523L126.101 12.1586L126.941 12.2914Z" fill="#2C2C2C" fill-opacity="0.92" stroke="#404040" stroke-opacity="0.92" stroke-width="0.2" stroke-linecap="round" stroke-linejoin="round"/>
<path d="M118.061 5.98148L116.831 6.61248L115.571 6.08111L114.401 6.24716L113.381 5.45012L114.881 4.88554L116.351 4.1217L117.251 4.61986L117.731 4.95196L117.851 5.28407L118.061 5.98148Z" fill="#2C2C2C" fill-opacity="0.92" stroke="#404040" stroke-opacity="0.92" stroke-width="0.2" stroke-linecap="round" stroke-linejoin="round"/>
<path d="M133.96 53.3395L133.3 52.1439L134.17 49.321L133.69 48.7233L132.58 49.0554L132.25 48.524L130.6 50.0849L129.64 51.7122L128.8 52.6753L128.05 53.0074L127.54 53.107L127.21 53.6052H124.42L122.08 53.6384L121.27 54.0037L119.23 55.465V55.4317L118.96 55.2989L118.36 55.5978L117.79 56.0295L117.25 55.6642L115.84 55.9299L114.67 56.2288L114.1 56.4945L113.41 57.1919L113.95 57.4244L114.46 57.2915H114.55L114.46 57.9225L113.02 58.155L112.18 58.4207L111.67 58.7528L110.89 58.5535L110.41 58.6531L109.54 59.2509L108.16 59.9151L107.35 59.7823L107.95 59.0517L109.06 57.8893L110.29 57.1919L110.62 56.5941L110.89 55.5978L112.03 54.4354L112.3 53.107L112.63 54.4022L113.77 54.7011L114.49 54.0037L114.07 52.4096L113.8 51.7454L112.6 51.3469L111.46 51.1144H110.29L109.27 50.8487L109.15 50.3838L108.73 50.6827L108.37 50.6162L108.94 49.9188L108.4 49.6531L108.97 48.8561L108.61 48.2583L109.12 47.6605L107.56 47.3616L107.53 46.1661L107.29 45.9004L106.3 45.834L105.07 45.4354L104.62 45.7011L104.08 46.1993L103.09 46.5314L102.16 47.3616L100.54 46.7971L99.22 47.0627L98.05 46.4317L96.67 46.0996L95.68 45.9668L95.38 45.6347L95.65 44.5055H95.14L94.75 45.3026H91.69H86.59H81.55H77.08H72.64H68.23H63.7H62.26H57.85H53.62H53.41L51.79 43.2768L51.31 42.3801L49.21 41.5166L49.6 39.69L50.68 38.4613L49.45 37.5646L50.38 35.9373L49.75 34.476L50.5 33.4133L52.03 32.4502L52.99 31.1882L51.61 29.9262L52.03 27.6347L52.36 26.2399L51.88 25.3432L51.64 24.5461L51.82 23.5166L49.87 24.1476L47.59 25.2435L47.5 23.9816L47.35 23.1181L46.51 22.5867L45.25 22.5203L55.93 11.6605L63.31 4.88561L65.11 5.31734L66.1 6.18081L67.21 6.34686L69.1 5.61624L71.2 5.05166L72.79 5.25092L75.46 4.48709L77.92 4.05535L77.98 4.78598L79.33 4.35424L80.5 3.52399L81.13 3.72325L81.55 5.31734L84.4 4.08856L83.23 5.45019L85.03 5.15129L85.99 4.65314L87.37 4.75277L88.54 5.4834L90.79 6.1476L92.2 6.4465L93.52 6.34686L94.39 7.27675L91.84 8.17343L93.76 8.53875L97.33 8.33948L98.65 8.00738L99.07 9.10332L101.2 8.20664L100.57 7.40959L101.92 6.81181L103.48 6.71218L104.65 6.54613L105.28 6.97786L105.73 7.94096L107.23 7.80812L108.82 8.63838L110.98 8.33948L112.78 8.37269L113.5 7.24354L114.85 6.94465L116.32 7.54244L115.03 9.26937L116.89 7.80812L117.85 7.87454L119.77 6.04797L119.29 4.95203L118.42 4.2214L120.07 2.26199L122.53 1L123.88 1.29889L124.48 2.06273L124.6 4.05535L122.86 4.91882L124.87 5.28413L123.55 7.1107L126.22 5.71587L126.88 6.87823L125.59 8.20664L125.98 9.43543L128.17 8.14022L130.12 6.54613L131.53 4.58671L133.18 4.71956L134.8 4.98524L135.88 5.88192L135.37 6.7786L133.84 7.7417L134.11 8.7048L133.39 9.60148L130.12 10.8967L128.17 11.1956L127.21 10.631L126.22 11.5609L124 13.1218L123.1 13.952L120.79 15.214L118.84 15.3469L117.31 16.1439L116.44 17.4059L114.73 17.6384L112.12 19.1993L109.3 21.3579L107.8 22.8856L106.33 25.1771L108.13 25.5092L107.68 27.3358L107.44 28.8635L109.63 28.465L111.73 29.3284L112.72 30.0923L113.23 31.0221L114.7 31.5867L115.78 32.417L118.06 32.5498L119.5 32.7491L118.42 34.476L117.91 36.5019L117.94 38.7934L119.26 40.7528L120.67 40.0886L122.35 37.9631L123.04 34.7749L122.53 33.7122L125.23 32.7491L127.48 31.3542L128.92 29.9594L129.43 28.631L129.31 26.9373L128.35 25.4428L131.02 23.3838L131.32 21.6236L132.49 18.6347L133.63 18.1697L135.64 18.7011L136.9 18.9004L138.25 18.369L139.18 19.0332L140.26 20.1624L140.32 20.893L142.63 21.059L141.85 22.6863L141.16 25.1439L142.3 25.476L142.78 26.6384L145.24 25.5424L147.49 23.3506L148.75 22.4539L149.08 24.214L149.86 26.7048L150.46 29.0959L149.44 30.3579L150.88 31.4871L151.75 32.6162L153.82 33.1476L154.54 33.7786V35.5055L155.56 35.7712L155.89 36.5351L155.29 38.8266L154 39.5904L152.74 40.321L150.1 41.0517L147.73 42.7122L145.15 43.0775L142.12 42.6126H139.93L138.34 42.7454L136.63 44.2399L134.41 45.1698L131.38 47.893L129.01 49.8192L130.42 49.4871L133.69 46.7306L137.38 45.0037L139.66 44.8044L140.65 45.834L138.82 47.2288L138.64 49.4539L138.67 51.048L140.35 52.0775L142.93 51.7786L145.09 49.4207L144.79 50.9483L145.54 51.7122L143.32 53.0738L139.6 54.3358L137.86 55.1661L135.7 56.6937L134.59 56.5277L135.04 54.7675L138.16 53.0074L135.73 53.0738L133.96 53.3395Z" fill="#2C2C2C" fill-opacity="0.92" stroke="#404040" stroke-opacity="0.92" stroke-width="0.2" stroke-linecap="round" stroke-linejoin="round"/>
<path d="M115.631 124.31L114.521 124.675L114.041 125.738L113.351 126.336L112.811 127.133L112.541 128.66L112.001 129.922L112.871 130.055L113.051 131.018L113.411 131.517L113.501 132.347L113.291 133.144L113.321 133.609L113.741 133.775L114.101 134.505L116.291 134.306L117.281 134.572L118.421 136.432L119.111 136.199L120.341 136.299L121.301 136.066L121.901 136.432L121.541 137.561L121.151 138.291L120.971 139.819L121.301 141.247L121.751 141.878L121.811 142.343L120.941 143.406L121.541 143.871L121.991 144.635L122.471 146.76L122.141 147.026L121.841 145.764L121.361 145.066L120.791 145.83L117.491 145.764V147.092L118.481 147.325L118.421 148.155L118.091 147.922L117.131 148.255L117.101 149.815L117.881 150.612L118.151 151.808L118.121 152.738L117.461 158.583L116.591 157.454L116.081 157.421L117.131 155.229L115.811 154.232L114.791 154.432L114.161 154.066L113.231 154.631L111.971 154.332L110.921 152.107L110.141 151.576L109.601 150.546L108.461 149.55L108.011 149.749L107.291 149.251L106.451 148.553L105.971 148.886L104.531 148.587L104.111 147.657L103.781 147.69L102.101 146.494L101.891 145.83L102.521 145.664L102.461 144.601L102.881 143.804L103.721 143.671L104.471 142.343L105.131 141.214L104.531 140.716L104.891 139.487L104.561 137.528L104.951 136.963L104.741 135.17L104.081 134.007L104.351 132.978L104.891 133.144L105.221 132.513L104.891 131.251L105.101 130.952L105.971 131.018L107.321 129.524L108.041 129.291L108.071 128.594L108.491 126.767L109.511 125.804L110.561 125.738L110.741 125.306L112.061 125.472L113.441 124.41L114.131 123.945L115.001 122.915L115.601 123.048L115.991 123.612L115.631 124.31Z" fill="#2C2C2C" fill-opacity="0.92" stroke="#404040" stroke-opacity="0.92" stroke-width="0.2" stroke-linecap="round" stroke-linejoin="round"/>
<path d="M94.6903 126.103L95.0503 127.266L95.6503 128.129L96.4003 129.026L95.7403 129.225L95.7103 130.089L96.0403 130.387L95.7703 130.653L95.8303 131.018L95.6503 131.45L95.5603 131.882L94.6603 131.417L94.3303 130.952L94.5403 130.587L94.5103 130.122L94.0603 129.624L93.4003 129.192L92.8603 128.926L92.7703 128.295L92.3503 127.93L92.4103 128.528L92.0503 129.059L91.6903 128.461L91.1803 128.229L90.9703 127.83L91.0003 127.166L91.2703 126.502L90.8203 126.203L91.2403 125.771L91.5103 125.505L92.5903 126.07L92.9803 125.804L93.5203 125.97L93.7603 126.402L94.2703 126.568L94.6903 126.103Z" fill="#2C2C2C" fill-opacity="0.92" stroke="#404040" stroke-opacity="0.92" stroke-width="0.2" stroke-linecap="round" stroke-linejoin="round"/>
<path d="M108.011 149.749L108.251 151.376L107.741 152.738L105.911 154.996L103.901 155.826L102.881 157.686L102.611 159.114L101.681 160.011L100.931 158.915L100.241 158.683L99.5512 158.849L99.4612 158.085L99.9412 157.587L99.7312 156.69L100.601 155.096L100.211 154.166L99.5812 155.162L98.5312 154.199L98.8612 153.601L98.5612 151.675L99.1612 151.343L99.4612 150.015L100.091 148.653L100.001 147.79L100.931 147.325L102.101 146.494L103.781 147.69L104.111 147.657L104.531 148.587L105.971 148.886L106.451 148.553L107.291 149.251L108.011 149.749Z" fill="#2C2C2C" fill-opacity="0.92" stroke="#404040" stroke-opacity="0.92" stroke-width="0.2" stroke-linecap="round" stroke-linejoin="round"/>
<path d="M86.7408 111.458L86.5308 113.151L86.1408 115.542H86.6508L87.1608 115.941L87.3408 115.609L87.7908 115.874L86.9508 116.705L86.0808 117.303L85.9308 117.701L86.0208 118.133L85.6308 118.664L85.2108 118.797L85.3008 119.063L84.9408 119.295L84.3408 119.827L84.2508 120.125L83.4108 119.76L82.3608 119.727L81.6408 119.295L80.8008 118.432L80.9208 117.801L81.1608 117.303L80.9508 116.904L81.9408 115.177H84.1008L84.2208 114.446L83.9808 114.314L83.8308 113.849L83.2608 113.351L82.7208 112.653L83.4708 112.62L83.6208 111.424H85.1808L86.7408 111.458Z" fill="#2C2C2C" fill-opacity="0.92" stroke="#404040" stroke-opacity="0.92" stroke-width="0.2" stroke-linecap="round" stroke-linejoin="round"/>
<path d="M139.181 136.697L138.881 138.624L137.831 139.155L137.921 139.653L137.591 140.782L138.311 142.31H138.851L139.061 143.506L140.051 145.365L139.661 145.465L138.701 145.266L138.161 145.83L137.381 146.196L136.841 146.295L136.661 146.727L135.821 146.627L134.771 145.631L134.681 144.635L134.261 143.539L134.561 141.745L135.041 140.982L134.681 139.985L134.081 139.686L134.321 138.723L133.961 138.258L133.061 138.325L131.951 136.731L132.431 136.133V135.137L133.481 134.804L133.901 134.406L133.361 133.609L133.511 132.845L134.921 131.583L136.001 132.38L136.991 133.742L137.021 134.871L137.651 134.904L138.551 135.934L139.181 136.697Z" fill="#2C2C2C" fill-opacity="0.92" stroke="#404040" stroke-opacity="0.92" stroke-width="0.2" stroke-linecap="round" stroke-linejoin="round"/>
<path d="M96.1909 117.435L95.6209 117.402L95.3509 117.701L94.7509 117.967H94.3309L93.9409 118.232L93.6109 118.166L93.3409 117.834L93.1609 117.9L92.8909 118.398L92.7409 118.365L92.6809 118.83L92.0509 119.395L91.6909 119.66L91.5109 119.926L91.0609 119.494L90.6409 120.059H90.2809L89.8909 120.092L89.8309 121.155H89.5909L89.3509 121.653L88.8109 121.753L88.5709 121.089L88.0609 120.889L88.2709 120.026L88.0609 119.793L87.7009 119.66L86.9509 119.893L86.9209 119.627L86.4409 119.262L86.1109 118.863L85.6309 118.664L86.0209 118.133L85.9309 117.701L86.0809 117.303L86.9509 116.705L87.7909 115.875L87.9709 115.974L88.3609 115.609L88.8409 115.576L88.9909 115.742L89.2609 115.642L90.0409 115.841L90.8209 115.775L91.3609 115.542L91.6009 115.31L92.1109 115.41L92.5009 115.542L92.9509 115.509L93.3109 115.31L94.0609 115.609L94.3009 115.675L94.7809 116.074L95.2309 116.539L95.8009 116.871L96.1909 117.435Z" fill="#2C2C2C" fill-opacity="0.92" stroke="#404040" stroke-opacity="0.92" stroke-width="0.2" stroke-linecap="round" stroke-linejoin="round"/>
<path d="M75.1016 94.3209L75.7616 94.2545L74.8016 96.1475L74.2616 97.6752L73.7216 100.531L73.3916 101.561L73.5116 102.723L73.9016 103.786L74.0216 105.413L74.9216 107.007L75.1616 108.236L75.6716 109.266L77.3816 109.83L77.9516 110.727L79.5116 110.129L80.8016 109.93L82.1216 109.531L83.2016 109.166L84.3716 108.302L84.9116 107.074L85.2716 105.28L85.6316 104.649L86.8316 104.085L88.6616 103.587L90.1316 103.686L91.1516 103.487L91.5116 103.952L91.3316 104.981L90.2816 106.243L89.7416 107.539L90.0116 107.904L89.6516 108.834L89.0216 110.494L88.6616 109.93L88.3316 109.963L88.0016 109.996L87.2516 111.291L86.9816 111.026L86.7716 111.125L86.7416 111.457L85.1816 111.424H83.6216L83.4716 112.62L82.7216 112.653L83.2616 113.35L83.8316 113.849L83.9816 114.314L84.2216 114.446L84.1016 115.177H81.9416L80.9516 116.904L81.1616 117.302L80.9216 117.801L80.8016 118.432L79.1216 116.14L78.3416 115.443L77.0216 114.878L76.0616 115.044L74.6216 115.841L73.7516 116.04L72.6416 115.476L71.4116 115.077L69.9716 114.114L68.7416 113.815L66.9716 112.819L65.6816 111.79L65.3516 111.225L64.4216 111.092L62.8016 110.428L62.2316 109.465L60.6116 108.236L59.9516 106.908L59.7116 105.845L60.2816 105.646L60.1916 105.048L60.6716 104.483L60.7916 103.753L60.3416 102.79V101.959L59.9516 100.863L58.8116 98.7379L57.4316 97.0774L56.8616 95.749L55.6316 94.8855L55.4216 94.3541L55.9316 93.0589L55.2116 92.5608L54.4616 91.4981L54.4016 90.0368L53.5616 89.8375L52.8716 88.7416L52.3616 87.6789L52.4516 87.0147L52.0016 85.4206L51.9116 83.7933L52.1516 82.963L51.2216 82.0995L50.6516 82.1992L49.9316 81.6346L49.3916 82.498L49.3616 83.4944L49.0616 85.1217L49.3616 85.9851L50.2016 87.4464L50.3216 87.9778L50.5316 88.1106L50.5616 88.8412L50.8616 88.808V90.2029L51.2516 90.7342L51.4016 91.4981L52.2116 92.5608L52.3316 94.5534L52.6316 95.4833L52.9016 96.4796L52.8116 97.6088L53.5916 97.6752L54.0716 98.6383L54.5216 99.6014L54.4316 99.9999L53.5916 100.764H53.2916L53.0816 99.4685L52.2116 98.2398L51.1916 97.2102L50.4416 96.6789L50.8016 95.118L50.7716 93.9556L50.1416 93.2914L49.2116 92.3615L48.9416 92.6272L48.6416 92.0626L47.7416 91.5645L47.0816 90.3025L47.2316 90.1696L47.8616 90.2693L48.6716 89.4722L48.9716 88.5091L48.1016 86.9814L47.3216 86.4169L47.0816 85.0885L46.9016 83.6604L46.6616 81.9667L46.6016 80.0405L48.4916 79.8744L50.6216 79.642L50.3516 80.0737L52.4516 81.1032L55.7216 82.5977H58.9616H60.2516L60.4916 81.701H63.3116L63.7016 82.4648L64.3316 83.1623L65.0516 84.0922L65.2916 85.1881L65.4116 86.3837L66.1016 87.0147L67.3016 87.6456L68.7416 85.9851L70.0916 85.9187L71.0516 86.7822L71.5316 88.2434L71.8016 89.5054L72.5216 90.701L72.5816 92.1955L72.8516 93.1918L74.0216 93.856L75.1016 94.3209Z" fill="#2C2C2C" fill-opacity="0.92" stroke="#404040" stroke-opacity="0.92" stroke-width="0.2" stroke-linecap="round" stroke-linejoin="round"/>
<path d="M96.191 117.435L96.041 117.668L95.891 118.133L96.011 118.897L95.561 119.627L95.321 120.491L95.171 121.421L95.231 121.985L95.201 122.948L94.931 123.147L94.721 124.077L94.781 124.642L94.421 125.173L94.451 125.738L94.691 126.103L94.271 126.568L93.761 126.402L93.521 125.97L92.981 125.804L92.591 126.07L91.511 125.505L91.241 125.771L90.7009 125.107L89.9509 124.243L89.6209 123.546L88.9609 122.849L88.2109 121.885L88.4209 121.553L88.6609 121.885L88.8109 121.753L89.3509 121.653L89.5909 121.155H89.8309L89.8909 120.092L90.2809 120.059H90.6409L91.0609 119.494L91.511 119.926L91.691 119.66L92.051 119.395L92.681 118.83L92.741 118.365L92.891 118.398L93.161 117.9L93.341 117.834L93.611 118.166L93.941 118.232L94.331 117.967H94.751L95.351 117.701L95.621 117.402L96.191 117.435Z" fill="#2C2C2C" fill-opacity="0.92" stroke="#404040" stroke-opacity="0.92" stroke-width="0.2" stroke-linecap="round" stroke-linejoin="round"/>
<path d="M105.101 130.952L104.891 131.251L105.221 132.513L104.891 133.144L104.351 132.978L104.081 134.007L103.541 133.41L103.241 132.247L103.661 131.683L103.241 131.55L102.971 130.852L102.131 130.255L101.411 130.387L101.021 131.118L100.301 131.649L99.9405 131.716L99.7605 132.181L100.511 133.343L100.031 133.609L99.7905 133.908L98.9806 134.041L98.7405 132.745L98.5005 133.111L97.9605 132.978L97.6605 132.148L96.9706 131.981L96.5206 131.749H95.8005L95.7405 132.214L95.5605 131.882L95.6505 131.45L95.8306 131.018L95.7706 130.653L96.0405 130.387L95.7105 130.089L95.7405 129.225L96.4005 129.026L96.9706 129.79L96.9105 130.255L97.5706 130.354L97.7505 130.155L98.2005 130.686L99.0405 130.52L99.7905 129.989L100.841 129.557L101.441 128.926L102.371 129.059L102.311 129.258L103.241 129.325L103.961 129.723L104.501 130.354L105.101 130.952Z" fill="#2C2C2C" fill-opacity="0.92" stroke="#404040" stroke-opacity="0.92" stroke-width="0.2" stroke-linecap="round" stroke-linejoin="round"/>
<path d="M117.46 158.583L115.93 158.483L115.69 158.815L114.31 159.214L112.42 160.675L112.33 161.672L111.91 162.402L112.12 163.565L111.1 164.162L111.16 165.092L110.71 165.458L111.49 167.384L112.48 168.679L112.18 169.609L113.32 169.708L114.01 170.871L115.51 170.904L116.83 169.675L116.86 172.897L117.64 173.129L118.6 172.764L120.25 176.218L119.92 176.915V178.443L120.01 180.236L119.44 181.299L119.8 182.096L119.47 182.827L120.34 184.62L119.47 186.911L119.14 188.007L118.3 188.539L116.53 187.31L116.29 186.446L112.78 184.321L109.57 181.963L108.16 180.668L107.32 178.908L107.56 178.277L105.94 175.487L104.02 171.568L102.22 167.317L101.5 166.321L100.9 164.76L99.5204 163.365L98.2904 162.502L98.8004 161.572L97.9004 159.513L98.4104 158.018L99.7304 156.69L99.9404 157.587L99.4604 158.085L99.5504 158.849L100.24 158.683L100.93 158.915L101.68 160.011L102.61 159.114L102.88 157.686L103.9 155.827L105.91 154.996L107.74 152.738L108.25 151.376L108.01 149.749L108.46 149.55L109.6 150.546L110.14 151.576L110.92 152.107L111.97 154.332L113.23 154.631L114.16 154.066L114.79 154.432L115.81 154.232L117.13 155.229L116.08 157.421L116.59 157.454L117.46 158.583Z" fill="#2C2C2C" fill-opacity="0.92" stroke="#404040" stroke-opacity="0.92" stroke-width="0.2" stroke-linecap="round" stroke-linejoin="round"/>
<path d="M139.061 192.458L139.661 193.62L139.781 196.509L141.551 196.941L142.211 196.509L143.381 197.107L143.741 197.738L144.071 199.697L144.311 200.494L144.941 200.594L145.541 200.262L146.171 200.627L146.261 201.823L146.171 203.085L145.961 204.314L145.871 206.173L144.581 207.834L143.321 208.166L141.431 207.834L139.691 207.269L140.951 204.015L140.621 203.085L138.851 202.255L136.661 200.661L135.281 200.328L131.891 196.875L132.341 194.317L132.281 193.155L132.911 191.295L135.791 190.664L137.351 190.697L138.971 191.793L139.061 192.458Z" fill="#2C2C2C" fill-opacity="0.92" stroke="#404040" stroke-opacity="0.92" stroke-width="0.2" stroke-linecap="round" stroke-linejoin="round"/>
<path d="M88.06 120.889L87.85 121.387L86.86 121.354L86.26 121.155L85.6 120.723L84.7 120.59L84.25 120.125L84.34 119.827L84.94 119.295L85.3 119.063L85.21 118.797L85.63 118.664L86.11 118.863L86.44 119.262L86.92 119.627L86.95 119.893L87.7 119.66L88.06 119.793L88.27 120.026L88.06 120.889Z" fill="#2C2C2C" fill-opacity="0.92" stroke="#404040" stroke-opacity="0.92" stroke-width="0.2" stroke-linecap="round" stroke-linejoin="round"/>
<path d="M144.61 137.162L143.68 138.989L143.77 140.45L144.43 141.712L144.1 142.609L143.95 143.605L143.5 144.502L142.54 144.037L141.73 144.269L141.04 144.07L140.86 144.701L141.16 145.1L140.98 145.564L140.05 145.365L139.06 143.505L138.85 142.31H138.31L137.59 140.782L137.92 139.653L137.83 139.155L138.88 138.623L139.18 136.697L141.22 137.129L141.4 136.731L142.78 136.564L144.61 137.162Z" fill="#2C2C2C" fill-opacity="0.92" stroke="#404040" stroke-opacity="0.92" stroke-width="0.2" stroke-linecap="round" stroke-linejoin="round"/>
<path d="M150.22 221.417L149.74 222.779L148.12 223.941L146.86 223.509L146.02 223.742L144.37 222.845L143.29 222.911L142.12 221.716L142 220.354L142.27 219.889L141.91 217.764L142.03 215.572L142.18 213.845L143.2 213.612L145.09 215.273L145.66 215.207L147.55 216.568L148.99 217.764L150.13 219.192L149.59 220.221L150.22 221.417Z" fill="#2C2C2C" fill-opacity="0.92" stroke="#404040" stroke-opacity="0.92" stroke-width="0.2" stroke-linecap="round" stroke-linejoin="round"/>
<path d="M134.92 131.583L133.51 132.845L133.36 133.609L133.9 134.406L133.48 134.804L132.43 135.136V136.133L131.95 136.731L133.06 138.325L133.27 138.922L132.64 139.753L130.72 140.55L129.49 140.882L128.98 141.38L127.63 140.849L126.4 140.583L126.07 140.782L126.82 141.314L126.73 142.742L126.94 144.103L128.38 144.269L128.47 144.734L127.24 145.332L127.03 146.229L126.31 146.594L125.05 147.092L124.72 147.756L123.4 147.889L122.47 146.76L121.99 144.635L121.54 143.871L120.94 143.406L121.81 142.343L121.75 141.878L121.3 141.247L120.97 139.819L121.15 138.291L121.54 137.561L121.9 136.432L121.3 136.066L120.34 136.299L119.11 136.199L118.42 136.432L117.28 134.572L116.29 134.306L114.1 134.505L113.74 133.775L113.32 133.609L113.29 133.144L113.5 132.347L113.41 131.517L113.05 131.018L112.87 130.055L112 129.922L112.54 128.66L112.81 127.133L113.35 126.336L114.04 125.738L114.52 124.675L115.63 124.31L115.57 124.808L114.55 125.074L115.06 126.037L114.97 127.166L114.16 128.395L114.73 130.088L115.48 129.956L115.93 128.395L115.42 127.664V126.037L117.58 125.173L117.4 124.177L118.03 123.48L118.54 125.007L119.74 125.04L120.76 126.203L120.82 126.933H122.32L124.15 126.734L125.08 127.664L126.34 127.93L127.33 127.266L127.36 126.734L129.49 126.601L131.5 126.568L130.03 127.199L130.57 128.229L131.92 128.362L133.18 129.424L133.39 131.118L134.26 131.085L134.92 131.583Z" fill="#2C2C2C" fill-opacity="0.92" stroke="#404040" stroke-opacity="0.92" stroke-width="0.2" stroke-linecap="round" stroke-linejoin="round"/>
<path d="M136.841 261.037L138.641 265.553H140.141L141.041 265.62L140.891 266.417L139.931 267.048L139.211 266.981L138.281 266.815L137.021 266.218L135.401 265.919L133.151 264.79L131.231 263.727L128.291 261.435L129.671 261.867L132.251 263.229L134.441 263.959L134.801 263.029L134.711 261.635L135.731 260.771L136.841 261.037Z" fill="#2C2C2C" fill-opacity="0.92" stroke="#404040" stroke-opacity="0.92" stroke-width="0.2" stroke-linecap="round" stroke-linejoin="round"/>
<path d="M124.631 197.904L124.901 198.435L124.541 200.66L122.861 201.69L123.341 205.243L123.101 205.941L123.701 206.771L122.711 208.1L121.931 210.092L121.661 212.052L122.171 214.111L121.541 216.303L123.011 219.989L123.491 220.387L123.911 222.347L123.431 224.406L123.851 226.199L122.951 227.594L123.431 229.52L124.421 231.612L123.671 232.376L123.731 234.269L123.971 236.428L124.961 239.018L124.451 239.45L125.561 241.875L126.491 242.672L126.251 243.568L127.091 243.967L127.511 244.764L126.971 245.162L127.511 246.391L127.841 249.148L127.631 250.941L128.171 252.004L128.141 253.299L127.331 254.229L128.261 256.387L129.041 257.151L129.971 257.018L130.541 258.546L131.591 259.742L135.221 260.007L136.691 260.339H135.401L134.891 260.838L133.871 261.568L134.381 263.461L133.811 263.494L131.921 262.863L129.671 261.435L127.391 260.273L126.431 258.978L126.341 257.782L125.081 256.387L123.581 252.867L123.521 250.875L124.541 249.28L122.051 248.649L122.861 246.823L122.261 243.336L124.211 244.066L123.671 239.716L122.471 239.151L122.771 241.775L121.721 241.476L121.271 238.487L120.671 234.568L121.001 233.107L120.011 231.048L119.291 228.657L119.951 228.557L120.131 225.136L120.491 221.716L120.521 218.561L119.531 215.339L119.711 213.579L119.081 210.956L119.621 208.365L119.351 204.247V199.797L119.381 195.048L118.931 191.561L118.301 188.539L119.141 188.007L119.471 186.911L120.431 188.373L120.791 189.9L121.751 190.797L121.421 192.856L122.531 195.247L123.461 198.203L124.631 197.904Z" fill="#2C2C2C" fill-opacity="0.92" stroke="#404040" stroke-opacity="0.92" stroke-width="0.2" stroke-linecap="round" stroke-linejoin="round"/>
<path d="M102.16 47.3616L100.33 48.0258L98.9198 48.856L97.5398 49.7527L97.3898 50.0516L99.0998 49.6199L99.7298 50.3173L101.11 49.8191L102.58 49.1217L104.2 48.4243L103.27 49.5203L104.02 49.7859L104.77 50.583L106.3 50.118L107.83 49.952L107.92 50.5498L108.37 50.6162L108.73 50.6826L109.18 51.5129L107.77 51.7121H107.74L106.63 51.4797L105.28 51.8782L104.17 52.0774L102.76 53.4391L101.86 54.2029L101.98 54.4354L103.63 53.0738H103.84L102.43 54.7011L101.56 56.1623L100.81 57.3579L100.63 58.3874L100.39 58.8856L100.21 59.4501L100.24 60.5461L100.33 60.7121L100.87 60.6789L101.35 60.4465L101.77 60.1808L102.76 59.1512L103.3 57.7564L103.27 56.4612L103.69 55.5645L104.47 54.535L105.1 53.8044L105.91 53.3062L105.79 54.0036L106.45 52.9741L106.84 52.7749L107.35 51.9778L108.49 52.4096L109.33 53.2066L109.09 54.1697L108.61 55.1328L107.47 55.9631L107.35 56.4944H107.65L108.94 55.5977L109.42 55.797L109.27 57.0258L109.06 57.8893L107.95 59.0516L107.35 59.7822L106.54 60.5793L107.35 61.011L108.1 61.1439L109.3 60.845L110.41 60.2804L111.31 59.9815L112.69 59.3837L114.43 58.1217L114.46 57.9225L114.55 57.2915L115.36 57.0258L116.53 57.1254L117.73 57.2915L119.11 56.5941L119.29 55.7638L119.23 55.4649L121.27 54.0036L122.08 53.6383L124.42 53.6051H127.21L127.54 53.107L128.05 53.0073L128.8 52.6752L129.64 51.7121L130.6 50.0848L132.25 48.5239L132.58 49.0553L133.69 48.7232L134.17 49.321L133.3 52.1439L133.96 53.3394L134.02 54.0369L132.1 55.0332L130.3 55.7638L128.5 56.3948L127.3 57.6568L126.91 58.1217L126.55 59.2509L126.76 60.3468L127.39 60.4132L127.45 59.6494L127.78 60.1143L127.48 60.7121L126.34 61.0442L125.59 61.011L124.33 61.3763L123.64 61.476L122.71 61.5756L121.21 62.2066L123.64 61.8081L123.97 62.2066L121.6 62.8376H120.61L120.73 62.5719L120.1 63.1697L120.52 63.2693L119.77 64.797L118.18 66.4243L118.21 65.8597L117.88 65.7601L117.52 65.2287V66.3911L117.82 66.7564L117.64 67.5535L116.92 68.3837L115.57 70.0774L115.45 70.011L116.32 68.5498L115.72 67.7527L116.02 65.9594L115.45 66.8893V68.2509L114.49 67.9188L115.39 68.583L114.94 70.6088L115.36 70.7749V71.5055L115.06 73.631L113.68 75.1918L111.85 75.8228L110.53 77.0848L109.69 77.2177L108.67 78.0147L108.28 78.7121L106.21 80.107L105.07 81.1365L104.02 82.3985L103.45 83.8929V85.3874L103.63 87.214L104.08 88.7084L103.93 89.6383L104.32 92.0959L104.02 93.5572L103.84 94.3874L103.24 95.6826L102.7 95.9483L101.92 95.6826L101.8 94.7527L101.26 94.2546L100.66 92.428L100.18 90.8007L100.06 89.9704L100.66 88.5424L100.42 87.38L99.4898 85.5867L98.9198 85.2546L97.0898 86.2509L96.8198 86.118L96.2198 85.1217L95.3198 84.5904L93.3998 84.8893L92.0198 84.6236L90.7298 84.7896L89.9798 85.1217L90.1598 85.6863L89.9498 86.5498L90.1898 86.9815L89.8298 87.2472L89.2898 86.9483L88.5998 87.3468L87.4298 87.2804L86.4398 86.1512L84.9698 86.4169L83.8898 85.9188L82.8398 86.0848L81.3398 86.583L79.5098 88.1439L77.6798 89.0738L76.5698 90.0701L75.9998 91.0332L75.6998 92.5276L75.5798 93.5239L75.7598 94.2546L75.0998 94.321L74.0198 93.856L72.8498 93.1918L72.5798 92.1955L72.5198 90.7011L71.7998 89.5055L71.5298 88.2435L71.0498 86.7822L70.0898 85.9188L68.7398 85.9852L67.2998 87.6457L66.0998 87.0147L65.4098 86.3837L65.2898 85.1881L65.0498 84.0922L64.3298 83.1623L63.6998 82.4649L63.3098 81.7011H60.4898L60.2498 82.5977H58.9598H55.7198L52.4498 81.1033L50.3498 80.0738L50.6198 79.642L48.4898 79.8745L46.5998 80.0405L46.6898 78.9778L46.0598 77.749L45.3998 77.4834L45.4298 76.8856L44.5598 76.7527L44.1998 76.1881L42.7598 75.9889L42.4898 75.6236L42.7298 74.4612L41.9798 72.3358L41.8298 69.38L42.0998 68.8819L41.7098 68.1845L41.2598 66.3911L41.7998 64.6642L41.5298 63.5018L42.6998 61.7417L43.5398 59.9483L43.8698 58.321L45.5198 56.3284L46.7198 54.4354L47.9198 52.5424L49.2098 49.7195L49.7498 47.9594L49.8698 46.9963L50.2898 46.5645L52.0298 47.2952L51.7298 49.2546L52.3898 48.69L53.1398 46.9963L53.6198 45.3025H57.8498H62.2598H63.6998H68.2298H72.6398H77.0798H81.5498H86.5898H91.6898H94.7498L95.1398 44.5055H95.6498L95.3798 45.6346L95.6798 45.9668L96.6698 46.0996L98.0498 46.4317L99.2198 47.0627L100.54 46.797L102.16 47.3616Z" fill="#2C2C2C" fill-opacity="0.92" stroke="#404040" stroke-opacity="0.92" stroke-width="0.2" stroke-linecap="round" stroke-linejoin="round"/>
<path d="M22.8107 28.797L20.7107 29.5608L20.4707 29.0295L21.1607 28.0996L23.0807 27.4022L24.1307 27.1033L24.9107 27.2361V27.8671L22.8107 28.797Z" fill="#2C2C2C" fill-opacity="0.92" stroke="#404040" stroke-opacity="0.92" stroke-width="0.2" stroke-linecap="round" stroke-linejoin="round"/>
<path d="M11.1114 23.2841L9.94141 23.583L9.4314 23.2177L9.19141 22.6864L10.9014 22.3542L11.8014 22.5535L11.1114 23.2841Z" fill="#2C2C2C" fill-opacity="0.92" stroke="#404040" stroke-opacity="0.92" stroke-width="0.2" stroke-linecap="round" stroke-linejoin="round"/>
<path d="M63.31 4.88551L55.93 11.6604L45.25 22.5202L46.51 22.5866L47.35 23.118L47.5 23.9815L47.59 25.2435L49.87 24.1475L51.82 23.5165L51.64 24.546L51.88 25.3431L52.36 26.2398L52.03 27.6346L51.61 29.9261L52.99 31.1881L52.03 32.4501L50.5 33.4132L50.32 32.6826L49.57 32.0184L50.56 30.2914L50.08 28.6641L50.89 26.8043L49.66 26.6715L47.53 26.6383L46.39 26.0405L45.4 24.0147L44.41 23.6494L42.7 22.9519L40.66 23.118L38.86 22.2213L38.05 21.3911L36.16 21.7896L35.11 23.1512L34.24 23.284L32.26 23.6826L30.4 24.3468L28.48 24.7785L29.44 23.6161L31.96 21.6899L34 21.0922L34.12 20.6272L31.3 21.6899L29.08 22.9852L25.72 24.38L25.78 25.3431L23.08 26.7379L20.77 27.5682L18.79 28.1992L17.59 29.0626L14.41 30.0922L13.06 31.0221L10.6 31.8855L9.79 31.7527L7.93 32.284L5.83 32.9815L4 33.6457L1 34.2435L1.12 33.8781L3.58 32.9483L5.56 32.3173L8.14 31.2213L10.09 31.0221L11.59 30.1918L14.71 28.9962L15.4 28.5977L17.11 27.9003L18.85 26.4058L20.71 25.2435L18.52 25.8412L18.43 25.4759L16.96 26.2066L17.08 25.2102L16 25.9077L16.48 24.9446L14.29 25.7084H13.45L14.56 24.546L15.55 23.8154L15.43 23.118L13.27 23.5165L13.09 22.5866L12.7 22.1217L13.9 21.0257L13.78 20.1955L15.55 19.0995L17.86 18.0036L19.45 17.0405L20.68 16.9077L21.22 17.2066L23.35 16.2767L24.1 16.4427L25.78 15.8449L26.53 14.9815L26.2 14.6494L28 13.9187L27.16 13.9519L25.3 14.3505L24.43 14.7822L23.89 14.3505L21.82 14.5829L20.44 14.118L20.8 13.3542L20.5 12.2914L23.26 11.4944L27.22 10.5977H28.27L26.98 11.5276L29.74 11.4612L30.1 10.2988L29.41 9.60139L29.65 8.67149L29.44 7.90766L28.45 7.34308L30.4 6.37998L32.65 6.31356L35.29 5.51651L36.73 4.65304L39.1 3.78957L40.54 3.59031L43.9 2.79326L44.83 2.92611L47.95 1.99622L49.27 2.36153L49.12 3.15858L50.11 2.82647L52 2.92611L51.43 3.32463L52.9 3.62352L54.37 3.45747L56.23 3.98884L58.39 4.1881L59.05 4.38736L61.03 4.12168L62.26 4.65304L63.31 4.88551Z" fill="#2C2C2C" fill-opacity="0.92" stroke="#404040" stroke-opacity="0.92" stroke-width="0.2" stroke-linecap="round" stroke-linejoin="round"/>
<path d="M143.5 144.502L143.95 143.572L144.1 142.609L144.4 141.712L143.77 140.45L143.68 138.989L144.61 137.162L145.18 137.395L146.41 137.893L148.18 139.686L148.42 140.55L147.4 142.509L146.86 144.07L146.2 144.9L145.39 145.033L145.15 144.435L144.76 144.369L144.25 144.933L143.5 144.502Z" fill="#2C2C2C" fill-opacity="0.92" stroke="#404040" stroke-opacity="0.92" stroke-width="0.2" stroke-linecap="round" stroke-linejoin="round"/>
<path d="M131.5 80.4059H131.41L131.38 80.4391L131.41 80.5055L131.29 80.572L131.26 80.5387L131.32 80.5055H131.35L131.38 80.4059L131.47 80.3727L131.5 80.4059Z" fill="#2C2C2C" fill-opacity="0.92" stroke="#404040" stroke-opacity="0.92" stroke-width="0.2" stroke-linecap="round" stroke-linejoin="round"/>
</svg>
