<svg width="36" height="36" viewBox="0 0 36 36" fill="none" xmlns="http://www.w3.org/2000/svg">
<path d="M34.8161 35.4678V14.9587L17.8641 1.49316L0.912109 14.9587V35.4678H34.8161Z" fill="#F4FBFF"/>
<path d="M9.91211 34.6489H34.7927V14.634C34.7927 14.634 32.1759 12.6041 30.6374 11.4106C28.6799 18.3759 23.5166 28.8682 9.91211 34.6489Z" fill="#E4F6FF"/>
<path d="M9.93265 18.0347C9.93265 18.0347 8.32854 19.9153 8.32854 22.5042C8.32854 22.9178 8.36978 23.3187 8.43863 23.7007C8.27952 23.4973 8.10494 23.2984 7.91161 23.1092C6.2015 21.4357 3.88385 21.2723 3.88385 21.2723C3.88385 21.2723 4.0508 23.5404 5.76091 25.2139C6.08629 25.5323 6.4388 25.8008 6.79642 26.0274C6.68012 26.019 6.56218 26.0144 6.44275 26.0144C4.51538 26.0144 3.11523 27.1917 3.11523 27.1917C3.11523 27.1917 4.51538 28.369 6.44275 28.369C6.67051 28.369 6.89295 28.3522 7.10857 28.3231C6.67126 29.162 6.85811 30.2005 6.85811 30.2005C6.85811 30.2005 8.19452 30.2662 9.06375 29.4156C9.5254 28.9638 9.79897 28.3532 9.93265 27.9766C10.0663 28.3532 10.3399 28.9638 10.8015 29.4156C11.6708 30.2663 13.0072 30.2005 13.0072 30.2005C13.0072 30.2005 13.194 29.1621 12.7567 28.3231C12.9723 28.3522 13.1948 28.369 13.4225 28.369C15.3499 28.369 16.7501 27.1917 16.7501 27.1917C16.7501 27.1917 15.3499 26.0144 13.4225 26.0144C13.3032 26.0144 13.1852 26.0189 13.0689 26.0274C13.4265 25.8008 13.7791 25.5323 14.1044 25.2139C15.8145 23.5403 15.9814 21.2723 15.9814 21.2723C15.9814 21.2723 13.6638 21.4357 11.9538 23.1093C11.7604 23.2985 11.5858 23.4973 11.4267 23.7008C11.4955 23.3187 11.5368 22.9179 11.5368 22.5042C11.5368 19.9153 9.93265 18.0347 9.93265 18.0347V18.0347Z" fill="#B3E59F"/>
<path d="M7.22461 34.8535C7.22461 33.3647 8.45787 32.1577 9.97916 32.1577C11.5004 32.1577 12.7337 33.3647 12.7337 34.8535H7.22461Z" fill="#9D6B6B"/>
<path d="M25.7704 18.0347C25.7704 18.0347 24.1663 19.9154 24.1663 22.5042C24.1663 22.9178 24.2076 23.3188 24.2764 23.7008C24.1173 23.4973 23.9427 23.2984 23.7494 23.1092C22.0393 21.4357 19.7217 21.2723 19.7217 21.2723C19.7217 21.2723 19.8887 23.5404 21.5988 25.2139C21.9242 25.5323 22.2767 25.8008 22.6343 26.0274C22.518 26.0189 22.4001 26.0143 22.2806 26.0143C20.3533 26.0143 18.9531 27.1917 18.9531 27.1917C18.9531 27.1917 20.3533 28.369 22.2806 28.369C22.5084 28.369 22.7308 28.3521 22.9464 28.3231C22.5091 29.162 22.696 30.2005 22.696 30.2005C22.696 30.2005 24.0324 30.2662 24.9016 29.4156C25.3633 28.9638 25.6368 28.3532 25.7705 27.9766C25.9042 28.3532 26.1778 28.9638 26.6394 29.4156C27.5086 30.2663 28.845 30.2005 28.845 30.2005C28.845 30.2005 29.0318 29.1621 28.5946 28.3231C28.8102 28.3521 29.0326 28.369 29.2604 28.369C31.1878 28.369 32.5879 27.1917 32.5879 27.1917C32.5879 27.1917 31.1878 26.0143 29.2604 26.0143C29.141 26.0143 29.023 26.0189 28.9067 26.0274C29.2643 25.8008 29.6169 25.5323 29.9422 25.2139C31.6523 23.5403 31.8193 21.2723 31.8193 21.2723C31.8193 21.2723 29.5016 21.4357 27.7916 23.1092C27.5983 23.2984 27.4237 23.4973 27.2646 23.7008C27.3334 23.3187 27.3747 22.9178 27.3747 22.5042C27.3745 19.9154 25.7704 18.0347 25.7704 18.0347V18.0347Z" fill="#B3E59F"/>
<path d="M23.0176 34.6489C23.0176 33.1604 24.2508 31.9536 25.7721 31.9536C27.2933 31.9536 28.5266 33.1604 28.5266 34.6489H23.0176Z" fill="#9D6B6B"/>
<path d="M13.7207 9.58008H21.9843V11.7363H13.7207V9.58008Z" fill="#FFE07D"/>
<path d="M35.1097 14.242L18.1695 1.10116C17.9898 0.958466 17.7139 0.958466 17.5343 1.10116L0.594061 14.242C0.471696 14.337 0.400391 14.4814 0.400391 14.6342V29.9005C0.400391 30.1769 0.629237 30.4009 0.911665 30.4009C1.19409 30.4009 1.42294 30.1769 1.42294 29.9005V14.876L17.3406 2.52827V9.07965H13.7201C13.4377 9.07965 13.2088 9.30361 13.2088 9.57999V11.7361C13.2088 12.0125 13.4377 12.2365 13.7201 12.2365H15.4817C15.7641 12.2365 15.993 12.0125 15.993 11.7361C15.993 11.4597 15.7641 11.2358 15.4817 11.2358H14.2314V10.0803H21.4724V11.2358H17.8676C17.5851 11.2358 17.3563 11.4597 17.3563 11.7361C17.3563 12.0125 17.5851 12.2365 17.8676 12.2365H21.9837C22.2661 12.2365 22.495 12.0125 22.495 11.7361V9.57999C22.495 9.30361 22.2661 9.07965 21.9837 9.07965H18.3632V2.52827L34.2809 14.876V18.3246C34.2809 18.601 34.5097 18.8249 34.7921 18.8249C35.0746 18.8249 35.3034 18.601 35.3034 18.3246V14.6342C35.3034 14.4814 35.2321 14.337 35.1097 14.242V14.242Z" fill="#404040"/>
<path d="M34.7921 20.1595C34.5097 20.1595 34.2809 20.3834 34.2809 20.6598V34.149H28.9966C28.7767 32.7867 27.6745 31.708 26.2824 31.4929V29.7731C27.3004 30.7654 28.8075 30.7034 28.8714 30.7002C29.1096 30.6885 29.3078 30.5172 29.3492 30.2874C29.3558 30.2509 29.4683 29.601 29.3187 28.8691C31.3815 28.8466 32.8593 27.6238 32.9218 27.5713C33.0348 27.4763 33.0998 27.3377 33.0998 27.1919C33.0998 27.046 33.0348 26.9074 32.9218 26.8124C32.8693 26.7683 31.8191 25.8993 30.2628 25.6082C30.2768 25.5948 30.2906 25.5814 30.3044 25.5678C32.1282 23.783 32.3225 21.4086 32.3298 21.3084C32.3405 21.1636 32.2863 21.0213 32.1814 20.9186C32.0764 20.8159 31.9321 20.7628 31.7831 20.7734C31.689 20.78 29.6328 20.9411 27.8847 22.352C27.8254 19.6928 26.2326 17.795 26.1636 17.7141C26.0664 17.6002 25.9227 17.5344 25.7711 17.5344C25.6195 17.5344 25.4757 17.6001 25.3785 17.7141C25.3095 17.795 23.7166 19.6927 23.6574 22.3519C21.9093 20.9411 19.853 20.78 19.759 20.7734C19.6105 20.763 19.4655 20.8159 19.3606 20.9186C19.2557 21.0213 19.2016 21.1636 19.2122 21.3084C19.2196 21.4086 19.4139 23.783 21.2377 25.5679C21.2515 25.5814 21.2654 25.5948 21.2793 25.6082C19.723 25.8992 18.6728 26.7683 18.6204 26.8124C18.5074 26.9075 18.4423 27.046 18.4423 27.1919C18.4423 27.3377 18.5074 27.4763 18.6204 27.5713C18.6828 27.6238 20.1607 28.8466 22.2234 28.8691C22.0738 29.601 22.1864 30.2509 22.193 30.2874C22.2343 30.5172 22.4326 30.6886 22.6708 30.7002C22.679 30.7006 22.7108 30.702 22.7622 30.702C23.1124 30.702 24.3721 30.6383 25.2598 29.7731V31.4928C23.8677 31.7079 22.7654 32.7866 22.5455 34.1489H13.1582C12.9383 32.7866 11.836 31.7079 10.4439 31.4928V29.7731C11.462 30.7654 12.969 30.7033 13.0329 30.7002C13.2711 30.6884 13.4693 30.5171 13.5108 30.2873C13.5173 30.2509 13.6299 29.6009 13.4803 28.8691C15.543 28.8465 17.0209 27.6238 17.0833 27.5713C17.1964 27.4762 17.2614 27.3376 17.2614 27.1918C17.2614 27.046 17.1964 26.9073 17.0833 26.8123C17.0309 26.7682 15.9807 25.8992 14.4244 25.6081C14.4384 25.5947 14.4522 25.5813 14.466 25.5678C16.2899 23.7829 16.4841 21.4085 16.4915 21.3083C16.5021 21.1635 16.448 21.0213 16.3431 20.9185C16.2381 20.8159 16.0936 20.7627 15.9448 20.7733C15.8507 20.78 13.7944 20.941 12.0463 22.3518C11.9871 19.6927 10.3942 17.7949 10.3252 17.714C10.228 17.6001 10.0843 17.5343 9.93266 17.5343C9.78105 17.5343 9.63728 17.6001 9.54014 17.714C9.47108 17.7949 7.87829 19.6926 7.81905 22.3519C6.07097 20.9411 4.01469 20.78 3.92062 20.7733C3.77187 20.763 3.62728 20.8159 3.5223 20.9185C3.41739 21.0213 3.36326 21.1635 3.3739 21.3083C3.38126 21.4085 3.57554 23.7829 5.39929 25.5678C5.41313 25.5813 5.42697 25.5947 5.44095 25.6081C3.88463 25.8991 2.83447 26.7682 2.78198 26.8123C2.66895 26.9074 2.60392 27.046 2.60392 27.1918C2.60392 27.3376 2.66895 27.4763 2.78198 27.5713C2.84442 27.6238 4.32234 28.8465 6.38503 28.8691C6.2354 29.6009 6.34795 30.2508 6.35449 30.2873C6.39587 30.5171 6.59418 30.6885 6.83236 30.7002C6.84054 30.7006 6.87231 30.7019 6.92378 30.7019C7.27404 30.7019 8.53375 30.6383 9.42132 29.773V31.4927C8.02922 31.7079 6.92698 32.7865 6.70713 34.1489H1.42294V32.2356C1.42294 31.9592 1.19409 31.7352 0.911665 31.7352C0.629237 31.7352 0.400391 31.9592 0.400391 32.2356V34.6492C0.400391 34.9256 0.629237 35.1495 0.911665 35.1495H34.7921C35.0746 35.1495 35.3034 34.9256 35.3034 34.6492V20.6597C35.3034 20.3834 35.0746 20.1595 34.7921 20.1595ZM24.5407 29.0619C24.1258 29.4679 23.5584 29.6169 23.1683 29.6711C23.167 29.3545 23.2094 28.9212 23.4025 28.5507C23.4891 28.3847 23.4741 28.1853 23.3638 28.0334C23.2672 27.9003 23.1113 27.823 22.9472 27.823C22.9241 27.823 22.9008 27.8244 22.8776 27.8276C22.6742 27.8549 22.4735 27.8688 22.2813 27.8688C21.2629 27.8688 20.3963 27.4948 19.8614 27.1919C20.3965 26.8887 21.263 26.5149 22.2813 26.5149C22.3847 26.5149 22.4909 26.5188 22.5971 26.5265C22.8288 26.5437 23.0451 26.4039 23.1196 26.187C23.1941 25.9704 23.109 25.7318 22.9129 25.6075C22.5586 25.3831 22.2384 25.1317 21.961 24.8602C20.9441 23.8651 20.5178 22.6212 20.3447 21.8799C21.1004 22.0476 22.3666 22.463 23.3886 23.4631C23.5548 23.6258 23.7172 23.8081 23.8712 24.005C24.0145 24.188 24.2672 24.2517 24.4829 24.1589C24.6986 24.0661 24.8217 23.8411 24.7807 23.6139C24.7128 23.237 24.6784 22.8637 24.6784 22.5042C24.6784 20.9285 25.3309 19.6189 25.7712 18.9145C26.2114 19.6189 26.864 20.9285 26.864 22.5042C26.864 22.8639 26.8295 23.2372 26.7617 23.6139C26.7207 23.8411 26.8438 24.0661 27.0595 24.1589C27.2754 24.2517 27.528 24.1882 27.6712 24.0048C27.825 23.8083 27.9873 23.626 28.1538 23.4631C29.1698 22.4688 30.4394 22.0515 31.1972 21.8818C31.0237 22.6238 30.5973 23.8661 29.5814 24.8602C29.3041 25.1317 28.9838 25.3831 28.6296 25.6075C28.4334 25.7317 28.3484 25.9703 28.4229 26.187C28.4974 26.4038 28.7124 26.5429 28.9454 26.5265C29.0516 26.5188 29.1577 26.5149 29.2611 26.5149C30.2811 26.5149 31.1486 26.8899 31.6832 27.1931C31.151 27.4959 30.2871 27.8689 29.2611 27.8689C29.0689 27.8689 28.8682 27.855 28.6648 27.8276C28.4757 27.8022 28.2887 27.8817 28.1785 28.0335C28.0682 28.1854 28.0533 28.3847 28.1398 28.5507C28.3329 28.9211 28.3752 29.3543 28.3741 29.6706C27.9835 29.6162 27.4155 29.4669 27.0017 29.0619C26.6291 28.6974 26.399 28.1981 26.2825 27.8895V27.7972L27.1464 26.9518C27.3461 26.7564 27.3461 26.4396 27.1464 26.2442C26.9467 26.0489 26.623 26.0489 26.4233 26.2442L26.2826 26.3819V26.0029C26.2826 25.7265 26.0538 25.5025 25.7713 25.5025C25.4889 25.5025 25.2601 25.7265 25.2601 26.0029V26.3819L25.1194 26.2442C24.9196 26.0489 24.596 26.0489 24.3963 26.2442C24.1966 26.4397 24.1966 26.7564 24.3963 26.9518L25.2601 27.7972V27.8895C25.1434 28.1979 24.9133 28.6972 24.5407 29.0619ZM25.7711 32.454C26.8321 32.454 27.7228 33.1789 27.9549 34.1489H23.5874C23.8194 33.1789 24.7101 32.454 25.7711 32.454ZM8.7022 29.0619C8.28745 29.4678 7.72034 29.6168 7.33027 29.671C7.32912 29.3542 7.37145 28.9202 7.5641 28.5507C7.65067 28.3847 7.63574 28.1853 7.52545 28.0334C7.42878 27.9003 7.27288 27.823 7.10879 27.823C7.08568 27.823 7.06237 27.8244 7.03919 27.8276C6.83584 27.8549 6.63515 27.8688 6.44291 27.8688C5.42295 27.8688 4.55542 27.4938 4.02076 27.1906C4.55303 26.8879 5.41695 26.5148 6.44291 26.5148C6.54625 26.5148 6.65239 26.5187 6.7586 26.5265C6.99092 26.5436 7.20668 26.4038 7.28112 26.187C7.35563 25.9703 7.27056 25.7317 7.07443 25.6075C6.72015 25.383 6.39989 25.1316 6.12258 24.8602C5.10569 23.865 4.67942 22.6212 4.50627 21.8798C5.262 22.0476 6.52812 22.4629 7.55012 23.4631C7.71659 23.6259 7.87897 23.8082 8.0327 24.0048C8.17599 24.188 8.42836 24.2515 8.64439 24.1589C8.86015 24.0661 8.98319 23.841 8.94222 23.6138C8.87439 23.2372 8.83997 22.8639 8.83997 22.5041C8.83997 20.9285 9.49249 19.6188 9.93273 18.9144C10.373 19.6188 11.0256 20.9284 11.0256 22.5041C11.0256 22.8636 10.9911 23.2369 10.9232 23.6138C10.8823 23.841 11.0053 24.066 11.2211 24.1588C11.4366 24.2517 11.6894 24.188 11.8327 24.0049C11.9868 23.808 12.1491 23.6256 12.3153 23.4631C13.3322 22.4679 14.6033 22.0507 15.3608 21.8813C15.1894 22.6208 14.765 23.8599 13.743 24.8601C13.4656 25.1315 13.1454 25.383 12.7911 25.6074C12.595 25.7316 12.5099 25.9702 12.5844 26.1869C12.6588 26.4037 12.8734 26.5428 13.1069 26.5264C13.2131 26.5187 13.3193 26.5147 13.4227 26.5147C14.4412 26.5147 15.3077 26.8887 15.8426 27.1917C15.3075 27.4948 14.4411 27.8687 13.4227 27.8687C13.2305 27.8687 13.0298 27.8548 12.8264 27.8274C12.6375 27.802 12.4503 27.8815 12.3401 28.0333C12.2298 28.1852 12.2149 28.3845 12.3014 28.5505C12.4946 28.9211 12.5369 29.3545 12.5357 29.6709C12.1451 29.6167 11.5779 29.4676 11.1633 29.0617C10.7906 28.697 10.5605 28.1977 10.4441 27.8893V27.797L11.3079 26.9516C11.5076 26.7562 11.5076 26.4394 11.3079 26.244C11.1082 26.0487 10.7845 26.0487 10.5848 26.244L10.4441 26.3817V26.0027C10.4441 25.7263 10.2153 25.5023 9.93287 25.5023C9.65044 25.5023 9.42159 25.7263 9.42159 26.0027V26.3817L9.28089 26.244C9.08115 26.0487 8.75748 26.0487 8.55781 26.244C8.35814 26.4395 8.35814 26.7562 8.55781 26.9516L9.42166 27.797V27.8893C9.30495 28.1979 9.07488 28.6973 8.7022 29.0619ZM9.93266 32.454C10.9937 32.454 11.8844 33.1789 12.1165 34.1489H7.74897C7.98103 33.1789 8.87167 32.454 9.93266 32.454Z" fill="#404040"/>
<path d="M12.6008 17.233L12.5534 17.3581C12.4553 17.6173 12.5907 17.905 12.8557 18.001C12.9142 18.0222 12.9742 18.0322 13.0333 18.0322C13.2413 18.0322 13.4368 17.9073 13.5131 17.7055L13.5604 17.5804C13.6585 17.3212 13.5233 17.0335 13.2582 16.9376C12.9935 16.8415 12.6989 16.9739 12.6008 17.233Z" fill="#404040"/>
<path d="M13.2728 15.4582L13.2116 15.6196C13.1136 15.8788 13.2488 16.1667 13.5139 16.2627C13.5724 16.2839 13.6323 16.2939 13.6914 16.2939C13.8993 16.2939 14.0949 16.169 14.1713 15.9671L14.2324 15.8057C14.3305 15.5466 14.1952 15.2587 13.9302 15.1627C13.6654 15.0666 13.3708 15.1989 13.2728 15.4582Z" fill="#404040"/>
<path d="M14.1836 14.4872C14.2422 14.5084 14.3023 14.5186 14.3613 14.5186C14.5692 14.5186 14.7647 14.3938 14.8411 14.192L14.8885 14.0669C14.9868 13.8078 14.8516 13.52 14.5867 13.4239C14.3218 13.3279 14.0273 13.46 13.929 13.7191L13.8816 13.8441C13.7835 14.1032 13.9187 14.3911 14.1836 14.4872V14.4872Z" fill="#404040"/>
<path d="M22.1472 17.5804L22.1945 17.7055C22.2709 17.9074 22.4664 18.0322 22.6744 18.0322C22.7333 18.0322 22.7933 18.0222 22.8519 18.001C23.1169 17.9051 23.2522 17.6173 23.1542 17.3582L23.1068 17.2331C23.0087 16.9739 22.7145 16.8415 22.4494 16.9376C22.1844 17.0336 22.0491 17.3213 22.1472 17.5804Z" fill="#404040"/>
<path d="M22.435 15.4581C22.3369 15.199 22.0425 15.0666 21.7775 15.1626C21.5125 15.2585 21.3772 15.5464 21.4753 15.8054L21.5364 15.9668C21.6129 16.1686 21.8083 16.2935 22.0163 16.2935C22.0753 16.2935 22.1353 16.2835 22.1939 16.2622C22.4589 16.1663 22.5942 15.8785 22.4961 15.6194L22.435 15.4581Z" fill="#404040"/>
<path d="M21.7747 13.7191C21.6764 13.4599 21.3818 13.3279 21.1171 13.4239C20.8522 13.52 20.717 13.8079 20.8153 14.067L20.8627 14.192C20.9392 14.3937 21.1346 14.5186 21.3424 14.5186C21.4015 14.5186 21.4616 14.5085 21.5202 14.4872C21.7852 14.3911 21.9203 14.1032 21.8221 13.8442L21.7747 13.7191Z" fill="#404040"/>
<path d="M17.8515 14.5269C18.1341 14.5269 18.3632 14.3029 18.3632 14.0264V13.893C18.3632 13.6166 18.1341 13.3926 17.8515 13.3926C17.5689 13.3926 17.3398 13.6166 17.3398 13.893V14.0264C17.3398 14.3028 17.5689 14.5269 17.8515 14.5269Z" fill="#404040"/>
<path d="M17.3398 15.793C17.3398 16.0694 17.5689 16.2935 17.8515 16.2935C18.1341 16.2935 18.3632 16.0694 18.3632 15.793V15.6323C18.3632 15.3559 18.1341 15.1318 17.8515 15.1318C17.5689 15.1318 17.3398 15.3559 17.3398 15.6323V15.793Z" fill="#404040"/>
<path d="M17.3398 17.532C17.3398 17.8083 17.5689 18.0322 17.8515 18.0322C18.1341 18.0322 18.3632 17.8083 18.3632 17.532V17.3986C18.3632 17.1223 18.1341 16.8984 17.8515 16.8984C17.5689 16.8984 17.3398 17.1223 17.3398 17.3986V17.532Z" fill="#404040"/>
</svg>
