<svg width="82" height="100" viewBox="0 0 82 100" fill="none" xmlns="http://www.w3.org/2000/svg">
<path d="M39.3363 5.09246C40.1647 4.08537 41.7066 4.08537 42.535 5.09246C44.4864 7.46455 47.9019 8.00552 50.4907 6.35252C51.5898 5.65072 53.0562 6.12718 53.5329 7.34099C54.6557 10.2 57.7369 11.7699 60.7099 10.9978C61.972 10.67 63.2194 11.5763 63.2977 12.878C63.4821 15.944 65.9273 18.3893 68.9933 18.5736C70.2951 18.6519 71.2013 19.8993 70.8735 21.1615C70.1014 24.1344 71.6714 27.2156 74.5304 28.3384C75.7442 28.8151 76.2206 30.2815 75.5188 31.3806C73.8658 33.9694 74.4068 37.385 76.7789 39.3363C77.786 40.1647 77.786 41.7066 76.7789 42.535C74.4068 44.4864 73.8658 47.9019 75.5188 50.4907C76.2206 51.5898 75.7442 53.0562 74.5304 53.5329C71.6714 54.6557 70.1014 57.7369 70.8735 60.7099C71.2013 61.972 70.2951 63.2194 68.9934 63.2977C65.9273 63.4821 63.4821 65.9273 63.2977 68.9933C63.2194 70.2951 61.972 71.2013 60.7099 70.8735C57.7369 70.1014 54.6557 71.6714 53.5329 74.5304C53.0562 75.7442 51.5898 76.2206 50.4907 75.5188C47.9019 73.8658 44.4864 74.4068 42.5351 76.7789C41.7066 77.786 40.1647 77.786 39.3363 76.7789C37.385 74.4068 33.9694 73.8658 31.3806 75.5188C30.2815 76.2206 28.8151 75.7442 28.3384 74.5304C27.2156 71.6714 24.1344 70.1014 21.1615 70.8735C19.8993 71.2013 18.6519 70.2951 18.5736 68.9933C18.3893 65.9273 15.944 63.4821 12.878 63.2977C11.5763 63.2194 10.67 61.972 10.9978 60.7099C11.7699 57.7369 10.2 54.6557 7.34098 53.5329C6.12718 53.0562 5.65072 51.5898 6.35252 50.4907C8.00552 47.9019 7.46455 44.4864 5.09246 42.535C4.08537 41.7066 4.08537 40.1647 5.09246 39.3363C7.46455 37.385 8.00552 33.9694 6.35252 31.3806C5.65072 30.2815 6.12718 28.8151 7.34099 28.3384C10.2 27.2156 11.7699 24.1344 10.9978 21.1615C10.67 19.8993 11.5763 18.6519 12.878 18.5736C15.944 18.3893 18.3893 15.944 18.5736 12.878C18.6519 11.5763 19.8993 10.67 21.1615 10.9978C24.1344 11.7699 27.2156 10.2 28.3384 7.34099C28.8151 6.12718 30.2815 5.65072 31.3806 6.35252C33.9694 8.00552 37.385 7.46455 39.3363 5.09246Z" stroke="white" stroke-width="4"/>
<circle cx="40.937" cy="40.9357" r="27.7398" stroke="white" stroke-width="3"/>
<rect x="30.3809" y="38.2133" width="15.1986" height="4.09357" transform="rotate(45 30.3809 38.2133)" fill="white"/>
<rect x="54.8086" y="29.4896" width="4.09357" height="23.4422" transform="rotate(45 54.8086 29.4896)" fill="white"/>
<path d="M26.9004 75.7311L34.4314 76.0235L41.2778 77.3936L48.4665 76.2518L54.9706 75.7311V100L40.9355 94.2914L26.9004 100V75.7311Z" fill="white"/>
</svg>
