<svg width="237" height="79" viewBox="0 0 237 79" fill="none" xmlns="http://www.w3.org/2000/svg">
<path d="M131.977 19C131.017 19 130.537 18.384 130.537 17.152V5.536H130.369L125.425 18.112C125.185 18.704 124.849 19 124.417 19C123.969 19 123.625 18.704 123.385 18.112L118.777 5.536H118.609V17.656C118.609 18.12 118.505 18.464 118.297 18.688C118.105 18.896 117.881 19 117.625 19C117.369 19 117.153 18.912 116.977 18.736C116.801 18.56 116.713 18.288 116.713 17.92V3.256C116.713 2.856 116.865 2.544 117.169 2.32C117.473 2.096 117.833 1.984 118.249 1.984C118.601 1.984 118.945 2.08 119.281 2.272C119.633 2.448 119.889 2.736 120.049 3.136L124.657 15.88H124.777L129.793 3.256C129.953 2.808 130.209 2.488 130.561 2.296C130.929 2.088 131.321 1.984 131.737 1.984C132.153 1.984 132.457 2.088 132.649 2.296C132.857 2.504 132.961 2.824 132.961 3.256V17.8C132.961 18.248 132.889 18.56 132.745 18.736C132.601 18.912 132.345 19 131.977 19ZM153.143 19C152.183 19 151.703 18.384 151.703 17.152V5.536H151.535L146.591 18.112C146.351 18.704 146.015 19 145.583 19C145.135 19 144.791 18.704 144.551 18.112L139.943 5.536H139.775V17.656C139.775 18.12 139.671 18.464 139.463 18.688C139.271 18.896 139.047 19 138.791 19C138.535 19 138.319 18.912 138.143 18.736C137.967 18.56 137.879 18.288 137.879 17.92V3.256C137.879 2.856 138.031 2.544 138.335 2.32C138.639 2.096 138.999 1.984 139.415 1.984C139.767 1.984 140.111 2.08 140.447 2.272C140.799 2.448 141.055 2.736 141.215 3.136L145.823 15.88H145.943L150.959 3.256C151.119 2.808 151.375 2.488 151.727 2.296C152.095 2.088 152.487 1.984 152.903 1.984C153.319 1.984 153.623 2.088 153.815 2.296C154.023 2.504 154.127 2.824 154.127 3.256V17.8C154.127 18.248 154.055 18.56 153.911 18.736C153.767 18.912 153.511 19 153.143 19ZM169.462 6.304C168.998 6.304 168.646 6.184 168.406 5.944C168.182 5.704 168.07 5.304 168.07 4.744V3.4C167.558 3.272 166.91 3.208 166.126 3.208C165.07 3.208 164.126 3.488 163.294 4.048C162.478 4.608 161.83 5.448 161.35 6.568C160.87 7.688 160.63 9.056 160.63 10.672C160.63 13.296 161.07 15.136 161.95 16.192C162.846 17.248 164.158 17.776 165.886 17.776C167.038 17.776 167.998 17.616 168.766 17.296V12.112H166.078C165.886 12.112 165.734 12.048 165.622 11.92C165.526 11.792 165.478 11.64 165.478 11.464C165.478 11.288 165.534 11.136 165.646 11.008C165.774 10.864 165.942 10.792 166.15 10.792H170.23C170.646 10.792 170.926 10.872 171.07 11.032C171.214 11.176 171.286 11.416 171.286 11.752V16.72C171.286 17.168 171.222 17.488 171.094 17.68C170.982 17.856 170.79 18 170.518 18.112C169.702 18.432 168.886 18.664 168.07 18.808C167.27 18.936 166.39 19 165.43 19C162.854 19 160.958 18.28 159.742 16.84C158.526 15.384 157.918 13.312 157.918 10.624C157.918 8.704 158.27 7.096 158.974 5.8C159.678 4.504 160.622 3.544 161.806 2.92C163.006 2.296 164.35 1.984 165.838 1.984C167.134 1.984 168.358 2.16 169.51 2.512C169.894 2.64 170.15 2.784 170.278 2.944C170.422 3.088 170.494 3.336 170.494 3.688V5.104C170.494 5.52 170.406 5.824 170.23 6.016C170.07 6.208 169.814 6.304 169.462 6.304ZM126.385 26.304C125.921 26.304 125.569 26.184 125.329 25.944C125.105 25.704 124.993 25.304 124.993 24.744V23.4C124.401 23.272 123.817 23.208 123.241 23.208C121.721 23.208 120.513 23.848 119.617 25.128C118.737 26.392 118.297 28.248 118.297 30.696C118.297 33.304 118.729 35.136 119.593 36.192C120.457 37.232 121.729 37.752 123.409 37.752C124.401 37.752 125.449 37.52 126.553 37.056L127.009 36.864C127.105 36.832 127.169 36.816 127.201 36.816C127.361 36.816 127.497 36.896 127.609 37.056C127.721 37.2 127.777 37.36 127.777 37.536C127.777 37.76 127.673 37.92 127.465 38.016L127.057 38.184C126.401 38.456 125.737 38.664 125.065 38.808C124.409 38.936 123.633 39 122.737 39C120.305 39 118.505 38.28 117.337 36.84C116.169 35.384 115.585 33.32 115.585 30.648C115.585 28.712 115.897 27.096 116.521 25.8C117.161 24.504 118.033 23.544 119.137 22.92C120.241 22.296 121.505 21.984 122.929 21.984C124.209 21.984 125.377 22.152 126.432 22.488C126.817 22.616 127.073 22.76 127.201 22.92C127.345 23.064 127.417 23.312 127.417 23.664V25.104C127.417 25.52 127.329 25.824 127.153 26.016C126.993 26.208 126.737 26.304 126.385 26.304ZM137.258 36.72C136.73 37.504 136.122 38.08 135.434 38.448C134.762 38.816 133.962 39 133.034 39C131.85 39 130.946 38.712 130.322 38.136C129.714 37.544 129.41 36.752 129.41 35.76C129.41 34.544 129.858 33.544 130.754 32.76C131.666 31.96 133.234 31.56 135.458 31.56H137.21V30.888C137.21 29.8 137.018 29.032 136.634 28.584C136.266 28.136 135.658 27.912 134.81 27.912C134.01 27.912 133.306 28.248 132.698 28.92C132.186 29.48 131.698 29.76 131.234 29.76C130.962 29.76 130.754 29.688 130.61 29.544C130.466 29.384 130.394 29.184 130.394 28.944C130.394 28.64 130.506 28.384 130.73 28.176C130.954 27.968 131.282 27.776 131.714 27.6C132.226 27.392 132.802 27.232 133.442 27.12C134.098 27.008 134.714 26.952 135.29 26.952C136.442 26.952 137.338 27.112 137.978 27.432C138.634 27.752 139.09 28.224 139.346 28.848C139.602 29.472 139.73 30.288 139.73 31.296V37.872C139.73 38.256 139.666 38.544 139.538 38.736C139.41 38.912 139.162 39 138.794 39C138.266 39 137.89 38.824 137.666 38.472C137.442 38.104 137.33 37.528 137.33 36.744L137.258 36.72ZM135.842 32.568C133.218 32.568 131.906 33.52 131.906 35.424C131.906 36.736 132.602 37.392 133.994 37.392C134.426 37.392 134.89 37.288 135.386 37.08C135.898 36.856 136.33 36.536 136.682 36.12C137.05 35.688 137.234 35.176 137.234 34.584V32.568H135.842ZM143.519 27.984C143.519 27.6 143.599 27.336 143.759 27.192C143.919 27.032 144.183 26.952 144.551 26.952C144.999 26.952 145.343 27.128 145.583 27.48C145.839 27.816 145.967 28.328 145.967 29.016V29.184H146.015C146.431 28.512 146.999 27.976 147.719 27.576C148.439 27.16 149.271 26.952 150.215 26.952C152.471 26.952 153.599 28.16 153.599 30.576V37.872C153.599 38.256 153.527 38.544 153.383 38.736C153.255 38.912 153.007 39 152.639 39C152.095 39 151.703 38.848 151.463 38.544C151.223 38.24 151.103 37.736 151.103 37.032V31.032C151.103 30.152 150.911 29.52 150.527 29.136C150.159 28.752 149.671 28.56 149.063 28.56C148.615 28.56 148.151 28.688 147.671 28.944C147.191 29.184 146.791 29.52 146.471 29.952C146.167 30.368 146.015 30.824 146.015 31.32V37.296C146.015 37.984 145.895 38.44 145.655 38.664C145.431 38.888 145.039 39 144.479 39C144.111 39 143.855 38.912 143.711 38.736C143.583 38.544 143.519 38.256 143.519 37.872V27.984ZM157.561 27.984C157.561 27.6 157.641 27.336 157.801 27.192C157.961 27.032 158.225 26.952 158.593 26.952C159.041 26.952 159.385 27.128 159.625 27.48C159.881 27.816 160.009 28.328 160.009 29.016V29.184H160.057C160.473 28.512 161.041 27.976 161.761 27.576C162.481 27.16 163.313 26.952 164.257 26.952C166.513 26.952 167.641 28.16 167.641 30.576V37.872C167.641 38.256 167.569 38.544 167.425 38.736C167.297 38.912 167.049 39 166.681 39C166.137 39 165.745 38.848 165.505 38.544C165.265 38.24 165.145 37.736 165.145 37.032V31.032C165.145 30.152 164.953 29.52 164.569 29.136C164.201 28.752 163.713 28.56 163.105 28.56C162.657 28.56 162.193 28.688 161.713 28.944C161.233 29.184 160.833 29.52 160.513 29.952C160.209 30.368 160.057 30.824 160.057 31.32V37.296C160.057 37.984 159.937 38.44 159.697 38.664C159.473 38.888 159.081 39 158.521 39C158.153 39 157.897 38.912 157.753 38.736C157.625 38.544 157.561 38.256 157.561 37.872V27.984ZM178.563 36.72C178.035 37.504 177.427 38.08 176.739 38.448C176.067 38.816 175.267 39 174.339 39C173.155 39 172.251 38.712 171.627 38.136C171.019 37.544 170.715 36.752 170.715 35.76C170.715 34.544 171.163 33.544 172.059 32.76C172.971 31.96 174.539 31.56 176.763 31.56H178.515V30.888C178.515 29.8 178.323 29.032 177.939 28.584C177.571 28.136 176.963 27.912 176.115 27.912C175.315 27.912 174.611 28.248 174.003 28.92C173.491 29.48 173.003 29.76 172.539 29.76C172.267 29.76 172.059 29.688 171.915 29.544C171.771 29.384 171.699 29.184 171.699 28.944C171.699 28.64 171.811 28.384 172.035 28.176C172.259 27.968 172.587 27.776 173.019 27.6C173.531 27.392 174.107 27.232 174.747 27.12C175.403 27.008 176.019 26.952 176.595 26.952C177.747 26.952 178.643 27.112 179.283 27.432C179.939 27.752 180.395 28.224 180.651 28.848C180.907 29.472 181.035 30.288 181.035 31.296V37.872C181.035 38.256 180.971 38.544 180.843 38.736C180.715 38.912 180.467 39 180.099 39C179.571 39 179.195 38.824 178.971 38.472C178.747 38.104 178.635 37.528 178.635 36.744L178.563 36.72ZM177.147 32.568C174.523 32.568 173.211 33.52 173.211 35.424C173.211 36.736 173.907 37.392 175.299 37.392C175.731 37.392 176.195 37.288 176.691 37.08C177.203 36.856 177.635 36.536 177.987 36.12C178.355 35.688 178.539 35.176 178.539 34.584V32.568H177.147ZM126.385 46.304C125.921 46.304 125.569 46.184 125.329 45.944C125.105 45.704 124.993 45.304 124.993 44.744V43.4C124.401 43.272 123.817 43.208 123.241 43.208C121.721 43.208 120.513 43.848 119.617 45.128C118.737 46.392 118.297 48.248 118.297 50.696C118.297 53.304 118.729 55.136 119.593 56.192C120.457 57.232 121.729 57.752 123.409 57.752C124.401 57.752 125.449 57.52 126.553 57.056L127.009 56.864C127.105 56.832 127.169 56.816 127.201 56.816C127.361 56.816 127.497 56.896 127.609 57.056C127.721 57.2 127.777 57.36 127.777 57.536C127.777 57.76 127.673 57.92 127.465 58.016L127.057 58.184C126.401 58.456 125.737 58.664 125.065 58.808C124.409 58.936 123.633 59 122.737 59C120.305 59 118.505 58.28 117.337 56.84C116.169 55.384 115.585 53.32 115.585 50.648C115.585 48.712 115.897 47.096 116.521 45.8C117.161 44.504 118.033 43.544 119.137 42.92C120.241 42.296 121.505 41.984 122.929 41.984C124.209 41.984 125.377 42.152 126.432 42.488C126.817 42.616 127.073 42.76 127.201 42.92C127.345 43.064 127.417 43.312 127.417 43.664V45.104C127.417 45.52 127.329 45.824 127.153 46.016C126.993 46.208 126.737 46.304 126.385 46.304ZM135.074 59C133.33 59 131.978 58.496 131.018 57.488C130.058 56.48 129.578 54.976 129.578 52.976C129.578 50.944 130.066 49.432 131.042 48.44C132.018 47.448 133.362 46.952 135.074 46.952C136.786 46.952 138.13 47.448 139.106 48.44C140.082 49.432 140.57 50.944 140.57 52.976C140.57 54.976 140.09 56.48 139.13 57.488C138.17 58.496 136.818 59 135.074 59ZM135.074 58.04C136.018 58.04 136.738 57.68 137.234 56.96C137.73 56.224 137.978 54.896 137.978 52.976C137.978 51.088 137.722 49.776 137.21 49.04C136.698 48.288 135.986 47.912 135.074 47.912C134.178 47.912 133.466 48.288 132.938 49.04C132.426 49.792 132.17 51.104 132.17 52.976C132.17 54.88 132.418 56.2 132.914 56.936C133.41 57.672 134.13 58.04 135.074 58.04ZM143.801 47.984C143.801 47.6 143.881 47.336 144.041 47.192C144.201 47.032 144.465 46.952 144.833 46.952C145.281 46.952 145.625 47.128 145.865 47.48C146.121 47.816 146.249 48.328 146.249 49.016V49.184H146.297C146.713 48.512 147.281 47.976 148.001 47.576C148.721 47.16 149.553 46.952 150.497 46.952C152.753 46.952 153.881 48.16 153.881 50.576V57.872C153.881 58.256 153.809 58.544 153.665 58.736C153.537 58.912 153.289 59 152.921 59C152.377 59 151.985 58.848 151.745 58.544C151.505 58.24 151.385 57.736 151.385 57.032V51.032C151.385 50.152 151.193 49.52 150.809 49.136C150.441 48.752 149.953 48.56 149.345 48.56C148.897 48.56 148.433 48.688 147.953 48.944C147.473 49.184 147.073 49.52 146.753 49.952C146.449 50.368 146.297 50.824 146.297 51.32V57.296C146.297 57.984 146.177 58.44 145.937 58.664C145.713 58.888 145.321 59 144.761 59C144.393 59 144.137 58.912 143.993 58.736C143.865 58.544 143.801 58.256 143.801 57.872V47.984ZM164.299 56.072C164.299 55.624 164.163 55.256 163.891 54.968C163.635 54.664 163.299 54.424 162.883 54.248C162.483 54.056 161.907 53.832 161.155 53.576C160.243 53.272 159.523 52.992 158.995 52.736C158.483 52.48 158.067 52.152 157.747 51.752C157.427 51.336 157.267 50.8 157.267 50.144C157.267 49.312 157.515 48.664 158.011 48.2C158.523 47.72 159.115 47.392 159.787 47.216C160.459 47.04 161.099 46.952 161.707 46.952C163.035 46.952 164.075 47.152 164.827 47.552C165.195 47.744 165.499 47.976 165.739 48.248C165.979 48.52 166.099 48.824 166.099 49.16C166.099 49.416 166.003 49.624 165.811 49.784C165.635 49.944 165.419 50.024 165.163 50.024C164.827 50.024 164.555 49.952 164.347 49.808C164.155 49.664 163.995 49.448 163.867 49.16C163.691 48.776 163.435 48.472 163.099 48.248C162.763 48.024 162.307 47.912 161.731 47.912C161.139 47.912 160.643 48.064 160.243 48.368C159.859 48.656 159.667 49.096 159.667 49.688C159.667 50.088 159.787 50.432 160.027 50.72C160.267 50.992 160.579 51.216 160.963 51.392C161.347 51.568 161.883 51.776 162.571 52.016C163.467 52.336 164.187 52.624 164.731 52.88C165.291 53.136 165.763 53.472 166.147 53.888C166.547 54.304 166.747 54.816 166.747 55.424C166.747 56.496 166.283 57.36 165.355 58.016C164.443 58.672 163.251 59 161.779 59C161.091 59 160.435 58.928 159.811 58.784C159.203 58.64 158.691 58.456 158.275 58.232C157.491 57.832 157.099 57.304 157.099 56.648C157.099 56.392 157.195 56.184 157.387 56.024C157.595 55.848 157.811 55.76 158.035 55.76C158.659 55.76 159.099 56.048 159.355 56.624C159.563 57.04 159.843 57.384 160.195 57.656C160.563 57.912 161.107 58.04 161.827 58.04C162.531 58.04 163.115 57.88 163.579 57.56C164.059 57.224 164.299 56.728 164.299 56.072ZM172.318 54.92C172.318 55.8 172.502 56.432 172.87 56.816C173.254 57.2 173.75 57.392 174.358 57.392C174.806 57.392 175.27 57.272 175.75 57.032C176.23 56.776 176.622 56.44 176.926 56.024C177.246 55.592 177.406 55.128 177.406 54.632V48.68C177.406 47.992 177.518 47.536 177.742 47.312C177.982 47.072 178.382 46.952 178.942 46.952C179.31 46.952 179.558 47.048 179.686 47.24C179.83 47.416 179.902 47.696 179.902 48.08V57.968C179.902 58.352 179.822 58.624 179.662 58.784C179.502 58.928 179.238 59 178.87 59C178.406 59 178.054 58.84 177.814 58.52C177.574 58.2 177.454 57.672 177.454 56.936V56.768H177.406C176.99 57.44 176.422 57.984 175.702 58.4C174.982 58.8 174.15 59 173.206 59C170.95 59 169.822 57.792 169.822 55.376V48.08C169.822 47.696 169.886 47.416 170.014 47.24C170.158 47.048 170.414 46.952 170.782 46.952C171.326 46.952 171.718 47.104 171.958 47.408C172.198 47.712 172.318 48.216 172.318 48.92V54.92ZM186.48 57.368C186.48 58.04 186.368 58.48 186.144 58.688C185.92 58.896 185.52 59 184.944 59C184.576 59 184.32 58.912 184.176 58.736C184.048 58.544 183.984 58.256 183.984 57.872V41.888C183.984 41.504 184.048 41.224 184.176 41.048C184.32 40.856 184.576 40.76 184.944 40.76C185.488 40.76 185.88 40.912 186.12 41.216C186.36 41.52 186.48 42.024 186.48 42.728V57.368ZM194.914 59C193.554 59 192.602 58.672 192.058 58.016C191.53 57.344 191.266 56.408 191.266 55.208V48.128H189.826C189.634 48.128 189.482 48.08 189.37 47.984C189.258 47.888 189.202 47.752 189.202 47.576C189.202 47.448 189.242 47.352 189.322 47.288C189.418 47.208 189.586 47.12 189.826 47.024C190.146 46.88 190.418 46.736 190.642 46.592C190.866 46.448 191.106 46.24 191.362 45.968C191.698 45.616 192.01 45.168 192.298 44.624C192.458 44.352 192.586 44.168 192.682 44.072C192.794 43.976 192.938 43.928 193.114 43.928C193.386 43.928 193.562 44.024 193.642 44.216C193.722 44.408 193.762 44.752 193.762 45.248V46.952H196.666C196.842 46.952 196.978 47.016 197.074 47.144C197.186 47.256 197.242 47.392 197.242 47.552C197.242 47.712 197.186 47.848 197.074 47.96C196.978 48.072 196.842 48.128 196.666 48.128H193.762V55.76C193.762 56.512 193.898 57.064 194.17 57.416C194.458 57.768 194.802 57.944 195.202 57.944C195.682 57.944 196.05 57.824 196.306 57.584C196.562 57.344 196.81 57.008 197.05 56.576C197.21 56.272 197.354 56.048 197.482 55.904C197.626 55.76 197.802 55.688 198.01 55.688C198.202 55.688 198.354 55.744 198.466 55.856C198.578 55.952 198.634 56.088 198.634 56.264C198.634 56.392 198.594 56.552 198.514 56.744C198.434 56.92 198.354 57.064 198.274 57.176C197.874 57.784 197.378 58.24 196.786 58.544C196.194 58.848 195.57 59 194.914 59ZM203.524 57.368C203.524 58.04 203.412 58.48 203.188 58.688C202.964 58.896 202.564 59 201.988 59C201.62 59 201.364 58.912 201.22 58.736C201.092 58.544 201.028 58.256 201.028 57.872V48.08C201.028 47.696 201.092 47.416 201.22 47.24C201.364 47.048 201.62 46.952 201.988 46.952C202.516 46.952 202.9 47.088 203.14 47.36C203.396 47.616 203.524 48.016 203.524 48.56V57.368ZM200.74 43.904C200.74 43.488 200.884 43.136 201.172 42.848C201.46 42.56 201.812 42.416 202.228 42.416C202.628 42.416 202.972 42.56 203.26 42.848C203.564 43.136 203.716 43.488 203.716 43.904C203.716 44.304 203.564 44.656 203.26 44.96C202.972 45.248 202.628 45.392 202.228 45.392C201.812 45.392 201.46 45.248 201.172 44.96C200.884 44.656 200.74 44.304 200.74 43.904ZM207.614 47.984C207.614 47.6 207.694 47.336 207.854 47.192C208.014 47.032 208.278 46.952 208.646 46.952C209.094 46.952 209.438 47.128 209.678 47.48C209.934 47.816 210.062 48.328 210.062 49.016V49.184H210.11C210.526 48.512 211.094 47.976 211.814 47.576C212.534 47.16 213.366 46.952 214.31 46.952C216.566 46.952 217.694 48.16 217.694 50.576V57.872C217.694 58.256 217.622 58.544 217.478 58.736C217.35 58.912 217.102 59 216.734 59C216.19 59 215.798 58.848 215.558 58.544C215.318 58.24 215.198 57.736 215.198 57.032V51.032C215.198 50.152 215.006 49.52 214.622 49.136C214.254 48.752 213.766 48.56 213.158 48.56C212.71 48.56 212.246 48.688 211.766 48.944C211.286 49.184 210.886 49.52 210.566 49.952C210.262 50.368 210.11 50.824 210.11 51.32V57.296C210.11 57.984 209.99 58.44 209.75 58.664C209.526 58.888 209.134 59 208.574 59C208.206 59 207.95 58.912 207.806 58.736C207.678 58.544 207.614 58.256 207.614 57.872V47.984ZM226.048 63.32C226.768 63.32 227.408 63.176 227.968 62.888C228.544 62.616 228.992 62.256 229.312 61.808C229.632 61.36 229.792 60.904 229.792 60.44C229.792 59.656 229.376 59.104 228.544 58.784C227.728 58.448 226.624 58.232 225.232 58.136C223.856 58.04 222.8 57.824 222.064 57.488C221.344 57.136 220.984 56.616 220.984 55.928C220.984 55.512 221.136 55.184 221.44 54.944C221.744 54.704 222.192 54.448 222.784 54.176C223.328 53.952 223.712 53.76 223.936 53.6V53.528C223.344 53.288 222.896 52.904 222.592 52.376C222.304 51.848 222.16 51.304 222.16 50.744C222.16 49.464 222.624 48.512 223.552 47.888C224.48 47.264 225.624 46.952 226.984 46.952C227.464 46.952 227.992 47.016 228.568 47.144C229.16 47.256 229.632 47.44 229.984 47.696C230.064 47.664 230.12 47.6 230.152 47.504C230.184 47.392 230.208 47.296 230.224 47.216C230.24 47.136 230.256 47.072 230.272 47.024C230.32 46.64 230.416 46.344 230.56 46.136C230.704 45.912 230.992 45.8 231.424 45.8C231.648 45.8 231.84 45.904 232 46.112C232.176 46.304 232.264 46.536 232.264 46.808C232.264 47.32 231.808 47.848 230.896 48.392C231.168 48.68 231.384 49.024 231.544 49.424C231.704 49.808 231.784 50.2 231.784 50.6C231.784 51.32 231.56 51.952 231.112 52.496C230.68 53.04 230.096 53.464 229.36 53.768C228.64 54.072 227.856 54.224 227.008 54.224C226.176 54.224 225.536 54.152 225.088 54.008C224.88 54.168 224.68 54.304 224.488 54.416C224.184 54.608 223.976 54.76 223.864 54.872C223.768 54.984 223.72 55.144 223.72 55.352C223.72 55.608 223.904 55.824 224.272 56C224.656 56.16 225.36 56.264 226.384 56.312C228.352 56.408 229.824 56.768 230.8 57.392C231.776 58.016 232.264 58.8 232.264 59.744C232.264 60.608 231.984 61.384 231.424 62.072C230.88 62.76 230.088 63.296 229.048 63.68C228.008 64.08 226.792 64.28 225.4 64.28C224.088 64.28 223.032 64 222.232 63.44C221.448 62.896 221.056 62.192 221.056 61.328C221.056 60.848 221.184 60.424 221.44 60.056C221.696 59.688 221.992 59.4 222.328 59.192C222.664 58.984 222.944 58.88 223.168 58.88C223.344 58.88 223.48 58.928 223.576 59.024C223.672 59.12 223.72 59.232 223.72 59.36C223.72 59.44 223.64 59.576 223.48 59.768C223.32 59.96 223.184 60.152 223.072 60.344C222.976 60.552 222.928 60.824 222.928 61.16C222.928 61.8 223.224 62.32 223.816 62.72C224.424 63.12 225.168 63.32 226.048 63.32ZM229.312 50.552C229.312 49.768 229.104 49.136 228.688 48.656C228.288 48.16 227.72 47.912 226.984 47.912C226.264 47.912 225.688 48.16 225.256 48.656C224.84 49.136 224.632 49.8 224.632 50.648C224.632 51.432 224.84 52.064 225.256 52.544C225.672 53.024 226.248 53.264 226.984 53.264C227.688 53.264 228.248 53.016 228.664 52.52C229.096 52.024 229.312 51.368 229.312 50.552ZM126.145 74.512C126.497 74.512 126.753 74.608 126.913 74.8C127.089 74.992 127.177 75.296 127.177 75.712V78.232C127.177 78.504 127.057 78.704 126.817 78.832C126.577 78.944 126.217 79 125.737 79H117.817C117.449 79 117.169 78.904 116.977 78.712C116.801 78.52 116.713 78.216 116.713 77.8V63.184C116.713 62.752 116.793 62.448 116.953 62.272C117.113 62.08 117.385 61.984 117.769 61.984C118.265 61.984 118.641 62.144 118.897 62.464C119.169 62.768 119.305 63.224 119.305 63.832V77.728H124.753V76.072C124.753 75.512 124.865 75.112 125.089 74.872C125.329 74.632 125.681 74.512 126.145 74.512ZM130.543 63.184C130.543 62.768 130.631 62.464 130.807 62.272C130.999 62.08 131.279 61.984 131.647 61.984H135.079C140.695 61.984 143.503 64.792 143.503 70.408C143.503 72.504 143.063 74.2 142.183 75.496C141.319 76.776 140.255 77.68 138.991 78.208C137.743 78.736 136.479 79 135.199 79H131.647C131.279 79 130.999 78.904 130.807 78.712C130.631 78.52 130.543 78.216 130.543 77.8V63.184ZM133.135 77.728H133.663V77.704H134.791C136.567 77.704 138.007 77.104 139.111 75.904C140.231 74.704 140.791 72.872 140.791 70.408C140.791 67.912 140.239 66.096 139.135 64.96C138.047 63.824 136.599 63.256 134.791 63.256H133.135V77.728ZM147.142 77.728C146.95 78.24 146.726 78.584 146.47 78.76C146.23 78.92 145.966 79 145.678 79C145.454 79 145.286 78.944 145.174 78.832C145.078 78.704 145.03 78.544 145.03 78.352C145.03 78.16 145.07 77.96 145.15 77.752L150.79 62.56C150.854 62.384 151.006 62.248 151.246 62.152C151.502 62.04 151.79 61.984 152.11 61.984C152.462 61.984 152.774 62.04 153.046 62.152C153.334 62.264 153.51 62.424 153.574 62.632L159.07 77.848C159.102 78.008 159.118 78.128 159.118 78.208C159.118 78.432 159.038 78.624 158.878 78.784C158.734 78.928 158.502 79 158.182 79C157.846 79 157.502 78.912 157.15 78.736C156.814 78.56 156.558 78.224 156.382 77.728L155.11 74.44H148.366L147.142 77.728ZM151.846 64.816H151.702L148.75 73.192H154.75L151.846 64.816Z" fill="#404040"/>
<line x1="96.9355" y1="3" x2="96.9355" y2="77.7219" stroke="#404040" stroke-width="2" stroke-linecap="round"/>
<path d="M75.4404 77.5953V32.6382L38.2808 3.12109L1.12109 32.6382V77.5953H75.4404Z" fill="#F4FBFF"/>
<path d="M20.8633 77.5953H75.4406V32.6382C75.4406 32.6382 69.7005 28.0787 66.3257 25.3981C62.0317 41.0433 50.7057 64.6107 20.8633 77.5953Z" fill="#E4F6FF"/>
<path d="M20.9096 40.2758C20.9096 40.2758 17.3908 44.5001 17.3908 50.3151C17.3908 51.2441 17.4813 52.1447 17.6323 53.0028C17.2833 52.5457 16.9004 52.099 16.4763 51.6741C12.725 47.9151 7.6411 47.5482 7.6411 47.5482C7.6411 47.5482 8.00731 52.6427 11.7586 56.4016C12.4723 57.1168 13.2456 57.72 14.03 58.229C13.7749 58.21 13.5162 58.1996 13.2542 58.1996C9.0264 58.1996 5.95508 60.8441 5.95508 60.8441C5.95508 60.8441 9.0264 63.4886 13.2542 63.4886C13.7538 63.4886 14.2418 63.4507 14.7147 63.3855C13.7555 65.2699 14.1654 67.6024 14.1654 67.6024C14.1654 67.6024 17.0969 67.75 19.0036 65.8394C20.0162 64.8247 20.6163 63.4531 20.9096 62.6072C21.2028 63.4531 21.8029 64.8247 22.8156 65.8394C24.7223 67.7501 27.6538 67.6024 27.6538 67.6024C27.6538 67.6024 28.0635 65.27 27.1044 63.3855C27.5774 63.4507 28.0653 63.4886 28.5649 63.4886C32.7928 63.4886 35.8641 60.8441 35.8641 60.8441C35.8641 60.8441 32.7928 58.1996 28.5649 58.1996C28.3031 58.1996 28.0442 58.2098 27.7891 58.229C28.5736 57.72 29.347 57.1168 30.0606 56.4016C33.8118 52.6425 34.1781 47.5482 34.1781 47.5482C34.1781 47.5482 29.0941 47.9151 25.343 51.6742C24.9189 52.0992 24.536 52.5459 24.187 53.0029C24.3378 52.1447 24.4285 51.2443 24.4285 50.3152C24.4283 44.5001 20.9096 40.2758 20.9096 40.2758V40.2758Z" fill="#B3E59F"/>
<path d="M14.9688 78.0549C14.9688 74.7109 17.674 72 21.011 72C24.348 72 27.0533 74.7109 27.0533 78.0549H14.9688Z" fill="#9D6B6B"/>
<path d="M55.6536 40.2758C55.6536 40.2758 52.1348 44.5001 52.1348 50.3151C52.1348 51.2441 52.2253 52.1447 52.3763 53.0027C52.0273 52.5457 51.6444 52.099 51.2203 51.674C47.469 47.915 42.3852 47.548 42.3852 47.548C42.3852 47.548 42.7515 52.6425 46.5027 56.4014C47.2164 57.1166 47.9897 57.7198 48.7742 58.2288C48.5191 58.2098 48.2604 58.1994 47.9984 58.1994C43.7705 58.1994 40.6992 60.8439 40.6992 60.8439C40.6992 60.8439 43.7705 63.4885 47.9984 63.4885C48.498 63.4885 48.9859 63.4505 49.4589 63.3854C48.4996 65.2697 48.9095 67.6022 48.9095 67.6022C48.9095 67.6022 51.841 67.7498 53.7477 65.8393C54.7604 64.8245 55.3605 63.4529 55.6537 62.6071C55.947 63.4529 56.547 64.8245 57.5597 65.8393C59.4664 67.75 62.3979 67.6022 62.3979 67.6022C62.3979 67.6022 62.8077 65.2698 61.8485 63.3854C62.3215 63.4505 62.8095 63.4885 63.3091 63.4885C67.5369 63.4885 70.6082 60.8439 70.6082 60.8439C70.6082 60.8439 67.5369 58.1994 63.3091 58.1994C63.0472 58.1994 62.7884 58.2096 62.5333 58.2288C63.3177 57.7198 64.0911 57.1166 64.8047 56.4014C68.556 52.6424 68.9222 47.548 68.9222 47.548C68.9222 47.548 63.8383 47.915 60.0872 51.674C59.6631 52.099 59.2801 52.5457 58.9311 53.0027C59.082 52.1446 59.1726 51.2441 59.1726 50.3151C59.1723 44.5001 55.6536 40.2758 55.6536 40.2758V40.2758Z" fill="#B3E59F"/>
<path d="M49.6133 77.5952C49.6133 74.2512 52.3185 71.5403 55.6555 71.5403C58.9924 71.5403 61.6976 74.2512 61.6976 77.5952H49.6133Z" fill="#9D6B6B"/>
<path d="M29.2188 21.2854H47.3456V26.1292H29.2188V21.2854Z" fill="#FFE07D"/>
<path d="M76.1376 31.7572L38.9779 2.24039C38.5837 1.91987 37.9786 1.91987 37.5845 2.24039L0.424832 31.7572C0.156415 31.9704 0 32.2948 0 32.638V66.9291C0 67.5499 0.501992 68.0529 1.12152 68.0529C1.74105 68.0529 2.24304 67.5499 2.24304 66.9291V33.1812L37.1597 5.44593V20.1615H29.2178C28.5983 20.1615 28.0963 20.6646 28.0963 21.2854V26.1285C28.0963 26.7493 28.5983 27.2523 29.2178 27.2523H33.082C33.7015 27.2523 34.2035 26.7493 34.2035 26.1285C34.2035 25.5077 33.7015 25.0046 33.082 25.0046H30.3394V22.4093H46.2231V25.0046H38.3156C37.6961 25.0046 37.1941 25.5077 37.1941 26.1285C37.1941 26.7493 37.6961 27.2523 38.3156 27.2523H47.3446C47.9641 27.2523 48.4661 26.7493 48.4661 26.1285V21.2854C48.4661 20.6646 47.9641 20.1615 47.3446 20.1615H39.4027V5.44593L74.3194 33.1812V40.9274C74.3194 41.5482 74.8214 42.0513 75.4409 42.0513C76.0604 42.0513 76.5624 41.5482 76.5624 40.9274V32.638C76.5624 32.2948 76.406 31.9704 76.1376 31.7572V31.7572Z" fill="#404040"/>
<path d="M75.4409 45.0484C74.8214 45.0484 74.3194 45.5514 74.3194 46.1722V76.4714H62.728C62.2457 73.4113 59.8279 70.9885 56.7742 70.5052V66.6423C59.0072 68.8713 62.3132 68.7319 62.4533 68.7249C62.9757 68.6985 63.4106 68.3137 63.5015 67.7975C63.5159 67.7155 63.7628 66.2557 63.4345 64.6119C67.9593 64.5612 71.2011 61.8147 71.3381 61.6967C71.586 61.4832 71.7287 61.172 71.7287 60.8444C71.7287 60.5168 71.586 60.2054 71.3381 59.9921C71.223 59.893 68.9194 57.941 65.5054 57.2872C65.5361 57.257 65.5665 57.2269 65.5968 57.1965C69.5974 53.1875 70.0235 47.8541 70.0397 47.6291C70.063 47.3037 69.9443 46.9843 69.7141 46.7535C69.4839 46.5229 69.1673 46.4035 68.8404 46.4273C68.634 46.4423 64.1234 46.8041 60.2889 49.9731C60.1589 44 56.665 39.7373 56.5135 39.5556C56.3005 39.2998 55.9851 39.1519 55.6525 39.1519C55.32 39.1519 55.0046 39.2996 54.7915 39.5556C54.64 39.7373 51.146 43.9999 51.016 49.973C47.1815 46.804 42.6709 46.4423 42.4645 46.4273C42.1388 46.4041 41.8209 46.5229 41.5907 46.7535C41.3606 46.9843 41.2419 47.3037 41.2652 47.6291C41.2814 47.8541 41.7075 53.1875 45.7082 57.1967C45.7386 57.2269 45.7689 57.257 45.7996 57.2872C42.3857 57.9408 40.0819 59.893 39.9669 59.9921C39.719 60.2056 39.5764 60.5168 39.5764 60.8444C39.5764 61.172 39.719 61.4833 39.9669 61.6967C40.1039 61.8147 43.3457 64.5612 47.8705 64.6119C47.5423 66.2557 47.7893 67.7156 47.8037 67.7975C47.8944 68.3137 48.3294 68.6986 48.8519 68.7249C48.8699 68.7258 48.9395 68.7288 49.0524 68.7288C49.8206 68.7288 52.5837 68.5858 54.531 66.6424V70.5051C51.4773 70.9883 49.0593 73.4112 48.5771 76.4712H27.9852C27.503 73.4112 25.085 70.9883 22.0313 70.5051V66.6423C24.2645 68.8713 27.5701 68.7318 27.7104 68.7247C28.2328 68.6983 28.6677 68.3135 28.7586 67.7973C28.773 67.7155 29.02 66.2555 28.6918 64.6117C33.2166 64.5611 36.4584 61.8145 36.5954 61.6966C36.8433 61.483 36.9859 61.1718 36.9859 60.8442C36.9859 60.5167 36.8433 60.2053 36.5954 59.9919C36.4804 59.8929 34.1766 57.9408 30.7627 57.287C30.7934 57.2569 30.8237 57.2268 30.8541 57.1965C34.8548 53.1873 35.2809 47.854 35.2971 47.6289C35.3204 47.3036 35.2017 46.9841 34.9715 46.7533C34.7413 46.5227 34.4242 46.4033 34.0978 46.4271C33.8914 46.4421 29.3808 46.8038 25.5463 49.9728C25.4163 43.9999 21.9223 39.7372 21.7708 39.5554C21.5577 39.2995 21.2423 39.1517 20.9098 39.1517C20.5772 39.1517 20.2618 39.2996 20.0487 39.5554C19.8973 39.7372 16.4034 43.9997 16.2734 49.973C12.4389 46.804 7.92825 46.4421 7.72189 46.4271C7.3956 46.4039 7.07844 46.5227 6.84815 46.7533C6.61802 46.9841 6.49928 47.3036 6.52261 47.6289C6.53876 47.854 6.96494 53.1873 10.9655 57.1965C10.9958 57.2268 11.0262 57.2569 11.0568 57.287C7.64294 57.9407 5.33933 59.8929 5.22419 59.9919C4.97626 60.2054 4.8336 60.5167 4.8336 60.8442C4.8336 61.1718 4.97626 61.4832 5.22419 61.6966C5.36117 61.8145 8.60311 64.5611 13.1278 64.6117C12.7995 66.2555 13.0464 67.7153 13.0608 67.7973C13.1515 68.3135 13.5865 68.6985 14.109 68.7247C14.127 68.7256 14.1967 68.7286 14.3095 68.7286C15.0779 68.7286 17.8411 68.5857 19.7881 66.6421V70.5049C16.7344 70.9882 14.3166 73.4111 13.8343 76.4711H2.24304V72.1735C2.24304 71.5526 1.74105 71.0496 1.12152 71.0496C0.501992 71.0496 0 71.5526 0 72.1735V77.5949C0 78.2158 0.501992 78.7188 1.12152 78.7188H75.4409C76.0604 78.7188 76.5624 78.2158 76.5624 77.5949V46.1719C76.5624 45.5514 76.0604 45.0484 75.4409 45.0484V45.0484ZM52.9535 65.0448C52.0435 65.9569 50.7989 66.2915 49.9432 66.4132C49.9402 65.702 50.0333 64.7287 50.4569 63.8965C50.6468 63.5237 50.6141 63.0759 50.3721 62.7347C50.1601 62.4358 49.8181 62.262 49.4581 62.262C49.4074 62.262 49.3563 62.2652 49.3055 62.2723C48.8594 62.3337 48.4192 62.3649 47.9975 62.3649C45.7634 62.3649 43.8625 61.5248 42.6892 60.8444C43.8631 60.1635 45.7637 59.3237 47.9975 59.3237C48.2243 59.3237 48.4571 59.3326 48.6901 59.35C49.1984 59.3885 49.6729 59.0744 49.8363 58.5874C49.9998 58.1007 49.8131 57.5648 49.3829 57.2857C48.6058 56.7816 47.9033 56.2168 47.295 55.6071C45.0642 53.3718 44.1291 50.5779 43.7493 48.9126C45.4071 49.2895 48.1845 50.2225 50.4264 52.469C50.791 52.8343 51.1472 53.2438 51.4851 53.686C51.7994 54.0971 52.3536 54.2403 52.8267 54.0317C53.3 53.8233 53.5699 53.3179 53.4801 52.8076C53.3311 51.9611 53.2556 51.1224 53.2556 50.3151C53.2556 46.7758 54.687 43.834 55.6528 42.2519C56.6185 43.834 58.0499 46.7757 58.0499 50.3151C58.0499 51.123 57.9744 51.9616 57.8256 52.8076C57.7357 53.3179 58.0056 53.8234 58.4789 54.0319C58.9525 54.2403 59.5065 54.0975 59.8207 53.6857C60.1579 53.2443 60.5141 52.8348 60.8793 52.469C63.1079 50.2355 65.8929 49.2982 67.5551 48.917C67.1746 50.5836 66.2392 53.3741 64.0108 55.6071C63.4025 56.2168 62.7 56.7816 61.9229 57.2857C61.4926 57.5647 61.306 58.1005 61.4695 58.5874C61.6329 59.0742 62.1045 59.3867 62.6157 59.35C62.8486 59.3326 63.0815 59.3237 63.3082 59.3237C65.5455 59.3237 67.4485 60.1662 68.6213 60.8472C67.4538 61.5272 65.5587 62.365 63.3082 62.365C62.8865 62.365 62.4462 62.3339 62.0002 62.2724C61.5854 62.2153 61.1752 62.3938 60.9334 62.7349C60.6914 63.0761 60.6587 63.5238 60.8486 63.8966C61.2721 64.7286 61.3649 65.7017 61.3624 66.4121C60.5057 66.2898 59.2596 65.9545 58.3519 65.0449C57.5346 64.226 57.0299 63.1045 56.7745 62.4115V62.2041L58.6694 60.3052C59.1074 59.8662 59.1074 59.1547 58.6694 58.7158C58.2313 58.2771 57.5213 58.2771 57.0833 58.7158L56.7746 59.0251V58.1737C56.7746 57.5528 56.2726 57.0498 55.6531 57.0498C55.0336 57.0498 54.5316 57.5528 54.5316 58.1737V59.0251L54.223 58.7158C53.7848 58.2771 53.0748 58.2771 52.6368 58.7158C52.1988 59.1549 52.1988 59.8663 52.6368 60.3052L54.5317 62.2041V62.4113C54.2757 63.1041 53.7711 64.2256 52.9535 65.0448V65.0448ZM55.6527 72.6642C57.98 72.6642 59.9337 74.2923 60.4429 76.4712H50.8624C51.3715 74.2924 53.3251 72.6642 55.6527 72.6642ZM18.2106 65.0449C17.3009 65.9566 16.0569 66.2912 15.2012 66.413C15.1987 65.7014 15.2916 64.7265 15.7141 63.8965C15.9041 63.5237 15.8713 63.0759 15.6294 62.7347C15.4173 62.4358 15.0753 62.262 14.7154 62.262C14.6647 62.262 14.6136 62.2652 14.5627 62.2723C14.1166 62.3337 13.6764 62.3649 13.2547 62.3649C11.0174 62.3649 9.11437 61.5226 7.94156 60.8415C9.10914 60.1615 11.0042 59.3236 13.2547 59.3236C13.4814 59.3236 13.7142 59.3324 13.9472 59.3498C14.4568 59.3883 14.9301 59.0742 15.0934 58.5872C15.2569 58.1005 15.0702 57.5647 14.64 57.2855C13.8629 56.7814 13.1604 56.2167 12.5521 55.6071C10.3214 53.3717 9.38638 50.5777 9.00655 48.9125C10.6643 49.2894 13.4416 50.2223 15.6835 52.4688C16.0487 52.8346 16.4048 53.2441 16.7421 53.6856C17.0564 54.0971 17.61 54.2399 18.0838 54.0317C18.5571 53.8233 18.827 53.3177 18.7372 52.8075C18.5884 51.9614 18.5129 51.1229 18.5129 50.3149C18.5129 46.7757 19.9442 43.8339 20.9099 42.2518C21.8758 43.8339 23.3071 46.7755 23.3071 50.3149C23.3071 51.1223 23.2316 51.9608 23.0827 52.8075C22.9928 53.3177 23.2627 53.8231 23.736 54.0316C24.2088 54.2402 24.7633 54.0972 25.0776 53.6859C25.4156 53.2437 25.7718 52.834 26.1364 52.4688C28.367 50.2334 31.1551 49.2964 32.8169 48.9158C32.4408 50.577 31.5098 53.3603 29.2679 55.6068C28.6596 56.2165 27.9571 56.7813 27.18 57.2854C26.7497 57.5644 26.5631 58.1002 26.7266 58.5871C26.8899 59.0739 27.3605 59.3864 27.8728 59.3497C28.1057 59.3323 28.3386 59.3234 28.5654 59.3234C30.7995 59.3234 32.7004 60.1635 33.8736 60.8439C32.6998 61.5249 30.7993 62.3646 28.5654 62.3646C28.1437 62.3646 27.7035 62.3334 27.2574 62.272C26.8431 62.2149 26.4324 62.3934 26.1906 62.7344C25.9487 63.0756 25.9159 63.5234 26.1058 63.8962C26.5295 64.7286 26.6223 65.7021 26.6197 66.4127C25.763 66.291 24.5188 65.9561 23.6092 65.0445C22.7917 64.2253 22.287 63.1038 22.0316 62.4109V62.2037L23.9265 60.3048C24.3645 59.8657 24.3645 59.1543 23.9265 58.7154C23.4884 58.2766 22.7784 58.2766 22.3404 58.7154L22.0317 59.0246V58.1732C22.0317 57.5524 21.5297 57.0494 20.9102 57.0494C20.2907 57.0494 19.7887 57.5524 19.7887 58.1732V59.0246L19.4801 58.7154C19.0419 58.2766 18.3319 58.2766 17.8939 58.7154C17.4559 59.1544 17.4559 59.8659 17.8939 60.3048L19.7888 62.2037V62.411C19.5328 63.1042 19.0282 64.2259 18.2106 65.0449V65.0449ZM20.9098 72.6642C23.2373 72.6642 25.191 74.2923 25.7002 76.4712H16.1197C16.6287 74.2924 18.5824 72.6642 20.9098 72.6642Z" fill="#404040"/>
<path d="M26.7599 38.4757L26.656 38.7568C26.4409 39.339 26.7376 39.9854 27.3186 40.201C27.4469 40.2485 27.5783 40.2712 27.7078 40.2712C28.1638 40.2712 28.5924 39.9905 28.7597 39.5372L28.8635 39.2561C29.0785 38.674 28.782 38.0275 28.201 37.812C27.6207 37.5963 26.9749 37.8937 26.7599 38.4757Z" fill="#404040"/>
<path d="M28.2333 34.4887L28.0994 34.8512C27.8843 35.4332 28.1809 36.0798 28.7618 36.2953C28.8901 36.343 29.0215 36.3656 29.151 36.3656C29.6068 36.3656 30.0354 36.0851 30.2029 35.6316L30.3369 35.2691C30.5519 34.6871 30.2554 34.0405 29.6744 33.8251C29.0939 33.6091 28.4482 33.9064 28.2333 34.4887Z" fill="#404040"/>
<path d="M30.234 32.3079C30.3624 32.3555 30.4942 32.3783 30.6237 32.3783C31.0793 32.3783 31.5077 32.0981 31.6754 31.6448L31.7793 31.3638C31.9946 30.7818 31.6984 30.1352 31.1176 29.9193C30.5371 29.7038 29.8914 30.0004 29.676 30.5824L29.5721 30.8633C29.3569 31.4453 29.6533 32.0921 30.234 32.3079V32.3079Z" fill="#404040"/>
<path d="M47.699 39.256L47.8027 39.5371C47.9701 39.9905 48.3986 40.271 48.8545 40.271C48.9837 40.271 49.1153 40.2485 49.2438 40.2009C49.8247 39.9854 50.1212 39.3388 49.9063 38.7567L49.8024 38.4755C49.5874 37.8934 48.9425 37.5958 48.3614 37.8117C47.7805 38.0274 47.4839 38.6738 47.699 39.256Z" fill="#404040"/>
<path d="M48.3299 34.4886C48.1148 33.9065 47.4696 33.6092 46.8888 33.8248C46.3078 34.0403 46.0113 34.6869 46.2263 35.2689L46.3603 35.6313C46.5278 36.0848 46.9562 36.3653 47.4122 36.3653C47.5415 36.3653 47.673 36.3428 47.8014 36.295C48.3824 36.0795 48.6789 35.4329 48.4639 34.8509L48.3299 34.4886Z" fill="#404040"/>
<path d="M46.8864 30.5823C46.6709 30.0002 46.0251 29.7036 45.4448 29.9192C44.864 30.135 44.5678 30.7818 44.7832 31.3638L44.8871 31.6447C45.0549 32.0979 45.4831 32.3782 45.9388 32.3782C46.0683 32.3782 46.2 32.3556 46.3285 32.3078C46.9093 32.092 47.2055 31.4453 46.9902 30.8633L46.8864 30.5823Z" fill="#404040"/>
<path d="M38.2816 32.3965C38.9012 32.3965 39.4031 31.8935 39.4031 31.2727V30.973C39.4031 30.3522 38.9012 29.8491 38.2816 29.8491C37.6621 29.8491 37.1602 30.3522 37.1602 30.973V31.2727C37.1602 31.8933 37.6621 32.3965 38.2816 32.3965Z" fill="#404040"/>
<path d="M37.1602 35.2405C37.1602 35.8613 37.6621 36.3644 38.2816 36.3644C38.9012 36.3644 39.4031 35.8613 39.4031 35.2405V34.8798C39.4031 34.259 38.9012 33.756 38.2816 33.756C37.6621 33.756 37.1602 34.259 37.1602 34.8798V35.2405Z" fill="#404040"/>
<path d="M37.1602 39.1472C37.1602 39.768 37.6621 40.271 38.2816 40.271C38.9012 40.271 39.4031 39.768 39.4031 39.1472V38.8475C39.4031 38.2267 38.9012 37.7236 38.2816 37.7236C37.6621 37.7236 37.1602 38.2267 37.1602 38.8475V39.1472Z" fill="#404040"/>
</svg>
