<svg width="1094" height="287" viewBox="0 0 1094 287" fill="none" xmlns="http://www.w3.org/2000/svg">
<rect x="272" width="14" height="254" fill="#404040"/>
<rect x="812" width="14" height="254" fill="#404040"/>
<rect y="198" width="1094" height="10" fill="#404040"/>
<path d="M5.5 203.5C5.5 203.5 113.242 185.519 187 125.5C238 84 279 12 279 12C279 12 419.843 170.5 549 170.5C678.157 170.5 819 12 819 12" stroke="#404040" stroke-width="3"/>
<path d="M819 12C819 12 860 84 911 125.5C984.758 185.519 1092.5 203.5 1092.5 203.5" stroke="#404040" stroke-width="3"/>
<path d="M65 203V188.5" stroke="#404040" stroke-width="2"/>
<path d="M65 203.5V188.5" stroke="#404040" stroke-width="2"/>
<path d="M35 204V197" stroke="#404040" stroke-width="2"/>
<path d="M97 203V176" stroke="#404040" stroke-width="2"/>
<path d="M127 203L127 163" stroke="#404040" stroke-width="2"/>
<path d="M157 203L157 147" stroke="#404040" stroke-width="2"/>
<path d="M187 203L187 125.5" stroke="#404040" stroke-width="2"/>
<path d="M217 203L217 97" stroke="#404040" stroke-width="2"/>
<path d="M247 203L247 60" stroke="#404040" stroke-width="2"/>
<path d="M339 203L339 69" stroke="#404040" stroke-width="2"/>
<path d="M369 203L369 93.5" stroke="#404040" stroke-width="2"/>
<path d="M399 203L399 115" stroke="#404040" stroke-width="2"/>
<path d="M429 203L429 133.5" stroke="#404040" stroke-width="2"/>
<path d="M459 203L459 148" stroke="#404040" stroke-width="2"/>
<path d="M489 203L489 160.5" stroke="#404040" stroke-width="2"/>
<path d="M519 203L519 168" stroke="#404040" stroke-width="2"/>
<path d="M549 203L549 170.5" stroke="#404040" stroke-width="2"/>
<path d="M579 203L579 168" stroke="#404040" stroke-width="2"/>
<path d="M609 203L609 160" stroke="#404040" stroke-width="2"/>
<path d="M639 203L639 149" stroke="#404040" stroke-width="2"/>
<path d="M669 203L669 134" stroke="#404040" stroke-width="2"/>
<path d="M699 203L699 115.5" stroke="#404040" stroke-width="2"/>
<path d="M729 203L729 94.5" stroke="#404040" stroke-width="2"/>
<path d="M759 203L759 69" stroke="#404040" stroke-width="2"/>
<path d="M759 203L759 69" stroke="#404040" stroke-width="2"/>
<path d="M789 203L789 42.5" stroke="#404040" stroke-width="2"/>
<path d="M849 203L849 58" stroke="#404040" stroke-width="2"/>
<path d="M879 203L879 94.5" stroke="#404040" stroke-width="2"/>
<path d="M909 203L909 123.5" stroke="#404040" stroke-width="2"/>
<path d="M939 203L939 145.5" stroke="#404040" stroke-width="2"/>
<path d="M969 203L969 162.5" stroke="#404040" stroke-width="2"/>
<path d="M999 203L999 175.5" stroke="#404040" stroke-width="2"/>
<path d="M1029 203L1029 186.5" stroke="#404040" stroke-width="2"/>
<path d="M1059 203.5L1059 196" stroke="#404040" stroke-width="2"/>
<path d="M309 203L309 42.5" stroke="#404040" stroke-width="2"/>
<path d="M244.758 282.324C244.446 282.48 244.047 282.619 243.562 282.74C243.077 282.861 242.557 282.957 242.002 283.026C241.465 283.113 240.91 283.173 240.338 283.208C239.783 283.26 239.272 283.286 238.804 283.286C237.348 283.286 235.996 283.061 234.748 282.61C233.517 282.142 232.451 281.475 231.55 280.608C230.666 279.724 229.964 278.641 229.444 277.358C228.941 276.075 228.69 274.611 228.69 272.964C228.69 271.473 228.924 270.095 229.392 268.83C229.877 267.565 230.553 266.473 231.42 265.554C232.304 264.635 233.37 263.925 234.618 263.422C235.866 262.902 237.27 262.642 238.83 262.642C239.853 262.642 240.797 262.711 241.664 262.85C242.531 262.971 243.337 263.145 244.082 263.37C244.342 263.457 244.489 263.543 244.524 263.63C244.576 263.699 244.585 263.812 244.55 263.968L244.16 266.282C244.125 266.542 244.047 266.681 243.926 266.698C243.822 266.698 243.64 266.655 243.38 266.568C242.6 266.308 241.829 266.126 241.066 266.022C240.321 265.918 239.567 265.866 238.804 265.866C237.851 265.866 236.975 266.039 236.178 266.386C235.398 266.733 234.722 267.227 234.15 267.868C233.578 268.492 233.127 269.237 232.798 270.104C232.486 270.971 232.33 271.924 232.33 272.964C232.33 274.091 232.486 275.096 232.798 275.98C233.127 276.864 233.578 277.618 234.15 278.242C234.739 278.849 235.424 279.317 236.204 279.646C237.001 279.958 237.868 280.114 238.804 280.114C239.445 280.114 240.026 280.097 240.546 280.062C241.083 280.01 241.491 279.941 241.768 279.854V275.044H237.79C237.443 275.044 237.27 274.871 237.27 274.524V272.314C237.27 271.967 237.452 271.794 237.816 271.794H244.472C244.871 271.794 245.105 271.846 245.174 271.95C245.261 272.054 245.304 272.279 245.304 272.626V281.258C245.304 281.587 245.261 281.821 245.174 281.96C245.087 282.081 244.949 282.203 244.758 282.324ZM251.827 285.028C251.168 285.028 250.613 284.803 250.163 284.352C249.712 283.901 249.487 283.347 249.487 282.688C249.487 282.029 249.712 281.475 250.163 281.024C250.613 280.573 251.168 280.348 251.827 280.348C252.485 280.348 253.04 280.573 253.491 281.024C253.941 281.475 254.167 282.029 254.167 282.688C254.167 283.347 253.941 283.901 253.491 284.352C253.04 284.803 252.485 285.028 251.827 285.028ZM271.528 282.974C271.337 282.974 271.19 282.957 271.086 282.922C270.982 282.87 270.887 282.74 270.8 282.532L269.162 278.242H261.076L259.438 282.532C259.351 282.74 259.256 282.87 259.152 282.922C259.065 282.957 258.927 282.974 258.736 282.974H256.214C255.937 282.974 255.755 282.931 255.668 282.844C255.581 282.74 255.59 282.567 255.694 282.324L263.26 263.396C263.381 263.101 263.589 262.954 263.884 262.954H266.406C266.631 262.954 266.779 262.989 266.848 263.058C266.917 263.11 266.995 263.231 267.082 263.422L274.596 282.324C274.7 282.584 274.709 282.757 274.622 282.844C274.553 282.931 274.371 282.974 274.076 282.974H271.528ZM262.298 275.044H267.94L265.132 267.686L262.298 275.044ZM278.588 285.028C277.93 285.028 277.375 284.803 276.924 284.352C276.474 283.901 276.248 283.347 276.248 282.688C276.248 282.029 276.474 281.475 276.924 281.024C277.375 280.573 277.93 280.348 278.588 280.348C279.247 280.348 279.802 280.573 280.252 281.024C280.703 281.475 280.928 282.029 280.928 282.688C280.928 283.347 280.703 283.901 280.252 284.352C279.802 284.803 279.247 285.028 278.588 285.028ZM298.108 282.714C297.605 282.887 297.007 283.035 296.314 283.156C295.638 283.277 294.832 283.338 293.896 283.338C292.405 283.338 291.036 283.095 289.788 282.61C288.557 282.107 287.5 281.405 286.616 280.504C285.732 279.585 285.038 278.493 284.536 277.228C284.05 275.945 283.808 274.524 283.808 272.964C283.808 271.439 284.05 270.043 284.536 268.778C285.038 267.495 285.732 266.403 286.616 265.502C287.5 264.583 288.557 263.873 289.788 263.37C291.036 262.867 292.405 262.616 293.896 262.616C294.676 262.616 295.43 262.668 296.158 262.772C296.886 262.859 297.562 262.997 298.186 263.188C298.428 263.275 298.55 263.379 298.55 263.5C298.567 263.621 298.576 263.769 298.576 263.942L298.524 266.178C298.524 266.473 298.454 266.637 298.316 266.672C298.177 266.707 297.952 266.681 297.64 266.594C296.86 266.369 296.158 266.221 295.534 266.152C294.927 266.065 294.294 266.022 293.636 266.022C292.665 266.022 291.79 266.195 291.01 266.542C290.247 266.871 289.597 267.348 289.06 267.972C288.522 268.579 288.106 269.307 287.812 270.156C287.534 271.005 287.396 271.941 287.396 272.964C287.396 273.969 287.552 274.897 287.864 275.746C288.176 276.578 288.609 277.306 289.164 277.93C289.718 278.537 290.368 279.031 291.114 279.412C291.876 279.776 292.708 280.001 293.61 280.088C294.442 280.175 295.239 280.149 296.002 280.01C296.764 279.854 297.388 279.689 297.874 279.516C298.099 279.429 298.246 279.412 298.316 279.464C298.385 279.499 298.428 279.603 298.446 279.776L298.576 282.116C298.593 282.307 298.567 282.437 298.498 282.506C298.428 282.575 298.298 282.645 298.108 282.714ZM303.928 285.028C303.27 285.028 302.715 284.803 302.264 284.352C301.814 283.901 301.588 283.347 301.588 282.688C301.588 282.029 301.814 281.475 302.264 281.024C302.715 280.573 303.27 280.348 303.928 280.348C304.587 280.348 305.142 280.573 305.592 281.024C306.043 281.475 306.268 282.029 306.268 282.688C306.268 283.347 306.043 283.901 305.592 284.352C305.142 284.803 304.587 285.028 303.928 285.028ZM313.437 275.2V282.454C313.437 282.697 313.394 282.853 313.307 282.922C313.238 282.974 313.108 283 312.917 283H310.421C310.248 283 310.118 282.974 310.031 282.922C309.945 282.853 309.901 282.697 309.901 282.454V263.5C309.901 263.292 309.945 263.153 310.031 263.084C310.135 263.015 310.257 262.98 310.395 262.98H315.595C316.549 262.98 317.415 263.101 318.195 263.344C318.993 263.587 319.669 263.959 320.223 264.462C320.778 264.965 321.203 265.597 321.497 266.36C321.809 267.105 321.965 267.998 321.965 269.038C321.965 270.043 321.792 270.927 321.445 271.69C321.116 272.453 320.657 273.094 320.067 273.614C319.495 274.134 318.802 274.533 317.987 274.81C317.19 275.07 316.323 275.2 315.387 275.2H313.437ZM313.437 266.204V271.976H315.153C316.193 271.976 316.991 271.742 317.545 271.274C318.1 270.806 318.377 270.052 318.377 269.012C318.377 268.093 318.152 267.4 317.701 266.932C317.268 266.447 316.687 266.204 315.959 266.204H313.437ZM326.805 285.028C326.147 285.028 325.592 284.803 325.141 284.352C324.691 283.901 324.465 283.347 324.465 282.688C324.465 282.029 324.691 281.475 325.141 281.024C325.592 280.573 326.147 280.348 326.805 280.348C327.464 280.348 328.019 280.573 328.469 281.024C328.92 281.475 329.145 282.029 329.145 282.688C329.145 283.347 328.92 283.901 328.469 284.352C328.019 284.803 327.464 285.028 326.805 285.028Z" fill="#2C2C2C"/>
<path d="M793.758 282.324C793.446 282.48 793.047 282.619 792.562 282.74C792.077 282.861 791.557 282.957 791.002 283.026C790.465 283.113 789.91 283.173 789.338 283.208C788.783 283.26 788.272 283.286 787.804 283.286C786.348 283.286 784.996 283.061 783.748 282.61C782.517 282.142 781.451 281.475 780.55 280.608C779.666 279.724 778.964 278.641 778.444 277.358C777.941 276.075 777.69 274.611 777.69 272.964C777.69 271.473 777.924 270.095 778.392 268.83C778.877 267.565 779.553 266.473 780.42 265.554C781.304 264.635 782.37 263.925 783.618 263.422C784.866 262.902 786.27 262.642 787.83 262.642C788.853 262.642 789.797 262.711 790.664 262.85C791.531 262.971 792.337 263.145 793.082 263.37C793.342 263.457 793.489 263.543 793.524 263.63C793.576 263.699 793.585 263.812 793.55 263.968L793.16 266.282C793.125 266.542 793.047 266.681 792.926 266.698C792.822 266.698 792.64 266.655 792.38 266.568C791.6 266.308 790.829 266.126 790.066 266.022C789.321 265.918 788.567 265.866 787.804 265.866C786.851 265.866 785.975 266.039 785.178 266.386C784.398 266.733 783.722 267.227 783.15 267.868C782.578 268.492 782.127 269.237 781.798 270.104C781.486 270.971 781.33 271.924 781.33 272.964C781.33 274.091 781.486 275.096 781.798 275.98C782.127 276.864 782.578 277.618 783.15 278.242C783.739 278.849 784.424 279.317 785.204 279.646C786.001 279.958 786.868 280.114 787.804 280.114C788.445 280.114 789.026 280.097 789.546 280.062C790.083 280.01 790.491 279.941 790.768 279.854V275.044H786.79C786.443 275.044 786.27 274.871 786.27 274.524V272.314C786.27 271.967 786.452 271.794 786.816 271.794H793.472C793.871 271.794 794.105 271.846 794.174 271.95C794.261 272.054 794.304 272.279 794.304 272.626V281.258C794.304 281.587 794.261 281.821 794.174 281.96C794.087 282.081 793.949 282.203 793.758 282.324ZM800.827 285.028C800.168 285.028 799.613 284.803 799.163 284.352C798.712 283.901 798.487 283.347 798.487 282.688C798.487 282.029 798.712 281.475 799.163 281.024C799.613 280.573 800.168 280.348 800.827 280.348C801.485 280.348 802.04 280.573 802.491 281.024C802.941 281.475 803.167 282.029 803.167 282.688C803.167 283.347 802.941 283.901 802.491 284.352C802.04 284.803 801.485 285.028 800.827 285.028ZM824.402 282.974C824.177 282.974 824.038 282.948 823.986 282.896C823.934 282.827 823.908 282.688 823.908 282.48V269.428L818.838 282.402C818.751 282.593 818.673 282.714 818.604 282.766C818.535 282.818 818.405 282.844 818.214 282.844H815.952C815.761 282.844 815.623 282.818 815.536 282.766C815.467 282.714 815.397 282.593 815.328 282.402L810.258 269.428V282.48C810.258 282.688 810.232 282.827 810.18 282.896C810.128 282.948 809.989 282.974 809.764 282.974H807.216C806.991 282.974 806.852 282.948 806.8 282.896C806.748 282.827 806.722 282.688 806.722 282.48V263.734C806.722 263.37 806.757 263.153 806.826 263.084C806.913 262.997 807.129 262.954 807.476 262.954H810.388C810.544 262.954 810.665 262.98 810.752 263.032C810.839 263.084 810.917 263.197 810.986 263.37L817.07 278.476L823.18 263.37C823.284 263.093 823.501 262.954 823.83 262.954H826.664C827.028 262.954 827.245 262.997 827.314 263.084C827.401 263.153 827.444 263.37 827.444 263.734V282.48C827.444 282.688 827.409 282.827 827.34 282.896C827.288 282.948 827.158 282.974 826.95 282.974H824.402ZM833.885 285.028C833.227 285.028 832.672 284.803 832.221 284.352C831.771 283.901 831.545 283.347 831.545 282.688C831.545 282.029 831.771 281.475 832.221 281.024C832.672 280.573 833.227 280.348 833.885 280.348C834.544 280.348 835.099 280.573 835.549 281.024C836 281.475 836.225 282.029 836.225 282.688C836.225 283.347 836 283.901 835.549 284.352C835.099 284.803 834.544 285.028 833.885 285.028ZM843.394 275.2V282.454C843.394 282.697 843.351 282.853 843.264 282.922C843.195 282.974 843.065 283 842.874 283H840.378C840.205 283 840.075 282.974 839.988 282.922C839.902 282.853 839.858 282.697 839.858 282.454V263.5C839.858 263.292 839.902 263.153 839.988 263.084C840.092 263.015 840.214 262.98 840.352 262.98H845.552C846.506 262.98 847.372 263.101 848.152 263.344C848.95 263.587 849.626 263.959 850.18 264.462C850.735 264.965 851.16 265.597 851.454 266.36C851.766 267.105 851.922 267.998 851.922 269.038C851.922 270.043 851.749 270.927 851.402 271.69C851.073 272.453 850.614 273.094 850.024 273.614C849.452 274.134 848.759 274.533 847.944 274.81C847.147 275.07 846.28 275.2 845.344 275.2H843.394ZM843.394 266.204V271.976H845.11C846.15 271.976 846.948 271.742 847.502 271.274C848.057 270.806 848.334 270.052 848.334 269.012C848.334 268.093 848.109 267.4 847.658 266.932C847.225 266.447 846.644 266.204 845.916 266.204H843.394ZM856.762 285.028C856.104 285.028 855.549 284.803 855.098 284.352C854.648 283.901 854.422 283.347 854.422 282.688C854.422 282.029 854.648 281.475 855.098 281.024C855.549 280.573 856.104 280.348 856.762 280.348C857.421 280.348 857.976 280.573 858.426 281.024C858.877 281.475 859.102 282.029 859.102 282.688C859.102 283.347 858.877 283.901 858.426 284.352C857.976 284.803 857.421 285.028 856.762 285.028Z" fill="#2C2C2C"/>
<path d="M486.806 239.982C486.71 239.982 486.65 239.97 486.626 239.946C486.602 239.91 486.59 239.856 486.59 239.784V230.01L482.684 239.748C482.66 239.808 482.63 239.844 482.594 239.856C482.57 239.868 482.498 239.874 482.378 239.874H480.938C480.818 239.874 480.74 239.868 480.704 239.856C480.68 239.844 480.656 239.808 480.632 239.748L476.726 230.01V239.784C476.726 239.856 476.714 239.91 476.69 239.946C476.666 239.97 476.606 239.982 476.51 239.982H474.836C474.692 239.982 474.62 239.916 474.62 239.784V226.788C474.62 226.62 474.638 226.518 474.674 226.482C474.71 226.434 474.824 226.41 475.016 226.41H477.158C477.242 226.41 477.29 226.428 477.302 226.464C477.326 226.488 477.356 226.542 477.392 226.626L481.658 237.21L485.924 226.626C485.96 226.542 485.984 226.488 485.996 226.464C486.02 226.428 486.074 226.41 486.158 226.41H488.3C488.492 226.41 488.606 226.434 488.642 226.482C488.678 226.518 488.696 226.62 488.696 226.788V239.784C488.696 239.916 488.624 239.982 488.48 239.982H486.806ZM499.618 235.446C499.618 235.542 499.588 235.614 499.528 235.662C499.48 235.71 499.426 235.734 499.366 235.734H493.444C493.504 236.538 493.756 237.198 494.2 237.714C494.644 238.218 495.25 238.47 496.018 238.47C496.414 238.47 496.864 238.422 497.368 238.326C497.872 238.218 498.334 238.038 498.754 237.786C498.838 237.738 498.892 237.744 498.916 237.804C498.94 237.864 498.952 237.942 498.952 238.038V239.28C498.952 239.388 498.934 239.472 498.898 239.532C498.862 239.592 498.79 239.652 498.682 239.712C498.322 239.904 497.896 240.042 497.404 240.126C496.924 240.21 496.432 240.252 495.928 240.252C494.44 240.252 493.312 239.808 492.544 238.92C491.788 238.02 491.41 236.706 491.41 234.978C491.41 234.33 491.494 233.694 491.662 233.07C491.83 232.446 492.082 231.888 492.418 231.396C492.766 230.904 493.204 230.508 493.732 230.208C494.26 229.908 494.884 229.758 495.604 229.758C496.336 229.758 496.954 229.896 497.458 230.172C497.974 230.448 498.394 230.82 498.718 231.288C499.042 231.756 499.276 232.302 499.42 232.926C499.564 233.55 499.636 234.216 499.636 234.924C499.636 235.008 499.63 235.104 499.618 235.212C499.618 235.32 499.618 235.398 499.618 235.446ZM495.676 231.486C495.352 231.486 495.064 231.558 494.812 231.702C494.56 231.846 494.344 232.032 494.164 232.26C493.984 232.488 493.834 232.752 493.714 233.052C493.606 233.352 493.528 233.652 493.48 233.952H497.602C497.602 233.712 497.56 233.448 497.476 233.16C497.404 232.872 497.29 232.608 497.134 232.368C496.978 232.116 496.78 231.906 496.54 231.738C496.3 231.57 496.012 231.486 495.676 231.486ZM508.328 240.018C508.148 240.018 508.058 239.922 508.058 239.73V239.046C507.818 239.382 507.464 239.664 506.996 239.892C506.528 240.12 506.054 240.234 505.574 240.234C504.926 240.234 504.344 240.114 503.828 239.874C503.324 239.622 502.892 239.268 502.532 238.812C502.184 238.344 501.914 237.78 501.722 237.12C501.542 236.46 501.452 235.716 501.452 234.888C501.452 234.084 501.548 233.358 501.74 232.71C501.932 232.05 502.202 231.492 502.55 231.036C502.91 230.58 503.342 230.226 503.846 229.974C504.362 229.722 504.938 229.596 505.574 229.596C506.054 229.596 506.504 229.692 506.924 229.884C507.356 230.076 507.734 230.346 508.058 230.694V225.564C508.058 225.468 508.07 225.408 508.094 225.384C508.13 225.348 508.19 225.33 508.274 225.33H509.75C509.906 225.33 509.984 225.408 509.984 225.564V239.73C509.984 239.826 509.954 239.898 509.894 239.946C509.834 239.994 509.768 240.018 509.696 240.018H508.328ZM505.772 231.432C505.028 231.432 504.458 231.738 504.062 232.35C503.666 232.95 503.468 233.796 503.468 234.888C503.468 236.064 503.672 236.946 504.08 237.534C504.488 238.122 505.052 238.416 505.772 238.416C506.084 238.416 506.378 238.338 506.654 238.182C506.93 238.026 507.17 237.798 507.374 237.498C507.59 237.198 507.758 236.832 507.878 236.4C507.998 235.956 508.058 235.452 508.058 234.888C508.058 233.724 507.854 232.86 507.446 232.296C507.05 231.72 506.492 231.432 505.772 231.432ZM512.944 240.918C512.884 240.918 512.83 240.894 512.782 240.846C512.746 240.81 512.728 240.762 512.728 240.702V231.216C512.728 231.156 512.746 231.108 512.782 231.072C512.83 231.024 512.884 231 512.944 231H514.456C514.516 231 514.564 231.024 514.6 231.072C514.648 231.108 514.672 231.156 514.672 231.216V240.702C514.672 240.762 514.648 240.81 514.6 240.846C514.564 240.894 514.516 240.918 514.456 240.918H512.944ZM513.718 229.038C513.37 229.038 513.076 228.924 512.836 228.696C512.608 228.456 512.494 228.168 512.494 227.832C512.494 227.484 512.608 227.19 512.836 226.95C513.076 226.71 513.37 226.59 513.718 226.59C514.066 226.59 514.36 226.71 514.6 226.95C514.84 227.19 514.96 227.484 514.96 227.832C514.96 228.168 514.84 228.456 514.6 228.696C514.36 228.924 514.066 229.038 513.718 229.038ZM523.945 239.946C523.813 239.994 523.651 240.036 523.459 240.072C523.267 240.108 523.057 240.138 522.829 240.162C522.613 240.186 522.379 240.198 522.127 240.198C521.887 240.21 521.653 240.21 521.425 240.198C520.669 240.15 519.997 239.988 519.409 239.712C518.833 239.424 518.347 239.052 517.951 238.596C517.555 238.14 517.255 237.606 517.051 236.994C516.859 236.37 516.763 235.698 516.763 234.978C516.763 234.222 516.883 233.526 517.123 232.89C517.363 232.254 517.699 231.708 518.131 231.252C518.575 230.784 519.103 230.424 519.715 230.172C520.327 229.92 521.011 229.794 521.767 229.794C522.139 229.794 522.511 229.818 522.883 229.866C523.267 229.902 523.639 229.98 523.999 230.1C524.047 230.112 524.083 230.136 524.107 230.172C524.131 230.208 524.137 230.28 524.125 230.388L523.963 231.63C523.951 231.714 523.921 231.774 523.873 231.81C523.837 231.846 523.765 231.852 523.657 231.828C523.393 231.732 523.081 231.666 522.721 231.63C522.373 231.594 522.043 231.576 521.731 231.576C520.759 231.576 520.021 231.888 519.517 232.512C519.013 233.136 518.761 233.958 518.761 234.978C518.761 235.962 518.995 236.754 519.463 237.354C519.943 237.954 520.633 238.308 521.533 238.416C522.361 238.512 523.099 238.458 523.747 238.254C523.867 238.206 523.939 238.2 523.963 238.236C523.999 238.272 524.023 238.326 524.035 238.398L524.125 239.64C524.137 239.736 524.131 239.808 524.107 239.856C524.095 239.892 524.041 239.922 523.945 239.946ZM531.62 239.964C531.536 239.964 531.482 239.958 531.458 239.946C531.434 239.922 531.422 239.874 531.422 239.802V238.992C531.122 239.412 530.738 239.73 530.27 239.946C529.814 240.15 529.352 240.252 528.884 240.252C528.392 240.252 527.936 240.186 527.516 240.054C527.108 239.922 526.754 239.724 526.454 239.46C526.166 239.196 525.938 238.872 525.77 238.488C525.602 238.092 525.518 237.636 525.518 237.12C525.518 236.508 525.626 235.974 525.842 235.518C526.058 235.05 526.394 234.666 526.85 234.366C527.318 234.054 527.912 233.826 528.632 233.682C529.352 233.526 530.222 233.448 531.242 233.448C531.242 233.22 531.218 232.992 531.17 232.764C531.122 232.536 531.038 232.332 530.918 232.152C530.81 231.972 530.654 231.828 530.45 231.72C530.246 231.6 529.988 231.54 529.676 231.54C529.136 231.54 528.644 231.612 528.2 231.756C527.768 231.9 527.36 232.092 526.976 232.332C526.784 232.452 526.652 232.506 526.58 232.494C526.52 232.482 526.49 232.416 526.49 232.296V230.928C526.49 230.88 526.484 230.832 526.472 230.784C526.472 230.724 526.484 230.676 526.508 230.64C526.544 230.592 526.634 230.526 526.778 230.442C527.186 230.238 527.6 230.07 528.02 229.938C528.452 229.806 528.992 229.74 529.64 229.74C530.852 229.74 531.746 230.034 532.322 230.622C532.91 231.21 533.204 232.134 533.204 233.394V237.66C533.204 237.996 533.204 238.35 533.204 238.722C533.216 239.082 533.24 239.4 533.276 239.676C533.3 239.868 533.234 239.964 533.078 239.964H531.62ZM531.296 235.158C529.964 235.158 529.01 235.32 528.434 235.644C527.858 235.968 527.57 236.454 527.57 237.102C527.57 237.558 527.702 237.9 527.966 238.128C528.23 238.356 528.584 238.47 529.028 238.47C529.712 238.47 530.258 238.218 530.666 237.714C531.086 237.21 531.296 236.424 531.296 235.356V235.158ZM536.119 240C535.987 240 535.921 239.928 535.921 239.784V225.6C535.921 225.54 535.939 225.492 535.975 225.456C536.023 225.408 536.077 225.384 536.137 225.384H537.649C537.709 225.384 537.757 225.408 537.793 225.456C537.841 225.492 537.865 225.54 537.865 225.6V239.784C537.865 239.844 537.841 239.898 537.793 239.946C537.757 239.982 537.709 240 537.649 240H536.119ZM555.081 239.838C554.733 239.934 554.313 240.024 553.821 240.108C553.329 240.192 552.759 240.234 552.111 240.234C551.091 240.234 550.161 240.066 549.321 239.73C548.493 239.394 547.785 238.92 547.197 238.308C546.609 237.684 546.153 236.94 545.829 236.076C545.505 235.212 545.343 234.252 545.343 233.196C545.343 232.152 545.499 231.198 545.811 230.334C546.135 229.47 546.591 228.732 547.179 228.12C547.767 227.496 548.475 227.016 549.303 226.68C550.143 226.332 551.079 226.158 552.111 226.158C552.651 226.158 553.179 226.188 553.695 226.248C554.211 226.296 554.679 226.386 555.099 226.518C555.231 226.554 555.309 226.602 555.333 226.662C555.357 226.71 555.363 226.794 555.351 226.914L555.315 228.246C555.315 228.438 555.285 228.534 555.225 228.534C555.165 228.534 555.063 228.51 554.919 228.462C554.019 228.186 553.083 228.048 552.111 228.048C551.367 228.048 550.701 228.174 550.113 228.426C549.537 228.678 549.045 229.032 548.637 229.488C548.241 229.944 547.935 230.49 547.719 231.126C547.515 231.75 547.413 232.44 547.413 233.196C547.413 233.94 547.527 234.63 547.755 235.266C547.983 235.89 548.301 236.436 548.709 236.904C549.129 237.36 549.621 237.72 550.185 237.984C550.761 238.248 551.397 238.38 552.093 238.38C552.717 238.38 553.245 238.356 553.677 238.308C554.121 238.248 554.529 238.152 554.901 238.02C555.057 237.96 555.159 237.942 555.207 237.966C555.255 237.99 555.279 238.044 555.279 238.128L555.351 239.406C555.363 239.538 555.351 239.634 555.315 239.694C555.291 239.754 555.213 239.802 555.081 239.838ZM563.287 239.964C563.203 239.964 563.149 239.958 563.125 239.946C563.101 239.922 563.089 239.874 563.089 239.802V238.992C562.789 239.412 562.405 239.73 561.937 239.946C561.481 240.15 561.019 240.252 560.551 240.252C560.059 240.252 559.603 240.186 559.183 240.054C558.775 239.922 558.421 239.724 558.121 239.46C557.833 239.196 557.605 238.872 557.437 238.488C557.269 238.092 557.185 237.636 557.185 237.12C557.185 236.508 557.293 235.974 557.509 235.518C557.725 235.05 558.061 234.666 558.517 234.366C558.985 234.054 559.579 233.826 560.299 233.682C561.019 233.526 561.889 233.448 562.909 233.448C562.909 233.22 562.885 232.992 562.837 232.764C562.789 232.536 562.705 232.332 562.585 232.152C562.477 231.972 562.321 231.828 562.117 231.72C561.913 231.6 561.655 231.54 561.343 231.54C560.803 231.54 560.311 231.612 559.867 231.756C559.435 231.9 559.027 232.092 558.643 232.332C558.451 232.452 558.319 232.506 558.247 232.494C558.187 232.482 558.157 232.416 558.157 232.296V230.928C558.157 230.88 558.151 230.832 558.139 230.784C558.139 230.724 558.151 230.676 558.175 230.64C558.211 230.592 558.301 230.526 558.445 230.442C558.853 230.238 559.267 230.07 559.687 229.938C560.119 229.806 560.659 229.74 561.307 229.74C562.519 229.74 563.413 230.034 563.989 230.622C564.577 231.21 564.871 232.134 564.871 233.394V237.66C564.871 237.996 564.871 238.35 564.871 238.722C564.883 239.082 564.907 239.4 564.943 239.676C564.967 239.868 564.901 239.964 564.745 239.964H563.287ZM562.963 235.158C561.631 235.158 560.677 235.32 560.101 235.644C559.525 235.968 559.237 236.454 559.237 237.102C559.237 237.558 559.369 237.9 559.633 238.128C559.897 238.356 560.251 238.47 560.695 238.47C561.379 238.47 561.925 238.218 562.333 237.714C562.753 237.21 562.963 236.424 562.963 235.356V235.158ZM573.995 239.964C573.935 239.964 573.881 239.94 573.833 239.892C573.797 239.832 573.779 239.772 573.779 239.712V233.988C573.779 233.124 573.641 232.5 573.365 232.116C573.101 231.732 572.681 231.54 572.105 231.54C571.313 231.54 570.725 231.762 570.341 232.206C569.969 232.638 569.783 233.268 569.783 234.096V239.73C569.783 239.886 569.711 239.964 569.567 239.964H568.073C568.013 239.964 567.959 239.94 567.911 239.892C567.875 239.832 567.857 239.772 567.857 239.712V232.548C567.857 232.092 567.851 231.654 567.839 231.234C567.839 230.814 567.827 230.484 567.803 230.244C567.779 230.088 567.863 230.01 568.055 230.01H569.477C569.609 230.01 569.663 230.058 569.639 230.154L569.621 230.802C569.921 230.514 570.281 230.268 570.701 230.064C571.121 229.86 571.607 229.758 572.159 229.758C573.311 229.758 574.187 230.1 574.787 230.784C575.399 231.456 575.705 232.434 575.705 233.718V239.73C575.705 239.886 575.633 239.964 575.489 239.964H573.995ZM585.001 239.964C584.941 239.964 584.887 239.94 584.839 239.892C584.803 239.832 584.785 239.772 584.785 239.712V233.988C584.785 233.124 584.647 232.5 584.371 232.116C584.107 231.732 583.687 231.54 583.111 231.54C582.319 231.54 581.731 231.762 581.347 232.206C580.975 232.638 580.789 233.268 580.789 234.096V239.73C580.789 239.886 580.717 239.964 580.573 239.964H579.079C579.019 239.964 578.965 239.94 578.917 239.892C578.881 239.832 578.863 239.772 578.863 239.712V232.548C578.863 232.092 578.857 231.654 578.845 231.234C578.845 230.814 578.833 230.484 578.809 230.244C578.785 230.088 578.869 230.01 579.061 230.01H580.483C580.615 230.01 580.669 230.058 580.645 230.154L580.627 230.802C580.927 230.514 581.287 230.268 581.707 230.064C582.127 229.86 582.613 229.758 583.165 229.758C584.317 229.758 585.193 230.1 585.793 230.784C586.405 231.456 586.711 232.434 586.711 233.718V239.73C586.711 239.886 586.639 239.964 586.495 239.964H585.001ZM595.198 239.964C595.114 239.964 595.06 239.958 595.036 239.946C595.012 239.922 595 239.874 595 239.802V238.992C594.7 239.412 594.316 239.73 593.848 239.946C593.392 240.15 592.93 240.252 592.462 240.252C591.97 240.252 591.514 240.186 591.094 240.054C590.686 239.922 590.332 239.724 590.032 239.46C589.744 239.196 589.516 238.872 589.348 238.488C589.18 238.092 589.096 237.636 589.096 237.12C589.096 236.508 589.204 235.974 589.42 235.518C589.636 235.05 589.972 234.666 590.428 234.366C590.896 234.054 591.49 233.826 592.21 233.682C592.93 233.526 593.8 233.448 594.82 233.448C594.82 233.22 594.796 232.992 594.748 232.764C594.7 232.536 594.616 232.332 594.496 232.152C594.388 231.972 594.232 231.828 594.028 231.72C593.824 231.6 593.566 231.54 593.254 231.54C592.714 231.54 592.222 231.612 591.778 231.756C591.346 231.9 590.938 232.092 590.554 232.332C590.362 232.452 590.23 232.506 590.158 232.494C590.098 232.482 590.068 232.416 590.068 232.296V230.928C590.068 230.88 590.062 230.832 590.05 230.784C590.05 230.724 590.062 230.676 590.086 230.64C590.122 230.592 590.212 230.526 590.356 230.442C590.764 230.238 591.178 230.07 591.598 229.938C592.03 229.806 592.57 229.74 593.218 229.74C594.43 229.74 595.324 230.034 595.9 230.622C596.488 231.21 596.782 232.134 596.782 233.394V237.66C596.782 237.996 596.782 238.35 596.782 238.722C596.794 239.082 596.818 239.4 596.854 239.676C596.878 239.868 596.812 239.964 596.656 239.964H595.198ZM594.874 235.158C593.542 235.158 592.588 235.32 592.012 235.644C591.436 235.968 591.148 236.454 591.148 237.102C591.148 237.558 591.28 237.9 591.544 238.128C591.808 238.356 592.162 238.47 592.606 238.47C593.29 238.47 593.836 238.218 594.244 237.714C594.664 237.21 594.874 236.424 594.874 235.356V235.158ZM604.052 240.234C603.572 240.234 603.098 240.12 602.63 239.892C602.162 239.664 601.808 239.382 601.568 239.046V239.73C601.568 239.922 601.478 240.018 601.298 240.018H599.93C599.738 240.018 599.642 239.922 599.642 239.73V225.564C599.642 225.408 599.72 225.33 599.876 225.33H601.352C601.436 225.33 601.49 225.348 601.514 225.384C601.55 225.408 601.568 225.468 601.568 225.564V230.694C601.892 230.346 602.264 230.076 602.684 229.884C603.116 229.692 603.572 229.596 604.052 229.596C604.688 229.596 605.258 229.722 605.762 229.974C606.278 230.226 606.71 230.58 607.058 231.036C607.418 231.492 607.694 232.05 607.886 232.71C608.078 233.358 608.174 234.084 608.174 234.888C608.174 235.716 608.078 236.46 607.886 237.12C607.706 237.78 607.436 238.344 607.076 238.812C606.728 239.268 606.296 239.622 605.78 239.874C605.276 240.114 604.7 240.234 604.052 240.234ZM603.854 231.432C603.134 231.432 602.57 231.72 602.162 232.296C601.766 232.86 601.568 233.724 601.568 234.888C601.568 235.452 601.628 235.956 601.748 236.4C601.868 236.832 602.03 237.198 602.234 237.498C602.45 237.798 602.696 238.026 602.972 238.182C603.248 238.338 603.542 238.416 603.854 238.416C604.574 238.416 605.138 238.122 605.546 237.534C605.954 236.946 606.158 236.064 606.158 234.888C606.158 233.796 605.96 232.95 605.564 232.35C605.168 231.738 604.598 231.432 603.854 231.432ZM610.684 240.918C610.624 240.918 610.57 240.894 610.522 240.846C610.486 240.81 610.468 240.762 610.468 240.702V231.216C610.468 231.156 610.486 231.108 610.522 231.072C610.57 231.024 610.624 231 610.684 231H612.196C612.256 231 612.304 231.024 612.34 231.072C612.388 231.108 612.412 231.156 612.412 231.216V240.702C612.412 240.762 612.388 240.81 612.34 240.846C612.304 240.894 612.256 240.918 612.196 240.918H610.684ZM611.458 229.038C611.11 229.038 610.816 228.924 610.576 228.696C610.348 228.456 610.234 228.168 610.234 227.832C610.234 227.484 610.348 227.19 610.576 226.95C610.816 226.71 611.11 226.59 611.458 226.59C611.806 226.59 612.1 226.71 612.34 226.95C612.58 227.19 612.7 227.484 612.7 227.832C612.7 228.168 612.58 228.456 612.34 228.696C612.1 228.924 611.806 229.038 611.458 229.038ZM619.525 239.604C618.877 240.036 618.109 240.252 617.221 240.252C616.981 240.252 616.729 240.24 616.465 240.216C616.201 240.192 615.943 240.162 615.691 240.126C615.451 240.09 615.235 240.048 615.043 240C614.851 239.952 614.701 239.904 614.593 239.856C614.545 239.832 614.491 239.802 614.431 239.766C614.383 239.718 614.365 239.646 614.377 239.55L614.485 238.38C614.497 238.26 614.515 238.188 614.539 238.164C614.563 238.14 614.641 238.146 614.773 238.182C615.169 238.302 615.577 238.392 615.997 238.452C616.429 238.5 616.813 238.524 617.149 238.524C617.677 238.524 618.067 238.392 618.319 238.128C618.583 237.864 618.715 237.558 618.715 237.21C618.715 237.018 618.649 236.826 618.517 236.634C618.385 236.43 618.163 236.226 617.851 236.022C617.527 235.83 617.191 235.638 616.843 235.446C616.495 235.242 616.153 235.044 615.817 234.852C615.433 234.624 615.109 234.324 614.845 233.952C614.593 233.568 614.467 233.148 614.467 232.692C614.467 232.188 614.557 231.756 614.737 231.396C614.917 231.024 615.157 230.718 615.457 230.478C615.757 230.226 616.099 230.046 616.483 229.938C616.879 229.818 617.293 229.758 617.725 229.758C617.953 229.758 618.187 229.77 618.427 229.794C618.679 229.818 618.919 229.854 619.147 229.902C619.387 229.938 619.597 229.986 619.777 230.046C619.969 230.094 620.113 230.148 620.209 230.208C620.269 230.244 620.299 230.28 620.299 230.316C620.311 230.34 620.311 230.382 620.299 230.442L620.191 231.594C620.179 231.726 620.149 231.804 620.101 231.828C620.053 231.84 619.963 231.834 619.831 231.81C619.603 231.726 619.345 231.648 619.057 231.576C618.889 231.552 618.709 231.528 618.517 231.504C618.337 231.48 618.109 231.468 617.833 231.468C617.341 231.468 616.993 231.582 616.789 231.81C616.585 232.038 616.483 232.314 616.483 232.638C616.483 232.83 616.597 233.034 616.825 233.25C617.053 233.466 617.341 233.664 617.689 233.844C618.061 234.024 618.403 234.21 618.715 234.402C619.039 234.594 619.279 234.75 619.435 234.87C619.867 235.182 620.191 235.524 620.407 235.896C620.623 236.256 620.731 236.694 620.731 237.21C620.731 238.218 620.329 239.016 619.525 239.604Z" fill="#2C2C2C"/>
</svg>
