<svg width="97" height="72" viewBox="0 0 97 72" fill="none" xmlns="http://www.w3.org/2000/svg">
<path d="M13.7412 19.6191H18.2598V21H12.0117V11.0469H13.7412V19.6191ZM21.1924 21H19.5312V13.6035H21.1924V21ZM19.4287 11.6826C19.4287 11.4274 19.5085 11.2155 19.668 11.0469C19.832 10.8783 20.0645 10.7939 20.3652 10.7939C20.666 10.7939 20.8984 10.8783 21.0625 11.0469C21.2266 11.2155 21.3086 11.4274 21.3086 11.6826C21.3086 11.9333 21.2266 12.1429 21.0625 12.3115C20.8984 12.4756 20.666 12.5576 20.3652 12.5576C20.0645 12.5576 19.832 12.4756 19.668 12.3115C19.5085 12.1429 19.4287 11.9333 19.4287 11.6826ZM26.0459 19.8105C26.4606 19.8105 26.8047 19.6898 27.0781 19.4482C27.3516 19.2067 27.4974 18.9082 27.5156 18.5527H29.0811C29.0628 19.013 28.9193 19.4437 28.6504 19.8447C28.3815 20.2412 28.0169 20.5557 27.5566 20.7881C27.0964 21.0205 26.5996 21.1367 26.0664 21.1367C25.0319 21.1367 24.2116 20.8018 23.6055 20.1318C22.9993 19.4619 22.6963 18.5368 22.6963 17.3564V17.1855C22.6963 16.0599 22.9971 15.1598 23.5986 14.4854C24.2002 13.8063 25.0205 13.4668 26.0596 13.4668C26.9391 13.4668 27.6546 13.7243 28.2061 14.2393C28.762 14.7497 29.0537 15.4219 29.0811 16.2559H27.5156C27.4974 15.832 27.3516 15.4834 27.0781 15.21C26.8092 14.9365 26.4652 14.7998 26.0459 14.7998C25.5081 14.7998 25.0934 14.9958 24.8018 15.3877C24.5101 15.7751 24.362 16.3652 24.3574 17.1582V17.4248C24.3574 18.2269 24.501 18.8262 24.7881 19.2227C25.0798 19.6146 25.499 19.8105 26.0459 19.8105ZM33.5928 21.1367C32.54 21.1367 31.6855 20.8063 31.0293 20.1455C30.3776 19.4801 30.0518 18.596 30.0518 17.4932V17.2881C30.0518 16.5498 30.193 15.8913 30.4756 15.3125C30.7627 14.7292 31.1637 14.2757 31.6787 13.9521C32.1937 13.6286 32.7679 13.4668 33.4014 13.4668C34.4085 13.4668 35.1855 13.7881 35.7324 14.4307C36.2839 15.0732 36.5596 15.9824 36.5596 17.1582V17.8281H31.7266C31.7767 18.4388 31.9795 18.9219 32.335 19.2773C32.695 19.6328 33.1462 19.8105 33.6885 19.8105C34.4495 19.8105 35.0693 19.5029 35.5479 18.8877L36.4434 19.7422C36.1471 20.1842 35.7507 20.5283 35.2539 20.7744C34.7617 21.016 34.208 21.1367 33.5928 21.1367ZM33.3945 14.7998C32.9388 14.7998 32.5697 14.9593 32.2871 15.2783C32.0091 15.5973 31.8314 16.0417 31.7539 16.6113H34.9189V16.4883C34.8825 15.9323 34.7344 15.513 34.4746 15.2305C34.2148 14.9434 33.8548 14.7998 33.3945 14.7998ZM39.3965 13.6035L39.4443 14.458C39.9912 13.7972 40.709 13.4668 41.5977 13.4668C43.138 13.4668 43.9219 14.3486 43.9492 16.1123V21H42.2881V16.208C42.2881 15.7386 42.1855 15.3923 41.9805 15.1689C41.7799 14.9411 41.4495 14.8271 40.9893 14.8271C40.3193 14.8271 39.8203 15.1302 39.4922 15.7363V21H37.8311V13.6035H39.3965ZM49.7939 18.9902C49.7939 18.694 49.6709 18.4684 49.4248 18.3135C49.1833 18.1585 48.7799 18.0218 48.2148 17.9033C47.6497 17.7848 47.1781 17.6344 46.7998 17.4521C45.9704 17.0511 45.5557 16.4701 45.5557 15.709C45.5557 15.071 45.8245 14.5378 46.3623 14.1094C46.9001 13.681 47.5837 13.4668 48.4131 13.4668C49.2972 13.4668 50.0104 13.6855 50.5527 14.123C51.0996 14.5605 51.373 15.1279 51.373 15.8252H49.7119C49.7119 15.5062 49.5934 15.2419 49.3564 15.0322C49.1195 14.818 48.805 14.7109 48.4131 14.7109C48.0485 14.7109 47.75 14.7952 47.5176 14.9639C47.2897 15.1325 47.1758 15.3581 47.1758 15.6406C47.1758 15.8958 47.2829 16.0941 47.4971 16.2354C47.7113 16.3766 48.1442 16.5202 48.7959 16.666C49.4476 16.8073 49.958 16.9782 50.3271 17.1787C50.7008 17.3747 50.9766 17.6117 51.1543 17.8896C51.3366 18.1676 51.4277 18.5049 51.4277 18.9014C51.4277 19.5667 51.152 20.1068 50.6006 20.5215C50.0492 20.9316 49.3268 21.1367 48.4336 21.1367C47.8275 21.1367 47.2874 21.0273 46.8135 20.8086C46.3395 20.5898 45.9704 20.2891 45.7061 19.9062C45.4417 19.5234 45.3096 19.111 45.3096 18.6689H46.9229C46.9456 19.0609 47.0938 19.3639 47.3672 19.5781C47.6406 19.7878 48.0029 19.8926 48.4541 19.8926C48.8916 19.8926 49.2243 19.8105 49.4521 19.6465C49.68 19.4779 49.7939 19.2591 49.7939 18.9902ZM56.1377 21.1367C55.085 21.1367 54.2305 20.8063 53.5742 20.1455C52.9225 19.4801 52.5967 18.596 52.5967 17.4932V17.2881C52.5967 16.5498 52.738 15.8913 53.0205 15.3125C53.3076 14.7292 53.7087 14.2757 54.2236 13.9521C54.7386 13.6286 55.3128 13.4668 55.9463 13.4668C56.9535 13.4668 57.7305 13.7881 58.2773 14.4307C58.8288 15.0732 59.1045 15.9824 59.1045 17.1582V17.8281H54.2715C54.3216 18.4388 54.5244 18.9219 54.8799 19.2773C55.2399 19.6328 55.6911 19.8105 56.2334 19.8105C56.9945 19.8105 57.6143 19.5029 58.0928 18.8877L58.9883 19.7422C58.6921 20.1842 58.2956 20.5283 57.7988 20.7744C57.3066 21.016 56.7529 21.1367 56.1377 21.1367ZM55.9395 14.7998C55.4837 14.7998 55.1146 14.9593 54.832 15.2783C54.554 15.5973 54.3763 16.0417 54.2988 16.6113H57.4639V16.4883C57.4274 15.9323 57.2793 15.513 57.0195 15.2305C56.7598 14.9434 56.3997 14.7998 55.9395 14.7998Z" fill="#404040"/>
<rect x="1.5" y="1.5" width="94" height="69" stroke="#404040" stroke-width="3"/>
<line x1="11" y1="30.5" x2="51" y2="30.5" stroke="#404040"/>
<line x1="11" y1="37.5" x2="51" y2="37.5" stroke="#404040"/>
<line x1="11" y1="44.5" x2="51" y2="44.5" stroke="#404040"/>
<line x1="11" y1="51.5" x2="51" y2="51.5" stroke="#404040"/>
<line x1="11" y1="58.5" x2="51" y2="58.5" stroke="#404040"/>
<path d="M72.5 24.5673L73.3921 25.6439L73.9537 26.3216L74.6973 25.8506L75.8784 25.1024L76.3942 26.4019L76.7189 27.22L77.5715 27.0018L78.9261 26.6552L79.015 28.0506L79.071 28.929L79.9494 28.985L81.3448 29.0739L80.9982 30.4285L80.78 31.2811L81.5981 31.6058L82.8976 32.1216L82.1494 33.3027L81.6784 34.0463L82.3561 34.6079L83.4327 35.5L82.3561 36.3921L81.6784 36.9537L82.1494 37.6973L82.8976 38.8784L81.5981 39.3942L80.78 39.7189L80.9982 40.5715L81.3448 41.9261L79.9494 42.015L79.071 42.071L79.015 42.9494L78.9261 44.3448L77.5715 43.9982L76.7189 43.78L76.3942 44.5981L75.8784 45.8976L74.6973 45.1494L73.9537 44.6784L73.3921 45.3561L72.5 46.4327L71.6079 45.3561L71.0463 44.6784L70.3027 45.1494L69.1216 45.8976L68.6058 44.5981L68.2811 43.78L67.4285 43.9982L66.0739 44.3448L65.985 42.9494L65.929 42.071L65.0506 42.015L63.6552 41.9261L64.0018 40.5715L64.22 39.7189L63.4019 39.3942L62.1024 38.8784L62.8506 37.6973L63.3216 36.9537L62.6439 36.3921L61.5673 35.5L62.6439 34.6079L63.3216 34.0463L62.8506 33.3027L62.1024 32.1216L63.4019 31.6058L64.22 31.2811L64.0018 30.4285L63.6552 29.0739L65.0506 28.985L65.929 28.929L65.985 28.0506L66.0739 26.6552L67.4285 27.0018L68.2811 27.22L68.6058 26.4019L69.1216 25.1024L70.3027 25.8506L71.0463 26.3216L71.6079 25.6439L72.5 24.5673Z" stroke="#278079" stroke-width="2"/>
<path d="M68 45V57L72.5 53.8421L77 57V45" stroke="#278079" stroke-linecap="round"/>
</svg>
