<svg width="77" height="61" viewBox="0 0 77 61" fill="none" xmlns="http://www.w3.org/2000/svg">
<path d="M69.5305 60.5C71.2423 60.5 72.7255 59.9332 73.9864 58.8141L52.4114 37.1782C51.8938 37.5499 51.392 37.9113 50.9181 38.255C49.3035 39.4479 47.9931 40.3788 46.9869 41.0458C45.9808 41.7143 44.6422 42.3957 42.9712 43.0914C41.2991 43.788 39.7413 44.1351 38.2963 44.1351H38.254H38.2116C36.7664 44.1351 35.2087 43.7881 33.5367 43.0914C31.8648 42.3957 30.5262 41.7143 29.521 41.0458C28.5149 40.3788 27.2052 39.4481 25.5898 38.255C25.1396 37.9241 24.6404 37.561 24.1006 37.1724L2.52148 58.8141C3.78226 59.9332 5.26646 60.5 6.97809 60.5H69.5305Z" fill="#404040"/>
<path d="M4.47217 23.5543C2.85774 22.4749 1.42608 21.2388 0.179688 19.8464V52.7634L19.1958 33.6945C15.3915 31.0312 10.4898 27.655 4.47217 23.5543Z" fill="#404040"/>
<path d="M72.0813 23.5543C66.2931 27.4829 61.3736 30.8649 57.3223 33.7022L76.3308 52.7644V19.8464C75.112 21.2108 73.6957 22.4461 72.0813 23.5543Z" fill="#404040"/>
<path d="M69.5328 0.5H6.98047C4.79821 0.5 3.12045 1.23896 1.94512 2.71537C0.768822 4.19246 0.181641 6.03974 0.181641 8.2551C0.181641 10.0446 0.960862 11.9835 2.51861 14.0724C4.07636 16.1605 5.73394 17.8006 7.4905 18.9937C8.45347 19.6759 11.3574 21.7004 16.2024 25.0663C18.8178 26.8838 21.0923 28.4679 23.0469 29.8349C24.7129 30.999 26.1496 32.007 27.3359 32.8436C27.4721 32.9394 27.6862 33.093 27.9705 33.2968C28.2767 33.5174 28.6643 33.7973 29.1424 34.1435C30.063 34.8112 30.8279 35.351 31.437 35.7633C32.0454 36.1757 32.7824 36.6365 33.6471 37.148C34.5111 37.6589 35.326 38.0431 36.0908 38.2986C36.8558 38.554 37.5639 38.6821 38.2154 38.6821H38.2577H38.3C38.9514 38.6821 39.6597 38.554 40.4248 38.2986C41.1895 38.0431 42.0037 37.6598 42.8683 37.148C43.7322 36.6365 44.4683 36.1748 45.0785 35.7633C45.6877 35.351 46.4525 34.8114 47.3733 34.1435C47.8505 33.7973 48.238 33.5173 48.5442 33.2975C48.8286 33.0929 49.0427 32.9403 49.1797 32.8436C50.1038 32.1988 51.5439 31.1949 53.48 29.8467C57.0031 27.3921 62.1917 23.7792 69.0675 18.9937C71.1354 17.5453 72.8631 15.7974 74.2516 13.7526C75.6377 11.7077 76.3325 9.56278 76.3325 7.31844C76.3325 5.4433 75.6588 3.83879 74.3143 2.50241C72.9682 1.1677 71.3742 0.5 69.5328 0.5Z" fill="#404040"/>
</svg>
