<svg width="86" height="104" viewBox="0 0 86 104" fill="none" xmlns="http://www.w3.org/2000/svg">
<path d="M83.388 22.8029V73.2409C83.388 84.2866 74.4337 93.2409 63.388 93.2409H31.4902C20.4445 93.2409 11.4902 84.2866 11.4902 73.2409V22C11.4902 10.9543 20.4445 2 31.4902 2H66.2348M83.388 22.8029C83.388 22.8029 72.371 26.4842 67.3296 22.073C64.4099 19.5182 66.643 2.48606 66.2348 2M83.388 22.8029L66.2348 2M28.2786 55.6496H68.7895M68.7895 70.6131H28.2786" stroke="white" stroke-width="4" stroke-linecap="round" stroke-linejoin="round"/>
<path d="M12.219 13.6788V13.6788C6.57519 13.6788 2 18.254 2 23.8978V82C2 93.0457 10.9543 102 22 102H58.6088C63.223 102 66.9635 98.2595 66.9635 93.6453V93.6453" stroke="white" stroke-width="4" stroke-linecap="round" stroke-linejoin="round"/>
</svg>
