<svg width="101" height="54" viewBox="0 0 101 54" fill="none" xmlns="http://www.w3.org/2000/svg">
<path d="M45.6104 27.2157H99.4155V51.8405H45.6104M45.6104 27.2157V51.8405M45.6104 27.2157V14.0169L23.2388 2L2 14.0169V51.8405H45.6104" stroke="#404040" stroke-width="3" stroke-linecap="round"/>
<line x1="46.1768" y1="30.3848" x2="99.4155" y2="30.3848" stroke="#404040"/>
<rect x="51.208" y="37.615" width="8.06191" height="10.3274" stroke="#404040"/>
<rect x="86.3223" y="37.615" width="8.06191" height="10.3274" stroke="#404040"/>
<rect x="63.668" y="37.615" width="18.2565" height="1.83185" stroke="#404040"/>
<rect x="68.1992" y="39.8804" width="9.19464" height="10.3274" stroke="#404040"/>
<line x1="73.0459" y1="39.9468" x2="73.0459" y2="50.7078" stroke="#404040" stroke-width="0.5"/>
<ellipse cx="29.4686" cy="49.5751" rx="2.54866" ry="1.69911" fill="#404040"/>
<ellipse cx="25.5037" cy="49.5751" rx="2.54866" ry="1.69911" fill="#404040"/>
<ellipse cx="21.5399" cy="49.5751" rx="2.54866" ry="1.69911" fill="#404040"/>
<ellipse cx="26.071" cy="47.3096" rx="2.54866" ry="1.69911" transform="rotate(16.2729 26.071 47.3096)" fill="#404040"/>
<ellipse cx="17.3826" cy="49.6548" rx="2.54866" ry="1.69911" transform="rotate(16.2729 17.3826 49.6548)" fill="#404040"/>
<ellipse cx="34.9402" cy="49.0884" rx="2.54866" ry="1.69911" transform="rotate(16.2729 34.9402 49.0884)" fill="#404040"/>
<ellipse cx="23.0466" cy="48.522" rx="2.54866" ry="1.69911" transform="rotate(16.2729 23.0466 48.522)" fill="#404040"/>
<ellipse cx="11.528" cy="49.7643" rx="2.15795" ry="1.69911" transform="rotate(16.2729 11.528 49.7643)" fill="#404040"/>
<ellipse cx="23.613" cy="45.6902" rx="2.54866" ry="1.69911" transform="rotate(16.2729 23.613 45.6902)" fill="#404040"/>
<ellipse cx="30.035" cy="47.8759" rx="2.54866" ry="1.69911" fill="#404040"/>
<ellipse cx="27.203" cy="45.6104" rx="2.54866" ry="2.26548" fill="#404040"/>
<ellipse cx="14.1766" cy="49.0087" rx="2.54866" ry="1.69911" fill="#404040"/>
<ellipse cx="30.55" cy="45.1994" rx="2.54866" ry="1.69911" transform="rotate(-110.904 30.55 45.1994)" fill="#404040"/>
<ellipse cx="23.8055" cy="43.3449" rx="2.54866" ry="1.69911" fill="#404040"/>
<ellipse cx="20.9735" cy="46.1769" rx="2.54866" ry="1.69911" fill="#404040"/>
<ellipse cx="18.7078" cy="47.3095" rx="2.54866" ry="1.69911" fill="#404040"/>
<ellipse cx="33.4334" cy="49.5751" rx="2.54866" ry="1.69911" fill="#404040"/>
<ellipse cx="28.3358" cy="42.7787" rx="2.54866" ry="1.69911" fill="#404040"/>
<ellipse cx="32.867" cy="46.7431" rx="2.54866" ry="1.69911" fill="#404040"/>
<line x1="24.5279" y1="42.5263" x2="23.598" y2="37.7774" stroke="#278079"/>
<line x1="25.6285" y1="42.3607" x2="24.731" y2="37.7774" stroke="#278079"/>
<ellipse cx="24.3719" cy="41.0795" rx="2.54866" ry="1.69911" fill="#404040"/>
<path d="M24.3719 37.2476L17.3066 32.19M24.3719 37.2476C24.3719 37.2476 24.6277 34.9599 22.813 33.8734C21.2356 32.9289 17.3066 32.19 17.3066 32.19M24.3719 37.2476C24.3719 37.2476 21.1011 39.384 18.9919 36.7538C17.3626 34.7221 17.3066 32.19 17.3066 32.19" stroke="#278079" stroke-linecap="round"/>
<path d="M24.0879 37.6217L34.2638 28.053M24.0879 37.6217C24.0879 37.6217 25.2391 32.9336 27.4173 31.1824C29.3107 29.6601 34.2638 28.053 34.2638 28.053M24.0879 37.6217C24.0879 37.6217 30.4323 38.3792 32.7632 34.4923C34.5636 31.49 34.2638 28.053 34.2638 28.053" stroke="#278079" stroke-linecap="round"/>
</svg>
