<svg width="85" height="82" viewBox="0 0 85 82" fill="none" xmlns="http://www.w3.org/2000/svg">
<path d="M46.9522 7.44307C46.9522 9.27353 46.4958 10.7842 45.725 11.7987C44.9923 12.7631 43.9017 13.3861 42.3036 13.3861C40.6995 13.3861 39.5586 12.7572 38.784 11.7764C37.9781 10.756 37.4932 9.24909 37.4932 7.44307C37.4932 5.63705 37.9781 4.13018 38.784 3.10971C39.5586 2.12897 40.6995 1.5 42.3036 1.5C43.9017 1.5 44.9923 2.123 45.725 3.08745C46.4958 4.10192 46.9522 5.61261 46.9522 7.44307Z" stroke="#404040" stroke-width="3"/>
<path d="M32.918 27.5076V18.9318C32.918 18.9318 38.2082 14.936 42.1409 14.8867C46.1896 14.8359 51.6875 18.9318 51.6875 18.9318V27.5076" stroke="#404040" stroke-width="3" stroke-linecap="round"/>
<path d="M46.9112 59.9355C46.9112 61.766 46.4547 63.2767 45.684 64.2911C44.9513 65.2556 43.8607 65.8786 42.2626 65.8786C40.6585 65.8786 39.5176 65.2496 38.743 64.2689C37.9371 63.2484 37.4521 61.7415 37.4521 59.9355C37.4521 58.1295 37.9371 56.6226 38.743 55.6021C39.5176 54.6214 40.6585 53.9924 42.2626 53.9924C43.8607 53.9924 44.9513 54.6154 45.684 55.5799C46.4547 56.5944 46.9112 58.105 46.9112 59.9355Z" stroke="#404040" stroke-width="3"/>
<path d="M32.8779 80V71.4243C32.8779 71.4243 38.1682 67.4284 42.1009 67.3791C46.1496 67.3284 51.6474 71.4243 51.6474 71.4243V80" stroke="#404040" stroke-width="3" stroke-linecap="round"/>
<path d="M77.7891 59.9355C77.7891 61.766 77.3327 63.2767 76.5619 64.2911C75.8292 65.2556 74.7386 65.8786 73.1405 65.8786C71.5364 65.8786 70.3955 65.2496 69.6209 64.2689C68.815 63.2484 68.3301 61.7415 68.3301 59.9355C68.3301 58.1295 68.815 56.6226 69.6209 55.6021C70.3955 54.6214 71.5364 53.9924 73.1405 53.9924C74.7386 53.9924 75.8292 54.6154 76.5619 55.5799C77.3327 56.5944 77.7891 58.105 77.7891 59.9355Z" stroke="#404040" stroke-width="3"/>
<path d="M63.7559 80V71.4243C63.7559 71.4243 69.0461 67.4284 72.9788 67.3791C77.0275 67.3284 82.5253 71.4243 82.5253 71.4243V80" stroke="#404040" stroke-width="3" stroke-linecap="round"/>
<path d="M16.0333 59.9355C16.0333 61.766 15.5768 63.2767 14.8061 64.2911C14.0733 65.2556 12.9827 65.8786 11.3846 65.8786C9.78057 65.8786 8.63964 65.2496 7.86508 64.2689C7.05913 63.2484 6.57422 61.7415 6.57422 59.9355C6.57422 58.1295 7.05913 56.6226 7.86508 55.6021C8.63964 54.6214 9.78057 53.9924 11.3846 53.9924C12.9827 53.9924 14.0733 54.6154 14.8061 55.5799C15.5768 56.5944 16.0333 58.105 16.0333 59.9355Z" stroke="#404040" stroke-width="3"/>
<path d="M2 80V71.4243C2 71.4243 7.29026 67.4284 11.2229 67.3791C15.2717 67.3284 20.7695 71.4243 20.7695 71.4243V80" stroke="#404040" stroke-width="3" stroke-linecap="round"/>
<path d="M42.1416 29.0254V37.98M42.1416 37.98H11.2637V46.6258M42.1416 37.98H73.0196V46.6258M42.1416 37.98V46.6258" stroke="#278079" stroke-width="2" stroke-linecap="round" stroke-linejoin="round"/>
</svg>
